<svg xmlns="http://www.w3.org/2000/svg" width="284.256" height="289.505" viewBox="0 0 284.256 289.505"><defs><style>.a{fill:#ffe1e1;}</style></defs><path class="a" d="M2008.75,1484.21c-3.52,2.88-4.14,8.14-1.77,12.57a167.724,167.724,0,0,1-17.94,15.81c-3.92,2.97-7.79,5.64-11.51,8.01-.54-.66-1.1-1.32-1.67-1.97a91.084,91.084,0,0,0-8.77-8.8,43.638,43.638,0,0,1,12.06-22.57c4.72,2.27,10.14,1.26,12.77-2.64,2.98-4.39,1.31-10.79-3.73-14.28s-11.53-2.77-14.5,1.62c-2.71,4.01-1.56,9.68,2.48,13.3a33.551,33.551,0,0,1-9.02,13.98,32.553,32.553,0,0,1-7.18,4.96,87.523,87.523,0,0,0-16.66-9.35,91.013,91.013,0,0,1,8.99-30.72c4.99.8,9.74-1.62,11.2-6.01,1.69-5.05-1.62-10.81-7.36-12.87s-11.77.39-13.45,5.44c-1.46,4.39.83,9.32,5.23,11.87a93.2,93.2,0,0,1-5.28,18.04,92.013,92.013,0,0,1-5.79,11.79,86.84,86.84,0,0,0-17.47-4,65,65,0,0,1-6.03-19.96,63.917,63.917,0,0,1,.38-18.86c5.04-.76,8.86-4.63,8.83-9.37-.03-5.37-4.95-9.82-11.01-9.93-6.06-.13-10.95,4.13-10.91,9.5.03,4.74,3.84,8.76,8.92,9.72a62.465,62.465,0,0,1,.55,18.88,60.6,60.6,0,0,1-5.81,19.46,85.569,85.569,0,0,0-20.23,3.47,39.6,39.6,0,0,1-2.29-8.28,40.8,40.8,0,0,1-.49-6.69c4.91-1.63,8.02-6.23,7.1-10.95-1.01-5.3-6.66-8.78-12.6-7.77s-9.94,6.12-8.93,11.42c.9,4.65,5.38,7.9,10.48,7.93a61.614,61.614,0,0,1,2.18,6.98,65.926,65.926,0,0,1,1.58,8.3c-.66.22-1.3.45-1.94.69a83.548,83.548,0,0,0-21.4,11.58,76.98,76.98,0,0,1-26.71-24.68c3.06-3.93,3.25-9.29.16-12.85-3.56-4.09-10.1-4.23-14.62-.31s-5.32,10.44-1.76,14.54c3.14,3.62,8.61,4.14,12.96,1.51a68.917,68.917,0,0,1,21.36,29.17,83.439,83.439,0,0,0-14.26,18.44,34.091,34.091,0,0,1-5.59-2.28,38.8,38.8,0,0,1-9.09-6.56c1.89-4.96.27-10.49-4.01-12.91-4.71-2.66-10.85-.53-13.73,4.75-2.86,5.28-1.37,11.72,3.35,14.37,4.07,2.29,9.2,1.02,12.37-2.76a61.747,61.747,0,0,1,9.72,5.31,55.311,55.311,0,0,1,5.01,3.74,84.837,84.837,0,0,0-7.12,19.83,81.287,81.287,0,0,1-11.92.06,83.14,83.14,0,0,1-23.91-5.3c.03-5.08-3.1-9.59-7.69-10.58-5.26-1.13-10.44,2.77-11.58,8.71-1.12,5.93,2.22,11.67,7.47,12.8,4.66,1,9.23-1.93,11.02-6.73a64.641,64.641,0,0,1,23.71,5.23,65.457,65.457,0,0,1,11.21,6.18c-.12,1.24-.23,2.51-.31,3.76a88.79,88.79,0,0,0,.96,19.04,61.327,61.327,0,0,1-6.09,2.41,63.991,63.991,0,0,1-18.45,3.29c-1.97-4.78-6.66-7.72-11.25-6.77-5.21,1.06-8.33,6.76-6.97,12.71,1.34,5.96,6.67,9.92,11.89,8.83,4.59-.94,7.55-5.45,7.28-10.58a65.465,65.465,0,0,1,18.23-4.29c2.22-.19,4.35-.26,6.39-.24a88.909,88.909,0,0,0,11.65,28.2,114.639,114.639,0,0,1-9.83,9.04,112.38,112.38,0,0,1-15.24,10.45c-3.64-4.01-9.28-5.11-13.23-2.36-4.36,3.03-5.02,9.55-1.49,14.57s9.92,6.64,14.27,3.61c3.87-2.69,4.8-8.15,2.49-12.86a120.068,120.068,0,0,1,26.83-16.91c1.4,1.9,2.89,3.75,4.47,5.57a90.589,90.589,0,0,0,12.11,11.6,70.063,70.063,0,0,1-20.18,33.61c-4.53-2.45-9.9-1.77-12.75,1.9-3.24,4.18-1.98,10.66,2.83,14.47s11.35,3.5,14.59-.68c2.81-3.62,2.24-8.95-1.07-12.78a108.272,108.272,0,0,1,26.08-29.94,87.337,87.337,0,0,0,21.23,9.26,56.359,56.359,0,0,1-1.96,7.86,55.713,55.713,0,0,1-6.23,12.98c-4.86-1.55-9.97.17-12.05,4.34-2.36,4.75.11,10.9,5.54,13.72a11.4,11.4,0,0,0,10.09.41,8.51,8.51,0,0,0,4.04-3.91,8.614,8.614,0,0,0,.6-1.63c1.11-4.19-1.05-8.99-5.34-11.63a79.021,79.021,0,0,1,11.65-20.56,85.264,85.264,0,0,0,12.96,1.73c.41.03.83.05,1.22.06a73.077,73.077,0,0,1,3.29,19.12,71.638,71.638,0,0,1-1.76,18.78c-5.05.43-9.07,4.01-9.38,8.7-.34,5.35,4.28,10.12,10.33,10.65,6.03.55,11.22-3.36,11.56-8.71.31-4.65-3.14-8.86-8.02-10.23a94.321,94.321,0,0,1,5.2-38.52,85.319,85.319,0,0,0,23.73-5.5,65.451,65.451,0,0,1,5.02,8.34,68.35,68.35,0,0,1,6.13,18c-4.42,2.49-6.6,7.46-4.95,11.93,1.88,5.06,8,7.55,13.67,5.56s8.74-7.7,6.87-12.79c-1.63-4.41-6.47-6.87-11.43-6.12a96.432,96.432,0,0,1-7.26-17.64,93.569,93.569,0,0,1-2.33-9.76,82.985,82.985,0,0,0,15.95-9.96,129.019,129.019,0,0,1,12.99,11.46,126.492,126.492,0,0,1,15.47,18.95c-3.04,3.92-3.21,9.27-.13,12.82,3.56,4.1,10.1,4.24,14.64.29,4.52-3.92,5.3-10.42,1.74-14.52-3.07-3.53-8.37-4.12-12.66-1.69a147.912,147.912,0,0,1-16.64-17.95,151.02,151.02,0,0,1-9.83-14.18,82.916,82.916,0,0,0,12.63-15.04c1.02.35,2.05.75,3.09,1.17a68.331,68.331,0,0,1,16.3,9.36c-1.58,4.77.04,9.99,4.13,12.33,4.69,2.7,10.85.61,13.77-4.64,2.9-5.26,1.46-11.71-3.23-14.4-4.16-2.39-9.48-1.02-12.67,2.99a47.931,47.931,0,0,1-16.31-9.75c-.73-.66-1.42-1.32-2.08-2a84.521,84.521,0,0,0,8.17-20.18,111.324,111.324,0,0,1,40.2,6.69c0,5.05,3.12,9.51,7.68,10.5,5.27,1.13,10.44-2.77,11.57-8.71s-2.21-11.66-7.46-12.8c-4.55-.98-9.04,1.8-10.9,6.41a132.5,132.5,0,0,1-23.83-4.35,130.748,130.748,0,0,1-15.63-5.42,90.66,90.66,0,0,0,1.05-9.32,88.348,88.348,0,0,0-.46-15.42,99.572,99.572,0,0,1,36.94-9.22c1.94,4.69,6.5,7.62,11.04,6.76,5.24-.97,8.46-6.61,7.22-12.59-1.26-5.98-6.52-10.01-11.76-9.03-4.57.85-7.63,5.29-7.47,10.38a74.16,74.16,0,0,1-18.3,4.03,75.593,75.593,0,0,1-19.53-.75,89.218,89.218,0,0,0-4.72-14.23,70.144,70.144,0,0,1,6.61-4.73,69.38,69.38,0,0,1,17.01-7.75c3.07,4.15,8.29,5.84,12.45,3.79,4.76-2.34,6.37-8.67,3.61-14.15-2.78-5.46-8.88-8-13.65-5.65-4.17,2.05-5.93,7.2-4.41,12.15a63.37,63.37,0,0,1-24.2,10.84,90.046,90.046,0,0,0-7.3-11.88c3.12-3.2,6.55-6.49,10.31-9.77a174.121,174.121,0,0,1,19.03-14.44c3.89,3.18,9.16,3.59,12.68.73,4.1-3.36,4.27-9.93.37-14.67S2012.84,1480.86,2008.75,1484.21Z" transform="translate(-1770.484 -1430.267)"/></svg>