<svg xmlns="http://www.w3.org/2000/svg" width="400.123" height="304.839" viewBox="0 0 400.123 304.839">
  <defs>
    <style>
      .cls-1 {
        fill: #fb4c47;
      }

      .cls-2 {
        fill: #c63f3b;
      }

      .cls-3 {
        fill: #ff8f8c;
      }

      .cls-4 {
        fill: #fff;
      }

      .cls-5 {
        opacity: 0.63;
      }

      .cls-6 {
        fill: #ffc700;
      }

      .cls-7 {
        fill: #d09700;
      }

      .cls-8 {
        fill: #1db776;
      }

      .cls-9 {
        fill: #128e5a;
      }
    </style>
  </defs>
  <g id="Group_52" data-name="Group 52" transform="translate(12364.978 12379.375)">
    <path id="Path_834" data-name="Path 834" class="cls-1" d="M467.175,1362.62a7.475,7.475,0,0,0,9.8,4l15.69-6.59a55.491,55.491,0,0,1,25.29-4.24,14.965,14.965,0,1,0-10.189-24.85,58.035,58.035,0,0,1-20.9,15.3l-15.687,6.59A7.474,7.474,0,0,0,467.175,1362.62Z" transform="translate(-12668 -13647)"/>
    <path id="Path_835" data-name="Path 835" class="cls-2" d="M392.515,1446.69a6.191,6.191,0,0,0-8.066,3.39l-5.319,13.03a45.785,45.785,0,0,1-12.306,17.26,12.374,12.374,0,1,0,20.485,8.57,47.964,47.964,0,0,1,3.278-21.16l5.318-13.02A6.189,6.189,0,0,0,392.515,1446.69Z" transform="translate(-12668 -13647)"/>
    <path id="Path_836" data-name="Path 836" class="cls-2" d="M440.488,1329.2a6.464,6.464,0,0,0,8.441-3.54l5.565-13.63a47.953,47.953,0,0,1,12.878-18.07,12.847,12.847,0,0,0,3.786-5.7,12.947,12.947,0,0,0-24.283-8.95,12.866,12.866,0,0,0-.939,5.68,50.18,50.18,0,0,1-3.43,22.14l-5.565,13.63A6.473,6.473,0,0,0,440.488,1329.2Z" transform="translate(-12668 -13647)"/>
    <path id="Path_837" data-name="Path 837" class="cls-1" d="M438.948,1431.77a7.486,7.486,0,0,0-4,9.8l6.592,15.69a55.4,55.4,0,0,1,4.239,25.29,14.963,14.963,0,1,0,24.851-10.19,57.976,57.976,0,0,1-15.293-20.9l-6.591-15.69A7.483,7.483,0,0,0,438.948,1431.77Z" transform="translate(-12668 -13647)"/>
    <path id="Path_838" data-name="Path 838" class="cls-2" d="M470.627,1472.36a57.978,57.978,0,0,1-15.294-20.9l-6.591-15.69a7.484,7.484,0,1,0-13.8,5.8l6.591,15.69a57.991,57.991,0,0,0,15.294,20.9,14.967,14.967,0,0,1,2.008,20.25,14.753,14.753,0,0,0,6.751-.69,14.975,14.975,0,0,0,5.039-25.36Z" transform="translate(-12668 -13647)"/>
    <path id="Path_839" data-name="Path 839" class="cls-3" d="M355.029,1376.22a24.443,24.443,0,1,0-32.005-13.06A24.438,24.438,0,0,0,355.029,1376.22Z" transform="translate(-12668 -13647)"/>
    <path id="Path_840" data-name="Path 840" class="cls-1" d="M336.1,1331.15a24.45,24.45,0,0,0-6.445,3.98,24.447,24.447,0,0,1,18.03,42.91,24.445,24.445,0,1,0-11.585-46.89Z" transform="translate(-12668 -13647)"/>
    <path id="Path_841" data-name="Path 841" class="cls-1" d="M449.4,1456.67A79.816,79.816,0,1,0,344.9,1414,79.823,79.823,0,0,0,449.4,1456.67Z" transform="translate(-12668 -13647)"/>
    <path id="Path_842" data-name="Path 842" class="cls-2" d="M387.57,1309.5c-2.326.97-4.579,2.05-6.762,3.22a79.815,79.815,0,0,1,61.563,146.52c2.36-.74,4.708-1.59,7.035-2.57A79.817,79.817,0,1,0,387.57,1309.5Z" transform="translate(-12668 -13647)"/>
    <path id="Path_843" data-name="Path 843" class="cls-2" d="M441.8,1361.28a16.211,16.211,0,1,0-21.227-8.67A16.214,16.214,0,0,0,441.8,1361.28Z" transform="translate(-12668 -13647)"/>
    <path id="Path_844" data-name="Path 844" class="cls-4" d="M429.234,1331.39a16.1,16.1,0,0,0-6.189,4.58,16.213,16.213,0,0,1,11.141,26.52,16.211,16.211,0,1,0-4.952-31.1Z" transform="translate(-12668 -13647)"/>
    <path id="Path_845" data-name="Path 845" class="cls-4" d="M408.514,1433a10.977,10.977,0,1,0-14.369-5.87A10.975,10.975,0,0,0,408.514,1433Z" transform="translate(-12668 -13647)"/>
    <path id="Path_846" data-name="Path 846" class="cls-1" d="M497.278,1430.42a14.964,14.964,0,1,0-19.6-8A14.96,14.96,0,0,0,497.278,1430.42Z" transform="translate(-12668 -13647)"/>
    <path id="Path_847" data-name="Path 847" class="cls-2" d="M485.683,1402.83a14.823,14.823,0,0,0-6.122,4.75,14.957,14.957,0,0,1,10.04,23.89,14.964,14.964,0,1,0-3.918-28.64Z" transform="translate(-12668 -13647)"/>
    <path id="Path_848" data-name="Path 848" class="cls-2" d="M369.791,1403.54a7.485,7.485,0,0,1-4,9.8l-15.689,6.59a55.382,55.382,0,0,0-20.729,15.1,14.967,14.967,0,1,1-10.618-24.67,58.092,58.092,0,0,0,25.552-4.23l15.688-6.59A7.482,7.482,0,0,1,369.791,1403.54Z" transform="translate(-12668 -13647)"/>
    <path id="Path_849" data-name="Path 849" class="cls-1" d="M398.035,1334.39a7.486,7.486,0,0,0,4-9.8l-6.593-15.69a55.411,55.411,0,0,1-4.238-25.29,14.968,14.968,0,1,0-24.851,10.19,57.975,57.975,0,0,1,15.293,20.9l6.592,15.69A7.482,7.482,0,0,0,398.035,1334.39Z" transform="translate(-12668 -13647)"/>
    <path id="Path_850" data-name="Path 850" class="cls-2" d="M389.64,1275.86a14.961,14.961,0,0,0-25.293-2.31,14.956,14.956,0,0,1,13.061,15.86,55.4,55.4,0,0,0,4.239,25.29l6.592,15.69a7.483,7.483,0,1,0,13.8-5.8l-6.592-15.69a55.4,55.4,0,0,1-4.238-25.29A14.93,14.93,0,0,0,389.64,1275.86Z" transform="translate(-12668 -13647)"/>
    <path id="Path_851" data-name="Path 851" class="cls-2" d="M514.738,1327.45a14.846,14.846,0,0,0-5.481,3.78c-.26.28-.526.56-.792.84a14.947,14.947,0,0,1,9.622,24.11c.3.03.6.04.9.07a14.96,14.96,0,1,0-4.244-28.8Z" transform="translate(-12668 -13647)"/>
    <g id="Group_51" data-name="Group 51" class="cls-5" transform="translate(-12668 -13647)">
      <path id="Path_593" data-name="Path 593" class="cls-6" d="M573.882,1502.02a3.8,3.8,0,0,0,5.31.91l7.069-5.01a28.242,28.242,0,0,1,12.1-4.89,7.617,7.617,0,1,0-7.8-11.23,29.579,29.579,0,0,1-8.7,9.91l-7.068,5A3.811,3.811,0,0,0,573.882,1502.02Z"/>
      <path id="Path_594" data-name="Path 594" class="cls-7" d="M540.189,1542.85a3.151,3.151,0,0,0-3.634,2.58l-1.206,7.06a23.3,23.3,0,0,1-4.211,9.93,6.3,6.3,0,1,0,11.125,2,24.389,24.389,0,0,1-.705-10.87l1.206-7.06A3.157,3.157,0,0,0,540.189,1542.85Z"/>
      <path id="Path_595" data-name="Path 595" class="cls-7" d="M551.068,1479.18a3.293,3.293,0,0,0,3.8-2.69l1.262-7.39a24.419,24.419,0,0,1,4.406-10.4,6.589,6.589,0,1,0-11.642-2.09,25.542,25.542,0,0,1,.739,11.38l-1.262,7.39A3.3,3.3,0,0,0,551.068,1479.18Z"/>
      <path id="Path_596" data-name="Path 596" class="cls-6" d="M561.613,1530.32a3.81,3.81,0,0,0-.907,5.31l5.007,7.07a28.213,28.213,0,0,1,4.9,12.1,7.614,7.614,0,1,0,11.225-7.81,29.521,29.521,0,0,1-9.906-8.69l-5.006-7.07A3.8,3.8,0,0,0,561.613,1530.32Z"/>
      <path id="Path_597" data-name="Path 597" class="cls-7" d="M581.835,1546.99a29.432,29.432,0,0,1-9.906-8.7l-5.006-7.06a3.808,3.808,0,1,0-6.217,4.4l5.006,7.07a29.651,29.651,0,0,0,9.906,8.7,7.475,7.475,0,0,1,2.525,2.26,7.617,7.617,0,0,1,.707,7.58,7.472,7.472,0,0,0,3.279-1.09,7.62,7.62,0,0,0-.294-13.16Z"/>
      <path id="Path_598" data-name="Path 598" class="cls-7" d="M513.789,1511.97a12.439,12.439,0,1,0-17.346-2.96A12.435,12.435,0,0,0,513.789,1511.97Z"/>
      <path id="Path_599" data-name="Path 599" class="cls-6" d="M499.406,1491.67a12.231,12.231,0,0,0-2.764,2.68,12.447,12.447,0,0,1,13.694,19.34,12.442,12.442,0,1,0-10.93-22.02Z"/>
      <path id="Path_600" data-name="Path 600" class="cls-6" d="M569.556,1541.54a40.629,40.629,0,1,0-56.638-9.68A40.632,40.632,0,0,0,569.556,1541.54Z"/>
      <path id="Path_601" data-name="Path 601" class="cls-7" d="M522.6,1475.23q-1.572,1.11-3,2.34a40.63,40.63,0,0,1,46.758,66.02c1.09-.63,2.163-1.31,3.211-2.05a40.629,40.629,0,1,0-46.965-66.31Z"/>
      <path id="Path_602" data-name="Path 602" class="cls-4" d="M550.679,1497.76a3,3,0,1,0-4.189-.72A3.007,3.007,0,0,0,550.679,1497.76Z"/>
      <path id="Path_603" data-name="Path 603" class="cls-4" d="M546.622,1534.29a5.587,5.587,0,1,0-7.788-1.33A5.59,5.59,0,0,0,546.622,1534.29Z"/>
      <path id="Path_604" data-name="Path 604" class="cls-4" d="M528.987,1510.85a8.554,8.554,0,1,0-11.925-2.04A8.559,8.559,0,0,0,528.987,1510.85Z"/>
      <path id="Path_605" data-name="Path 605" class="cls-6" d="M590.446,1523.21a7.617,7.617,0,1,0-10.62-1.81A7.616,7.616,0,0,0,590.446,1523.21Z"/>
      <path id="Path_606" data-name="Path 606" class="cls-7" d="M581.641,1510.78a7.606,7.606,0,0,0-2.518,3.03,7.623,7.623,0,0,1,7.626,10.77,7.525,7.525,0,0,0,3.7-1.37,7.617,7.617,0,1,0-8.807-12.43Z"/>
      <path id="Path_607" data-name="Path 607" class="cls-7" d="M524.137,1523.92a3.809,3.809,0,0,1-.907,5.31l-7.069,5.01a28.238,28.238,0,0,0-8.635,9.78,7.5,7.5,0,0,1-2.762,2.93,7.617,7.617,0,1,1-5.236-14.01,29.622,29.622,0,0,0,12.231-4.92l7.069-5.01A3.811,3.811,0,0,1,524.137,1523.92Z"/>
      <path id="Path_608" data-name="Path 608" class="cls-6" d="M530.539,1486.44a3.808,3.808,0,0,0,.907-5.31l-5.007-7.07a28.114,28.114,0,0,1-4.9-12.1,7.62,7.62,0,1,0-13.75,5.55,7.693,7.693,0,0,0,2.525,2.26,29.433,29.433,0,0,1,9.906,8.7l5.006,7.07A3.81,3.81,0,0,0,530.539,1486.44Z"/>
      <path id="Path_609" data-name="Path 609" class="cls-7" d="M519.907,1458.28a7.616,7.616,0,0,0-12.824,1.65,7.61,7.61,0,0,1,8.24,6.44,28.214,28.214,0,0,0,4.9,12.1l5.007,7.07a3.811,3.811,0,0,0,6.217-4.41l-5.007-7.07a28.114,28.114,0,0,1-4.9-12.1A7.612,7.612,0,0,0,519.907,1458.28Z"/>
    </g>
    <path id="Path_852" data-name="Path 852" class="cls-8" d="M625.172,1418.39a4.389,4.389,0,0,0-5.265,3.27l-2.267,9.71a32.439,32.439,0,0,1-6.683,13.45,8.765,8.765,0,1,0,15.287,3.71,33.987,33.987,0,0,1-.068-15.17l2.267-9.7A4.386,4.386,0,0,0,625.172,1418.39Z" transform="translate(-12668 -13647)"/>
    <path id="Path_853" data-name="Path 853" class="cls-9" d="M610.973,1354.09a3.625,3.625,0,0,0,1.165-4.99l-4.349-7a26.851,26.851,0,0,1-3.956-11.77,7.248,7.248,0,1,0-13.375,4.47,7.12,7.12,0,0,0,2.268,2.29,28.1,28.1,0,0,1,8.907,8.83l4.349,7A3.631,3.631,0,0,0,610.973,1354.09Z" transform="translate(-12668 -13647)"/>
    <path id="Path_854" data-name="Path 854" class="cls-9" d="M650.2,1417.22a3.8,3.8,0,0,0-1.22,5.23l4.551,7.32a28.055,28.055,0,0,1,4.139,12.32,7.589,7.589,0,1,0,11.623-7.08,29.538,29.538,0,0,1-9.321-9.24l-4.55-7.33A3.8,3.8,0,0,0,650.2,1417.22Z" transform="translate(-12668 -13647)"/>
    <path id="Path_855" data-name="Path 855" class="cls-8" d="M602.083,1381.23a4.382,4.382,0,0,0-3.271-5.26l-9.707-2.27a32.463,32.463,0,0,1-13.45-6.68,8.764,8.764,0,1,0-3.711,15.28,33.923,33.923,0,0,1,15.169-.06l9.705,2.26A4.381,4.381,0,0,0,602.083,1381.23Z" transform="translate(-12668 -13647)"/>
    <path id="Path_856" data-name="Path 856" class="cls-9" d="M571.946,1382.3a33.923,33.923,0,0,1,15.169-.06l9.705,2.26a4.38,4.38,0,1,0,1.994-8.53l-9.705-2.27a33.926,33.926,0,0,0-15.169.07,8.765,8.765,0,0,1-10.294-6.01,8.616,8.616,0,0,0-1.994,3.44,8.765,8.765,0,0,0,10.294,11.1Z" transform="translate(-12668 -13647)"/>
    <path id="Path_857" data-name="Path 857" class="cls-9" d="M657.274,1360.53a14.318,14.318,0,1,0,17.2-10.68A14.319,14.319,0,0,0,657.274,1360.53Z" transform="translate(-12668 -13647)"/>
    <path id="Path_858" data-name="Path 858" class="cls-8" d="M685.16,1367.05a14.288,14.288,0,0,0,.329-4.42,14.32,14.32,0,0,1-26.548-6.21,14.318,14.318,0,1,0,26.219,10.63Z" transform="translate(-12668 -13647)"/>
    <path id="Path_859" data-name="Path 859" class="cls-8" d="M586.681,1377.64a46.749,46.749,0,1,0,56.158-34.89A46.741,46.741,0,0,0,586.681,1377.64Z" transform="translate(-12668 -13647)"/>
    <path id="Path_860" data-name="Path 860" class="cls-9" d="M677.739,1398.9c.336-1.44.6-2.88.8-4.31a46.75,46.75,0,0,1-90.648-21.18q-.689,2.07-1.2,4.23a46.749,46.749,0,0,0,91.049,21.26Z" transform="translate(-12668 -13647)"/>
    <path id="Path_861" data-name="Path 861" class="cls-9" d="M634.529,1406.82a9.5,9.5,0,1,0,11.407-7.09A9.506,9.506,0,0,0,634.529,1406.82Z" transform="translate(-12668 -13647)"/>
    <path id="Path_862" data-name="Path 862" class="cls-4" d="M653.033,1411.14a9.477,9.477,0,0,0-.048-4.52,9.49,9.49,0,0,1-16.4-3.83,9.5,9.5,0,1,0,16.453,8.35Z" transform="translate(-12668 -13647)"/>
    <path id="Path_863" data-name="Path 863" class="cls-4" d="M611.964,1366.38a6.428,6.428,0,1,0,7.722-4.8A6.427,6.427,0,0,0,611.964,1366.38Z" transform="translate(-12668 -13647)"/>
    <path id="Path_864" data-name="Path 864" class="cls-8" d="M582.671,1409.36a8.767,8.767,0,1,0,10.531-6.54A8.768,8.768,0,0,0,582.671,1409.36Z" transform="translate(-12668 -13647)"/>
    <path id="Path_865" data-name="Path 865" class="cls-9" d="M599.749,1413.35a8.747,8.747,0,0,0-.148-4.54,8.767,8.767,0,0,1-14.784-3.45,8.667,8.667,0,0,0-2.143,4,8.767,8.767,0,0,0,17.075,3.99Z" transform="translate(-12668 -13647)"/>
    <path id="Path_866" data-name="Path 866" class="cls-9" d="M639.244,1358.15a4.386,4.386,0,0,1-3.271-5.27l2.267-9.7a32.454,32.454,0,0,0-.033-15.02,8.765,8.765,0,1,1,15.349,3.44,34.007,34.007,0,0,0-6.781,13.57l-2.267,9.71A4.387,4.387,0,0,1,639.244,1358.15Z" transform="translate(-12668 -13647)"/>
    <path id="Path_867" data-name="Path 867" class="cls-8" d="M662.332,1395.31a4.381,4.381,0,0,0,3.271,5.26l9.707,2.27a32.465,32.465,0,0,1,13.45,6.68,8.764,8.764,0,1,0,3.711-15.28,33.925,33.925,0,0,1-15.169.06l-9.705-2.26A4.381,4.381,0,0,0,662.332,1395.31Z" transform="translate(-12668 -13647)"/>
    <path id="Path_868" data-name="Path 868" class="cls-9" d="M692.973,1411.44a8.762,8.762,0,0,0,9.79-11.2,8.758,8.758,0,0,1-12.011.75,32.476,32.476,0,0,0-13.45-6.69l-9.706-2.27a4.385,4.385,0,0,0-1.994,8.54l9.706,2.27a32.333,32.333,0,0,1,13.45,6.68A8.7,8.7,0,0,0,692.973,1411.44Z" transform="translate(-12668 -13647)"/>
    <path id="Path_869" data-name="Path 869" class="cls-9" d="M626.221,1452.44a8.737,8.737,0,0,0,.021-3.9c-.049-.22-.094-.44-.14-.66a8.755,8.755,0,0,1-14.81-3.46c-.11.14-.218.27-.331.41a8.763,8.763,0,1,0,15.26,7.61Z" transform="translate(-12668 -13647)"/>
  </g>
</svg>
