<svg width="747" height="708" viewBox="0 0 747 708" fill="none" xmlns="http://www.w3.org/2000/svg">
<path d="M299.319 658.925C261.696 675.086 223.219 683.929 181.225 678.756C134.418 672.986 91.734 636.038 66.4997 598.06C57.1241 583.954 49.3527 568.015 49.127 551.082C48.62 511.965 85.1652 505.204 116.839 509.469C134.694 511.865 151.402 518.88 167.922 525.83C195.349 537.378 226.931 541.876 251.944 558.731C260.339 564.405 266.825 571.456 276.404 575.358C291.305 581.431 308.007 583.668 323.258 589.086C336.281 593.739 351.027 601.828 351.946 615.621C352.871 629.767 338.701 639.746 326.1 646.224C317.183 650.836 308.283 655.091 299.319 658.925Z" fill="url(#paint0_linear)"/>
<path d="M124.723 165.325C181.746 68.2262 309.773 22.3767 417.805 50.4321C469.899 63.9694 514.928 96.2993 556.724 130.184C593.566 160.048 629.536 192.505 655.96 232.264C674.002 259.402 687.804 292.444 698.052 323.464C713.378 369.91 706.234 431.512 644.87 431.038C630.472 430.929 617.739 426.585 604.043 422.952C592.964 420.005 582.484 422.89 571.113 421.84C542.49 419.203 514.518 410.555 487.914 400.023C433.694 378.536 383.428 347.817 327.915 329.511C282.423 314.532 234.485 308.395 186.686 311.429C166.521 312.713 145.413 315.508 126.789 307.669C80.8826 288.33 96.9583 227.051 111.358 192.23C115.17 182.956 119.636 173.965 124.723 165.325Z" fill="url(#paint1_linear)"/>
<path d="M620.327 147.067C631.328 155.797 673.815 178.815 672.633 148.625C672.328 141.105 668.447 134.037 663.453 128.841C657.739 122.876 651.511 119.958 646.891 112.875C641.245 104.328 634.933 96.36 628.036 89.0753C613.921 73.8975 597.694 60.0816 578.749 54.6907C565.461 50.9151 543.55 53.513 538.468 70.5589C531.063 95.3735 569.779 97.3045 582.074 105.369C593.741 113 600.977 126.95 610.533 137.787C613.551 141.204 616.83 144.311 620.327 147.067Z" fill="url(#paint2_linear)"/>
<path d="M426.326 130.136C449.172 141.654 466.942 159.966 488.021 174.271C523.114 198.085 569.237 200.415 608.715 215.992C648.97 231.887 680.329 258.626 696.358 299.068C717.063 351.268 722.839 414.576 711.785 470.353C699.608 531.749 664.38 574.304 610.791 604.648C557.234 634.974 496.785 651.44 435.853 658.001C429.973 658.639 424.095 659.16 418.188 659.583C285.502 669.019 105.77 633.83 51.2711 494.187C50.7718 492.911 50.2898 491.634 49.8054 490.339C44.1117 474.757 40.3041 458.549 38.4638 442.061C31.7943 383.62 37.8311 318.24 54.7976 261.938C66.2068 224.035 93.9334 190.806 123.847 166.466C165.875 132.272 219.128 120.769 272.404 113.518C311.855 108.15 356.363 104.224 394.831 116.937C405.644 120.544 416.172 124.956 426.326 130.136Z" fill="url(#paint3_linear)"/>
<defs>
<linearGradient id="paint0_linear" x1="46.0595" y1="556.687" x2="95.076" y2="692.827" gradientUnits="userSpaceOnUse">
<stop stop-color="#FFD8D8"/>
<stop offset="1" stop-color="#FFF8F8"/>
</linearGradient>
<linearGradient id="paint1_linear" x1="692.47" y1="211.694" x2="255.853" y2="-25.655" gradientUnits="userSpaceOnUse">
<stop stop-color="#FFF8F8"/>
<stop offset="1" stop-color="#FFCFCF"/>
</linearGradient>
<linearGradient id="paint2_linear" x1="673.658" y1="148.028" x2="515.938" y2="92.5056" gradientUnits="userSpaceOnUse">
<stop stop-color="#FFD7D7"/>
<stop offset="1" stop-color="#FFF9F9"/>
</linearGradient>
<linearGradient id="paint3_linear" x1="667.235" y1="582.48" x2="27.0668" y2="265.53" gradientUnits="userSpaceOnUse">
<stop stop-color="#FFCFCF"/>
<stop offset="1" stop-color="#FFF8F8"/>
</linearGradient>
</defs>
</svg>
