<svg width="1792" height="894" viewBox="0 0 1792 894" fill="none" xmlns="http://www.w3.org/2000/svg">
<path d="M108.78 655.506C122.117 662.318 171.374 677.448 163.79 646.135C161.89 638.337 156.346 631.765 150.033 627.383C142.804 622.349 135.68 620.607 129.36 614.175C121.66 606.427 113.386 599.425 104.645 593.259C86.6963 580.361 66.8278 569.33 45.8883 567.678C31.2028 566.525 8.84368 573.849 7.11542 592.738C4.59196 620.236 45.4726 614.113 60.022 619.959C73.8237 625.483 84.3216 638.544 96.59 647.864C100.465 650.802 104.545 653.36 108.78 655.506Z" fill="url(#paint0_linear)"/>
<path d="M1725.16 727.124C1693.8 724.688 1663.63 727.779 1634.37 741.922C1601.76 757.688 1579.85 795.084 1570.9 828.913C1567.57 841.479 1565.86 854.979 1569.88 867.335C1579.19 895.877 1607.44 891.751 1629.42 880.82C1641.81 874.665 1652.22 865.436 1662.52 856.302C1679.61 841.131 1701.46 830.054 1715.49 811.624C1720.19 805.427 1723.16 798.7 1729.16 793.497C1738.5 785.4 1750.09 779.645 1759.84 771.938C1768.16 765.338 1776.88 755.815 1774.14 745.568C1771.32 735.063 1758.54 731.318 1747.78 729.728C1740.15 728.583 1732.63 727.693 1725.16 727.124Z" fill="url(#paint1_linear)"/>
<path d="M825.104 721.83C789.933 742.162 753.065 755.385 711.087 755.212C664.298 755.015 617.915 723.62 588.603 689.164C577.712 676.367 568.188 661.576 565.98 644.921C560.894 606.443 596.105 595.498 627.809 595.986C645.679 596.253 662.962 601.205 680.052 606.115C708.425 614.276 740.066 615.004 766.685 628.677C775.62 633.282 782.837 639.469 792.731 642.189C808.123 646.425 824.84 646.671 840.499 650.22C853.875 653.277 869.35 659.518 871.872 672.998C874.443 686.826 861.653 698.318 849.999 706.177C841.754 711.766 833.485 717.002 825.104 721.83Z" fill="url(#paint2_linear)"/>
<path d="M576.8 266.685C617.798 156.432 741.155 85.9824 857.386 95.193C913.435 99.6434 965.635 124.71 1014.79 151.964C1058.12 175.983 1101.03 202.828 1135.44 238.921C1158.93 263.556 1179.14 295.034 1195.33 325.078C1219.54 370.069 1223.39 434.735 1160.18 445.409C1145.35 447.915 1131.47 445.763 1116.72 444.517C1104.78 443.5 1094.53 448.375 1082.64 449.363C1052.72 451.856 1022.37 448.047 993.089 442.053C933.407 429.811 876.113 407.354 815.679 398.62C766.158 391.486 715.73 393.892 667.114 405.707C646.604 410.695 625.399 417.409 604.815 412.734C554.076 401.189 559.467 335.23 567.946 296.792C570.181 286.559 573.14 276.498 576.8 266.685Z" fill="url(#paint3_linear)"/>
<path d="M1076.51 160.678C1088.57 167.201 1133.33 182.109 1127.06 153.285C1125.49 146.106 1120.56 139.971 1114.87 135.824C1108.37 131.06 1101.88 129.313 1096.24 123.29C1089.35 116.032 1081.93 109.445 1074.06 103.613C1057.91 91.4207 1039.96 80.8962 1020.83 78.9338C1007.41 77.5628 986.791 83.785 984.803 101.037C981.901 126.153 1019.45 121.428 1032.64 127.092C1045.16 132.445 1054.49 144.626 1065.52 153.421C1069 156.193 1072.68 158.622 1076.51 160.678Z" fill="url(#paint4_linear)"/>
<path d="M872.693 173.827C898.29 181.519 919.899 197.123 944.184 208.005C984.615 226.119 1032.48 220.127 1075.93 228.97C1120.23 237.999 1157.35 259.8 1181.19 298.486C1211.98 348.417 1229.44 412.489 1228.21 471.875C1226.85 537.245 1198.36 587.427 1148.75 628.388C1099.17 669.324 1039.99 697.257 978.502 715.088C972.57 716.814 966.619 718.418 960.619 719.928C825.845 753.768 634.563 750.26 553.103 616.527C552.357 615.305 551.629 614.08 550.895 612.835C542.204 597.842 535.339 581.862 530.447 565.236C512.958 506.333 507.276 437.982 514.489 376.98C519.331 335.915 544.321 303.897 570.665 273.419C607.678 230.601 657.853 201.876 711.337 184.727C750.943 172.03 796.012 159.896 837.895 165.977C849.674 167.721 861.306 170.344 872.693 173.827Z" fill="url(#paint5_linear)"/>
<path d="M1186.26 590.85C1162.6 623.875 1134.47 651.125 1096.15 668.277C1053.44 687.391 998.243 677.915 957.331 658.612C942.132 651.444 927.356 641.897 918.477 627.634C897.977 594.677 925.541 570.187 954.626 557.558C971.016 550.432 988.803 547.817 1006.4 545.244C1035.61 540.978 1064.74 528.595 1094.63 530.075C1104.66 530.586 1113.79 533.246 1123.93 531.644C1139.7 529.157 1155.03 522.487 1170.76 519.263C1184.2 516.533 1200.87 515.837 1208.73 527.078C1216.77 538.615 1209.86 554.359 1202.48 566.324C1197.28 574.815 1191.9 582.995 1186.26 590.85Z" fill="url(#paint6_linear)"/>
<path d="M790.432 411.302C790.091 411.302 789.748 411.194 789.455 410.968C789.188 410.758 782.859 405.759 778.026 395.562C773.594 386.211 769.658 370.534 776.066 348.921C780.412 334.259 784.768 323.836 788.609 314.634C795.583 297.94 800.623 285.878 801.03 260.306C801.043 259.431 801.689 258.68 802.643 258.741C803.525 258.757 804.225 259.476 804.212 260.357C803.795 286.54 798.389 299.48 791.545 315.863C787.734 324.988 783.416 335.328 779.117 349.828C767.431 389.23 791.17 408.27 791.412 408.454C792.102 408.995 792.226 409.994 791.689 410.688C791.374 411.092 790.906 411.302 790.432 411.302Z" fill="#000C3E"/>
<path d="M920.799 160.035C920.561 177.369 906.316 191.232 888.979 190.994C871.645 190.755 857.785 176.51 858.021 159.173C858.259 141.839 872.507 127.979 889.841 128.215C907.175 128.454 921.038 142.701 920.799 160.035Z" fill="#000C3E"/>
<path d="M787.394 400.089C787.394 400.089 797.051 418.858 834.808 424.645C872.563 430.43 901.749 416.125 931.024 425.963C960.299 435.804 1001.91 421.091 1009.93 408.699C1017.95 396.306 1013 261.282 989.577 239.179C966.153 217.075 845.792 201.02 820.433 228.138C795.075 255.259 770.55 385.268 787.394 400.089Z" fill="#000C3E"/>
<path d="M1001.94 288.38C1001.16 345.508 954.209 391.185 897.078 390.402C839.95 389.62 794.273 342.67 795.055 285.542C795.841 228.414 842.788 182.737 899.916 183.52C957.044 184.306 1002.72 231.252 1001.94 288.38Z" fill="#000C3E"/>
<path d="M813.966 285.087C813.966 285.087 821.198 410.52 906.201 413.925C991.201 417.329 986.915 240.46 955.801 224.363C924.687 208.27 796.587 214.471 813.966 285.087Z" fill="#FFCEB0"/>
<path d="M901.744 309.891C901.744 309.891 918.871 348.145 914.761 350.805C910.65 353.462 898.432 353.296 895.075 350.534C891.719 347.773 895.012 305.726 901.744 309.891Z" fill="#F5A473"/>
<path d="M876.633 323.426C876.522 327.83 872.863 331.31 868.46 331.199C864.056 331.091 860.575 327.432 860.687 323.028C860.795 318.625 864.454 315.144 868.86 315.252C873.264 315.364 876.745 319.023 876.633 323.426Z" fill="#41294A"/>
<path d="M945.01 318.045C944.899 322.449 941.24 325.929 936.836 325.818C932.433 325.71 928.952 322.051 929.064 317.647C929.172 313.244 932.831 309.763 937.237 309.871C941.641 309.982 945.122 313.641 945.01 318.045Z" fill="#41294A"/>
<path d="M879.202 216.554C879.202 216.554 849.118 231.995 843.986 259.758C838.851 287.522 843.525 358.192 811.205 355.713C811.205 355.713 745.451 217.196 879.202 216.554Z" fill="#41294A"/>
<path d="M895.256 216.774C892.542 218.816 926.679 217.922 946.759 241.12C966.842 264.318 972.881 323.343 975.926 324.367C978.971 325.395 989.257 250.735 967.329 228.899C945.4 207.066 910.7 205.151 895.256 216.774Z" fill="#41294A"/>
<path d="M834.746 327.746C834.746 327.746 828.236 295.935 813.505 306.384C798.777 316.833 809.906 350.299 823.747 353.993C837.591 357.683 841.647 344.326 834.746 327.746Z" fill="#FFCEB0"/>
<path d="M933.183 289.911C933.183 289.911 948.195 281.991 957.444 293.369C965.58 303.372 947.011 295.265 940.177 296.56C933.339 297.859 924.31 297.292 933.183 289.911Z" fill="#41294A"/>
<path d="M927.732 374.18C927.732 374.18 917.939 359.382 907.344 360.314C896.745 361.249 888.622 374.889 887.197 375.462C887.197 375.462 903.736 383.229 927.732 374.18Z" fill="#41294A"/>
<path d="M868.172 305.667C854.914 305.667 843.979 316.46 843.794 329.721C843.708 336.231 846.158 342.391 850.702 347.062C855.245 351.729 861.332 354.348 867.845 354.437L868.185 354.44C881.443 354.44 892.379 343.651 892.56 330.389C892.745 316.947 881.959 305.858 868.513 305.671L868.172 305.667ZM868.185 357.622L867.8 357.619C860.438 357.52 853.556 354.555 848.42 349.279C843.285 344.001 840.514 337.039 840.612 329.677C840.819 314.684 853.183 302.486 868.172 302.486L868.557 302.489C883.757 302.699 895.949 315.235 895.742 330.431C895.539 345.423 883.174 357.622 868.185 357.622Z" fill="#FFFCF6"/>
<path d="M937.038 300.156C923.777 300.156 912.841 310.948 912.66 324.209C912.475 337.649 923.264 348.741 936.707 348.925L937.048 348.928C950.309 348.928 961.245 338.139 961.426 324.878C961.515 318.365 959.062 312.205 954.522 307.534C949.978 302.87 943.891 300.248 937.378 300.159L937.038 300.156ZM937.048 352.11L936.666 352.107C921.463 351.897 909.271 339.361 909.478 324.165C909.685 309.173 922.046 296.974 937.038 296.974L937.423 296.977C944.786 297.076 951.668 300.041 956.8 305.316C961.938 310.595 964.71 317.556 964.608 324.919C964.401 339.911 952.037 352.11 937.048 352.11Z" fill="#FFFCF6"/>
<path d="M842.887 325.727C842.705 325.727 842.517 325.695 842.339 325.631L832.135 321.883C831.311 321.578 830.888 320.665 831.191 319.838C831.493 319.017 832.412 318.6 833.233 318.896L843.434 322.641C844.261 322.946 844.681 323.859 844.379 324.687C844.143 325.329 843.536 325.727 842.887 325.727Z" fill="#FFFCF6"/>
<path d="M961.873 318.496C961.196 318.496 960.566 318.061 960.356 317.38C960.092 316.543 960.559 315.649 961.399 315.385L975.345 311.032C976.178 310.765 977.076 311.239 977.337 312.076C977.601 312.916 977.133 313.807 976.293 314.071L962.347 318.426C962.192 318.474 962.029 318.496 961.873 318.496Z" fill="#FFFCF6"/>
<path d="M894.759 245.942C894.759 245.942 894.788 277.673 913.69 283.404C932.59 289.137 981.21 286.608 980.717 278.854C976.265 208.846 943.357 212.368 915.873 203.408C867.673 187.7 828.251 266.4 834.153 285.001C840.055 303.598 880.737 286.232 889.445 283.617C898.151 280.998 893.327 259.436 894.759 245.942Z" fill="#000C3E"/>
<path opacity="0.210007" d="M846.015 353.112C846.015 353.112 888.895 328.37 907.715 331.829C926.535 335.291 959.565 335.832 961.06 342.583C962.559 349.332 919.185 346.29 905.844 347.588C892.503 348.886 841.287 364.244 846.015 353.112Z" fill="#DB5C5D"/>
<path d="M870.013 336.556C869.386 336.556 868.791 336.183 868.539 335.563C868.209 334.752 868.6 333.823 869.414 333.492C873.726 331.735 874.524 330.351 874.531 330.339C874.814 329.505 875.686 329.117 876.526 329.413C877.356 329.696 877.773 330.663 877.49 331.497C877.289 332.082 876.204 334.163 870.611 336.438C870.413 336.518 870.213 336.556 870.013 336.556Z" fill="#DB5C5D"/>
<path d="M935.524 333.188C934.242 333.188 932.078 332.8 928.68 331.142C927.888 330.76 927.56 329.809 927.945 329.016C928.327 328.227 929.284 327.903 930.07 328.285C934.261 330.324 935.82 329.984 935.839 329.984C936.65 329.643 937.516 330.041 937.859 330.849C938.203 331.657 937.764 332.612 936.952 332.959C936.742 333.048 936.291 333.188 935.524 333.188Z" fill="#DB5C5D"/>
<path d="M894.128 330.541C893.323 330.541 892.629 329.933 892.546 329.112C892.457 328.237 893.094 327.454 893.969 327.368L911.042 325.625C911.898 325.517 912.696 326.169 912.785 327.044C912.875 327.919 912.238 328.702 911.363 328.788L894.29 330.531C894.236 330.537 894.182 330.541 894.128 330.541Z" fill="#FFFCF6"/>
<path d="M870.487 190.565C870.255 190.565 870.016 190.515 869.794 190.403C860.767 186.016 855.307 179.757 853.557 171.8C849.676 154.131 865.46 134.583 866.135 133.759C866.695 133.078 867.694 132.979 868.371 133.536C869.052 134.093 869.154 135.092 868.597 135.773C868.441 135.964 853.112 154.968 856.666 171.125C858.196 178.08 863.08 183.604 871.184 187.546C871.973 187.928 872.304 188.882 871.919 189.671C871.645 190.235 871.079 190.565 870.487 190.565Z" fill="#000C3E"/>
<path d="M1001.45 404.181C1000.99 404.181 1000.53 403.983 1000.21 403.592C999.659 402.914 999.761 401.912 1000.44 401.355C1000.65 401.184 1021.58 383.706 1015.52 356.057C1013.18 345.398 1009.09 333.67 1004.75 321.255C997.231 299.724 989.455 277.459 988.822 255.874C988.797 254.992 989.49 254.264 990.368 254.235C991.192 254.264 991.978 254.9 992.004 255.778C992.624 276.873 1000.31 298.904 1007.75 320.205C1012.12 332.716 1016.25 344.53 1018.63 355.373C1025.11 384.979 1002.68 403.64 1002.45 403.824C1002.15 404.063 1001.8 404.181 1001.45 404.181Z" fill="#000C3E"/>
<path d="M1007.1 290.551C1007.05 290.551 1006.99 290.548 1006.94 290.545C1006.07 290.459 1005.43 289.679 1005.51 288.804C1008.26 260.967 1002.4 238.374 988.109 221.641C965.09 194.708 927.691 192.236 927.319 192.213C926.441 192.162 925.77 191.412 925.824 190.53C925.871 189.655 926.626 188.962 927.501 189.038C927.892 189.06 966.639 191.618 990.527 219.573C1005.41 236.99 1011.52 260.388 1008.68 289.116C1008.6 289.94 1007.91 290.551 1007.1 290.551Z" fill="#000C3E"/>
<path d="M893.154 377.321C893.154 377.321 909.008 366.197 923.167 375.733C923.167 375.733 906.635 381.928 893.154 377.321Z" fill="#DB5C5D"/>
<path d="M903.644 388.741C902.079 388.741 900.733 388.725 899.903 388.712C899.025 388.699 898.325 387.977 898.337 387.096C898.35 386.217 898.951 385.505 899.954 385.53C905.961 385.61 913.139 385.463 914.256 385.04C915.073 384.728 915.996 385.136 916.311 385.953C916.626 386.774 916.225 387.687 915.407 388.006C913.816 388.623 907.911 388.741 903.644 388.741Z" fill="#DB5C5D"/>
<path d="M826.48 345.203C826.337 345.203 826.194 345.184 826.051 345.143C825.204 344.907 824.711 344.032 824.946 343.183C829.299 327.583 817.743 317.538 817.625 317.436C816.957 316.87 816.874 315.865 817.444 315.193C818.01 314.525 819.016 314.442 819.687 315.015C820.228 315.473 832.907 326.498 828.01 344.042C827.813 344.742 827.177 345.203 826.48 345.203Z" fill="#DB5C5D"/>
<path d="M974.92 349.003C974.885 349.003 974.853 349.003 974.815 349C973.94 348.943 973.275 348.185 973.329 347.31C974.519 328.847 983.367 318.977 983.746 318.567C984.338 317.917 985.343 317.873 985.989 318.465C986.638 319.057 986.683 320.062 986.094 320.711C986.008 320.806 977.618 330.234 976.508 347.514C976.45 348.357 975.75 349.003 974.92 349.003Z" fill="#DB5C5D"/>
<path d="M942.972 400.941C942.972 400.941 948.031 457.534 941.318 466.485C934.604 475.438 892.084 468.721 880.893 466.485C869.703 464.248 869.681 370.648 871.94 376.97C890.623 429.185 941.684 382.977 942.972 400.941Z" fill="#FFCEB0"/>
<path d="M875.986 406.539C875.986 406.539 906.152 421.038 940.445 403.487C940.445 403.487 943.111 424.57 940.445 429.431C937.782 434.293 883.46 437.767 872.766 413.806C872.766 413.806 872.9 405.498 875.986 406.539Z" fill="#F5A473"/>
<path d="M711.249 849.876H1101.62C1101.62 849.876 1121.56 510.474 1072.66 473.566C1023.76 436.655 808.486 455.093 757.804 486.621C707.122 518.149 711.249 849.876 711.249 849.876Z" fill="#FB4C47"/>
<path d="M906.153 459.778C906.153 459.778 891.106 590.241 897.674 608.399C904.237 626.558 895.828 707.065 893.155 717.53C890.48 727.994 809.374 732.439 788.445 724.068C767.515 715.697 793.777 490.045 805.492 448.298C817.211 406.547 904.864 431.145 906.153 459.778Z" fill="#05BA6E"/>
<path d="M667.969 299.932C667.969 299.932 700.598 362.425 723.465 363.004C746.335 363.583 823.454 269.668 851.889 268.7C880.328 267.736 904.747 270.495 904.859 263.718C904.97 256.937 865.307 249.537 865.307 249.537C865.307 249.537 922.667 253.189 910.802 246.915C898.941 240.641 870.515 234.999 870.515 234.999C870.515 234.999 911.741 236.663 912.04 232.254C912.339 227.844 869.118 221.35 869.118 221.35C869.118 221.35 921.712 219.67 912.094 212.435C902.472 205.199 884.365 208.34 835.389 215.82C786.409 223.3 675.602 288.688 667.969 299.932Z" fill="#FFCEB0"/>
<path d="M725.214 296.938C725.214 296.938 777.41 328.03 754.683 363.265C730.483 400.784 731.838 389.638 727.654 404.818C723.467 419.998 792.441 449.563 795.578 462.557C798.715 475.548 766.201 635.332 735.745 628.774C709.235 623.069 561.915 539.466 540.743 455.92C524.332 391.15 658.102 232.722 725.214 296.938Z" fill="#FB4C47"/>
<path d="M861.845 661.398C861.845 661.398 804.011 788.801 825.274 805.862C846.538 822.919 863.672 811.805 882.476 822.878C901.283 833.95 919.323 828.414 934.43 818.78C949.537 809.142 910.22 682.391 893.958 670.323C877.697 658.252 864.776 654.777 861.845 661.398Z" fill="white"/>
<path d="M1054 464.5C1054 464.5 1085.1 468.296 1109.51 513C1127.82 546.541 1163.3 742.529 1109.51 770.454C1055.72 798.377 1005.26 783.771 985.736 764.953C966.209 746.135 1000.95 649.154 1024.11 641.915C1047.27 634.679 1054 464.5 1054 464.5Z" fill="#FB4C47"/>
<path d="M1064.07 461.496C1064.07 461.496 1065.52 452.434 1020.74 433.055C985.005 417.588 954.393 443.691 899.88 446.501C845.368 449.313 850.287 427.706 811.727 437.748C752.223 453.239 799.599 492.244 818.772 496.622C837.945 501 902.181 608.985 1064.07 461.496Z" fill="#05BA6E"/>
<path d="M907.78 352.6C907.78 352.6 907.614 356.291 909.733 356.625C911.852 356.959 915.769 355.776 914.76 350.803C914.76 350.803 909.447 352.511 907.78 352.6Z" fill="white"/>
<path d="M1128.51 658.318C1128.36 658.318 1128.21 658.309 1128.06 658.287C1126.59 658.077 1125.5 656.893 1125.35 655.483C1122.69 652.419 1104.9 646.002 1093.03 641.719C1069.51 633.234 1058.96 629.037 1056.69 624.446C1054.77 620.554 1055.63 614.942 1056.72 607.837C1058.45 596.593 1060.6 582.593 1053.46 569.109C1041.13 545.822 1042.31 511.281 1042.37 509.824C1042.44 508.067 1043.95 506.661 1045.67 506.766C1047.42 506.833 1048.79 508.312 1048.73 510.065C1048.71 510.409 1047.56 544.371 1059.09 566.131C1067.21 581.479 1064.78 597.27 1063.01 608.801C1062.16 614.321 1061.36 619.536 1062.4 621.627C1064.33 624.601 1082.9 631.302 1095.19 635.734C1122.88 645.725 1132.49 649.744 1131.66 655.588C1131.43 657.176 1130.07 658.318 1128.51 658.318Z" fill="#B31B1F"/>
<path d="M1045.5 632.159C1045.22 632.159 1044.94 632.124 1044.66 632.047C1034.15 629.18 1017.82 626.196 1017.65 626.164C1015.92 625.852 1014.78 624.195 1015.09 622.467C1015.41 620.736 1017.06 619.572 1018.79 619.906C1019.47 620.027 1035.55 622.967 1046.33 625.906C1048.03 626.371 1049.03 628.118 1048.57 629.814C1048.18 631.23 1046.9 632.159 1045.5 632.159Z" fill="#B31B1F"/>
<path d="M1102.65 789.54C1102.6 789.54 1102.55 789.54 1102.51 789.536C1043.61 786.867 984.936 761.779 981.763 737.916C980.768 730.417 980.048 726.665 979.603 724.81C978.413 724.219 977.691 722.952 977.904 721.568C978.308 718.947 980.083 718.017 981.493 718.017H981.528C984.732 718.052 985.795 719.93 988.073 737.079C990.535 755.603 1043.96 780.513 1102.79 783.179C1104.55 783.259 1105.91 784.745 1105.83 786.501C1105.75 788.21 1104.34 789.54 1102.65 789.54Z" fill="#B31B1F"/>
<path d="M997.077 733.226C996.845 733.226 996.609 733.2 996.371 733.149C994.659 732.761 993.584 731.056 993.972 729.341C994.109 728.727 1008.03 667.383 1021.03 623.256C1021.53 621.569 1023.31 620.602 1024.98 621.105C1026.67 621.601 1027.63 623.37 1027.13 625.056C1014.19 668.987 1000.32 730.133 1000.18 730.747C999.842 732.224 998.531 733.226 997.077 733.226Z" fill="#B31B1F"/>
<path d="M721 599.994C720.845 599.994 720.682 599.982 720.523 599.959C718.786 599.699 717.59 598.076 717.851 596.342C718.178 594.146 726.034 542.3 736.814 518.039C747.294 494.463 752.659 470.558 752.713 470.32C753.088 468.605 754.784 467.532 756.509 467.902C758.224 468.283 759.305 469.986 758.924 471.701C758.704 472.7 753.365 496.467 742.63 520.626C732.2 544.098 724.22 596.755 724.141 597.284C723.905 598.865 722.547 599.994 721 599.994Z" fill="#B31B1F"/>
<path d="M672.497 418.977C664.028 418.977 654.536 418.462 644.088 417.132C642.344 416.909 641.11 415.318 641.332 413.575C641.552 411.831 643.184 410.619 644.889 410.819C676.707 414.873 699.31 411.141 710.961 408.598C705.158 406.743 697.028 404.936 688.915 405.378C670.658 406.237 643.944 389.928 642.815 389.228C641.32 388.305 640.858 386.345 641.781 384.85C642.704 383.354 644.667 382.887 646.159 383.816C646.42 383.975 672.351 399.817 688.587 399.021C704.054 398.207 722.371 405.095 724.035 408.051C724.63 409.104 724.582 410.472 723.905 411.475C723.275 412.4 721.97 412.957 720.825 412.887C720.322 412.945 718.833 413.301 717.385 413.645C710.427 415.312 695.091 418.974 672.497 418.977Z" fill="#B31B1F"/>
<path d="M750.708 350.594C749.525 350.594 748.389 349.932 747.842 348.799C747.762 348.637 739.817 332.499 726.289 326.104C710.93 318.84 693.561 293.523 692.829 292.451C691.84 290.997 692.215 289.015 693.666 288.028C695.123 287.042 697.099 287.421 698.086 288.865C698.257 289.113 715.213 313.823 729.012 320.348C744.603 327.727 753.212 345.287 753.572 346.028C754.335 347.613 753.671 349.509 752.089 350.273C751.644 350.492 751.173 350.594 750.708 350.594Z" fill="#B31B1F"/>
<path d="M898.497 535.501C898.379 535.501 898.259 535.488 898.141 535.46C897.285 535.265 896.747 534.41 896.944 533.557C897.021 533.22 904.609 500.047 906.83 483.196C910.289 456.925 898.523 447.761 898.405 447.672C897.702 447.144 897.555 446.151 898.077 445.448C898.599 444.742 899.585 444.592 900.292 445.111C900.842 445.515 913.709 455.318 909.983 483.61C907.746 500.613 900.123 533.932 900.047 534.263C899.878 535.005 899.223 535.501 898.497 535.501Z" fill="#08824F"/>
<path d="M804.663 487.657L801.503 487.291C801.503 487.291 803.972 465.811 805.261 455.251C806.562 444.599 809.601 437.325 809.731 437.02C810.072 436.205 811.007 435.836 811.815 436.17C812.623 436.514 813.002 437.449 812.662 438.257C812.63 438.327 809.661 445.454 808.42 455.639C807.132 466.19 804.663 487.654 804.663 487.657Z" fill="#08824F"/>
<path d="M895.008 840.386C876.863 840.386 866.885 839.787 853.076 838.96C835.312 837.894 810.988 836.437 754.143 835.553C752.387 835.527 750.984 834.083 751.012 832.323C751.041 830.567 752.587 829.103 754.242 829.189C811.227 830.074 835.634 831.54 853.455 832.609C867.155 833.427 877.05 834.022 895.008 834.022C917.487 834.022 937.653 831.559 957.157 829.18C974.278 827.086 990.447 825.113 1007.78 824.728C1044.75 823.914 1072.37 824.725 1072.65 824.728C1074.4 824.786 1075.78 826.252 1075.73 828.005C1075.68 829.762 1074.19 831.063 1072.46 831.092C1072.18 831.082 1044.71 830.268 1007.92 831.092C990.906 831.467 974.886 833.424 957.927 835.495C938.235 837.901 917.875 840.386 895.008 840.386Z" fill="#B31B1F"/>
<path d="M1039.14 797.932C1037.56 797.932 1035.98 797.223 1034.6 795.136C1030.3 788.642 1029 788.107 1020.69 789.386C1013.17 790.56 1010.2 785.231 1008.24 781.709C1007.58 780.531 1006.96 779.421 1006.41 778.991C1004.95 777.837 1001.29 779.224 999.747 780.076L998.204 777.296C998.879 776.92 1004.87 773.723 1008.39 776.494C1009.43 777.318 1010.16 778.635 1011.01 780.156C1012.91 783.551 1014.88 787.048 1020.2 786.243C1029.72 784.773 1032.26 785.845 1037.25 793.379C1038.57 795.384 1039.72 795.11 1043.25 793.052C1045.93 791.48 1049.99 789.109 1053.02 793.341L1050.44 795.193C1049.25 793.554 1048.19 793.85 1044.85 795.797C1043.26 796.73 1041.2 797.932 1039.14 797.932Z" fill="white"/>
<path d="M1002.12 648.085C1002.12 648.085 926.125 620.604 893.153 634.661C860.181 648.715 833.009 684.948 838.042 687.344C843.076 689.743 870.012 668.852 870.012 668.852C870.012 668.852 842.544 696.609 847.638 699.387C852.732 702.164 879.201 687.344 879.201 687.344C879.201 687.344 860.725 707.096 868.66 708.607C876.595 710.119 893.608 693.844 911.349 693.233C929.094 692.619 951.455 706.641 973.638 710.59C995.818 714.535 1002.12 648.085 1002.12 648.085Z" fill="#FFCEB0"/>
<path d="M1116.82 633.84C1116.62 633.84 1116.42 633.821 1116.22 633.783C1116 633.744 1093.62 629.513 1066.86 624.072C1065.14 623.722 1064.03 622.042 1064.38 620.321C1064.73 618.599 1066.4 617.486 1068.13 617.839C1094.84 623.267 1117.18 627.489 1117.41 627.534C1119.13 627.858 1120.27 629.522 1119.94 631.25C1119.65 632.777 1118.32 633.84 1116.82 633.84Z" fill="#B31B1F"/>
<path d="M904.41 133.769C903.579 133.769 902.676 133.866 901.697 134.059C899.312 134.538 897.767 135.697 896.839 137.708C892.702 146.662 901.424 167.987 907.656 180.585C911.507 166.609 916.122 143.248 909.601 135.886C908.345 134.471 906.636 133.769 904.41 133.769ZM908.383 191.1C907.346 191.1 906.376 190.542 905.863 189.618C903.658 185.666 884.543 150.571 891.598 135.29C893.294 131.615 896.398 129.23 900.568 128.398C907.673 126.983 911.755 129.608 913.922 132.056C925.252 144.848 912.607 184.625 911.129 189.118C910.768 190.206 909.802 190.978 908.66 191.088C908.568 191.096 908.475 191.1 908.383 191.1Z" fill="#FF383D"/>
<path d="M943.327 147.971C943.054 147.971 942.777 147.987 942.5 148.029C932.744 149.327 920.957 170.018 914.725 183.107C927.68 177.652 948.228 167.233 950.958 157.759C951.571 155.626 951.159 153.741 949.668 151.817C947.661 149.235 945.582 147.971 943.327 147.971ZM909.186 191.284C908.409 191.284 907.649 190.973 907.098 190.393C906.305 189.562 906.078 188.344 906.519 187.286C908.341 182.923 924.795 144.565 941.736 142.305C944.982 141.873 949.782 142.553 954.225 148.273C956.837 151.632 957.626 155.467 956.505 159.355C951.844 175.527 914.422 189.562 910.172 191.111C909.849 191.229 909.517 191.284 909.186 191.284Z" fill="#FF383D"/>
<path d="M854.987 181.087C869.011 190.102 901.063 197.114 926.105 181.087" stroke="#FF383D" stroke-width="4.4"/>
<path d="M481.27 242.75H594.515C601.784 242.75 608.662 246.045 613.218 251.71L646.458 293.048C651.173 298.91 658.363 302.223 665.883 301.997L878.85 295.596" stroke="#FFB2B1" stroke-width="5" stroke-linejoin="round"/>
<path d="M493.361 243.265C493.361 248.301 489.279 252.384 484.243 252.384C479.207 252.384 475.124 248.301 475.124 243.265C475.124 238.229 479.207 234.147 484.243 234.147C489.279 234.147 493.361 238.229 493.361 243.265Z" fill="#FF383D"/>
<path d="M295.001 243.366C295.001 204.356 326.625 172.732 365.635 172.732C404.645 172.732 436.266 204.356 436.266 243.366C436.266 282.376 404.645 314 365.635 314C326.625 314 295.001 282.376 295.001 243.366Z" fill="#FFE1E2"/>
<path d="M365.33 155.49C414.103 155.49 453.64 195.028 453.64 243.8C453.64 292.573 414.103 332.113 365.33 332.113V375.724" stroke="#FFD6D7" stroke-width="2.4" stroke-miterlimit="10"/>
<path d="M358.068 377.928C358.068 373.916 361.318 370.665 365.33 370.665C369.342 370.665 372.592 373.916 372.592 377.928C372.592 381.939 369.342 385.19 365.33 385.19C361.318 385.19 358.068 381.939 358.068 377.928Z" fill="#F2AEB0"/>
<path d="M337.158 241.248V244.997H342.572V247.232H337.158V253H334.58V238.896H343.603V241.248H337.158ZM348.394 241.248V244.772H354.184V247.017H348.394V250.648H354.84V253H345.816V238.896H354.84V241.248H348.394ZM359.072 238.896L361.113 244.116C361.421 244.94 361.79 245.971 362.219 247.21C362.656 248.442 362.961 249.323 363.133 249.853C363.326 249.323 363.637 248.435 364.067 247.189C364.504 245.942 364.876 244.911 365.184 244.095L367.204 238.896H369.954L364.475 253H361.822L356.268 238.896H359.072ZM374.326 241.248V244.772H380.116V247.017H374.326V250.648H380.771V253H371.748V238.896H380.771V241.248H374.326ZM383.5 238.896H389.096C390.815 238.896 392.119 239.279 393.007 240.045C393.902 240.804 394.349 241.889 394.349 243.3C394.349 244.281 394.12 245.119 393.662 245.814C393.211 246.501 392.573 246.999 391.75 247.307L394.435 253H391.556L389.182 247.747H386.078V253H383.5V238.896ZM389.096 245.502C389.934 245.502 390.568 245.301 390.998 244.9C391.427 244.492 391.642 243.966 391.642 243.321C391.642 242.677 391.424 242.158 390.987 241.764C390.557 241.363 389.927 241.162 389.096 241.162H386.078V245.502H389.096Z" fill="#FF383D"/>
<path d="M934.77 357.046H1103.58C1112.4 357.046 1120.5 361.877 1124.7 369.63L1155.94 427.419C1160.14 435.172 1168.24 440.004 1177.06 440.004H1259.84" stroke="#FFB2B1" stroke-width="5" stroke-linejoin="round"/>
<path d="M1263.94 439.905C1263.94 444.941 1259.86 449.023 1254.83 449.023C1249.79 449.023 1245.71 444.941 1245.71 439.905C1245.71 434.868 1249.79 430.786 1254.83 430.786C1259.86 430.786 1263.94 434.868 1263.94 439.905Z" fill="#FF383D"/>
<path opacity="0.15" d="M1289.73 458.366C1289.73 419.356 1321.36 387.732 1360.37 387.732C1399.38 387.732 1431 419.356 1431 458.366C1431 497.376 1399.38 529 1360.37 529C1321.36 529 1289.73 497.376 1289.73 458.366Z" fill="#FF383D"/>
<path d="M1326.72 438.896H1332.32C1334.04 438.896 1335.34 439.279 1336.23 440.045C1337.12 440.804 1337.57 441.889 1337.57 443.3C1337.57 444.281 1337.34 445.119 1336.88 445.814C1336.43 446.501 1335.79 446.999 1334.97 447.307L1337.66 453H1334.78L1332.4 447.747H1329.3V453H1326.72V438.896ZM1332.32 445.502C1333.15 445.502 1333.79 445.301 1334.22 444.9C1334.65 444.492 1334.86 443.966 1334.86 443.321C1334.86 442.677 1334.64 442.158 1334.21 441.764C1333.78 441.363 1333.15 441.162 1332.32 441.162H1329.3V445.502H1332.32ZM1339.93 438.896H1342.51V447.812C1342.51 448.9 1342.82 449.691 1343.43 450.186C1344.05 450.68 1344.83 450.927 1345.79 450.927C1346.8 450.927 1347.6 450.665 1348.19 450.143C1348.79 449.613 1349.09 448.836 1349.09 447.812V438.896H1351.66V447.919C1351.66 449.079 1351.41 450.064 1350.9 450.873C1350.39 451.675 1349.69 452.28 1348.81 452.689C1347.92 453.09 1346.92 453.29 1345.79 453.29C1344.64 453.29 1343.63 453.086 1342.75 452.678C1341.87 452.262 1341.18 451.654 1340.67 450.852C1340.18 450.042 1339.93 449.065 1339.93 447.919V438.896ZM1366.18 438.896V453H1363.76L1357.27 443.343V453H1354.71V438.896H1357.14L1363.63 448.574V438.896H1366.18ZM1380.81 438.896V453H1378.39L1371.9 443.343V453H1369.34V438.896H1371.77L1378.26 448.574V438.896H1380.81ZM1385.59 438.896L1387.26 441.753C1387.67 442.469 1388.03 443.132 1388.35 443.74C1388.66 444.342 1388.86 444.721 1388.93 444.879C1389.01 444.714 1389.21 444.356 1389.51 443.805C1389.82 443.246 1390.2 442.562 1390.65 441.753L1392.32 438.896H1395.2L1390.21 447.35V453H1387.63V447.35L1382.61 438.896H1385.59ZM1345.75 467.896V482H1343.34L1336.85 472.343V482H1334.29V467.896H1336.72L1343.21 477.574V467.896H1345.75ZM1363.01 474.942C1363.01 476.36 1362.68 477.628 1362.04 478.745C1361.4 479.862 1360.5 480.732 1359.37 481.356C1358.23 481.979 1356.96 482.29 1355.55 482.29C1354.14 482.29 1352.87 481.982 1351.74 481.366C1350.61 480.75 1349.73 479.884 1349.1 478.767C1348.46 477.649 1348.14 476.382 1348.14 474.964C1348.14 473.539 1348.46 472.271 1349.1 471.161C1349.73 470.044 1350.61 469.174 1351.74 468.551C1352.87 467.928 1354.15 467.616 1355.57 467.616C1356.98 467.616 1358.25 467.928 1359.38 468.551C1360.51 469.174 1361.4 470.04 1362.04 471.15C1362.68 472.253 1363.01 473.517 1363.01 474.942ZM1360.28 474.942C1360.28 473.983 1360.08 473.131 1359.68 472.386C1359.28 471.641 1358.71 471.061 1357.99 470.646C1357.27 470.223 1356.47 470.012 1355.57 470.012C1354.66 470.012 1353.85 470.223 1353.12 470.646C1352.41 471.061 1351.85 471.641 1351.44 472.386C1351.03 473.131 1350.83 473.99 1350.83 474.964C1350.83 475.916 1351.03 476.769 1351.44 477.521C1351.85 478.265 1352.41 478.845 1353.12 479.261C1353.85 479.676 1354.66 479.884 1355.57 479.884C1356.47 479.884 1357.27 479.676 1357.99 479.261C1358.71 478.845 1359.28 478.265 1359.68 477.521C1360.08 476.769 1360.28 475.909 1360.28 474.942ZM1364.85 471.902C1364.85 471.036 1365.06 470.28 1365.48 469.636C1365.9 468.991 1366.49 468.494 1367.25 468.143C1368.02 467.792 1368.9 467.616 1369.89 467.616C1370.87 467.616 1371.75 467.788 1372.51 468.132C1373.28 468.476 1373.88 468.963 1374.31 469.593C1374.74 470.223 1374.95 470.957 1374.95 471.795H1372.3C1372.28 471.193 1372.04 470.71 1371.58 470.345C1371.12 469.972 1370.52 469.786 1369.76 469.786C1369.08 469.786 1368.52 469.958 1368.11 470.302C1367.7 470.638 1367.5 471.075 1367.5 471.612C1367.5 472.142 1367.68 472.533 1368.03 472.783C1368.4 473.034 1368.88 473.231 1369.48 473.374L1371.79 473.943C1372.85 474.194 1373.7 474.656 1374.35 475.329C1375 475.995 1375.33 476.855 1375.33 477.907C1375.33 478.788 1375.11 479.558 1374.66 480.217C1374.23 480.876 1373.6 481.388 1372.79 481.753C1371.99 482.111 1371.06 482.29 1369.99 482.29C1368.41 482.29 1367.12 481.907 1366.12 481.141C1365.13 480.367 1364.6 479.318 1364.51 477.993H1367.16C1367.19 478.652 1367.47 479.171 1367.99 479.551C1368.51 479.923 1369.19 480.109 1370.03 480.109C1370.84 480.109 1371.48 479.938 1371.93 479.594C1372.39 479.25 1372.62 478.777 1372.62 478.176C1372.62 477.66 1372.46 477.27 1372.14 477.005C1371.82 476.74 1371.39 476.543 1370.87 476.414L1368.51 475.845C1367.35 475.565 1366.45 475.1 1365.81 474.448C1365.17 473.789 1364.85 472.941 1364.85 471.902ZM1380.25 470.248V473.772H1386.04V476.017H1380.25V479.648H1386.69V482H1377.67V467.896H1386.69V470.248H1380.25Z" fill="#FF383D"/>
<path d="M1365.03 370.265C1413.8 370.265 1453.34 409.803 1453.34 458.578C1453.34 507.35 1413.8 546.888 1365.03 546.888V590.502" stroke="#FFD6D7" stroke-width="2.4" stroke-miterlimit="10"/>
<path d="M1357.77 592.704C1357.77 588.692 1361.02 585.442 1365.03 585.442C1369.04 585.442 1372.29 588.692 1372.29 592.704C1372.29 596.716 1369.04 599.966 1365.03 599.966C1361.02 599.966 1357.77 596.716 1357.77 592.704Z" fill="#F2AEB0"/>
<path opacity="0.15" d="M295.001 729.366C295.001 690.356 326.625 658.732 365.635 658.732C404.645 658.732 436.266 690.356 436.266 729.366C436.266 768.376 404.645 800 365.635 800C326.625 800 295.001 768.376 295.001 729.366Z" fill="#FF383D"/>
<g filter="url(#filter0_d)">
<path d="M315.822 725.896C317.197 725.896 318.422 726.196 319.496 726.798C320.577 727.399 321.419 728.241 322.02 729.322C322.622 730.397 322.923 731.618 322.923 732.985C322.923 734.346 322.625 735.56 322.031 736.627C321.437 737.687 320.599 738.514 319.517 739.108C318.443 739.703 317.211 740 315.822 740H310.58V725.896H315.822ZM315.596 737.648C316.52 737.648 317.33 737.454 318.024 737.067C318.726 736.674 319.267 736.126 319.646 735.424C320.026 734.722 320.216 733.909 320.216 732.985C320.216 732.047 320.026 731.224 319.646 730.515C319.267 729.799 318.726 729.244 318.024 728.85C317.33 728.449 316.52 728.248 315.596 728.248H313.158V737.648H315.596ZM325.941 725.896L327.617 728.753C328.025 729.469 328.387 730.132 328.702 730.74C329.017 731.342 329.21 731.721 329.282 731.879C329.368 731.714 329.561 731.356 329.862 730.805C330.17 730.246 330.55 729.562 331.001 728.753L332.677 725.896H335.555L330.56 734.35V740H327.982V734.35L322.966 725.896H325.941ZM343.139 725.896C344.622 725.896 345.786 726.315 346.631 727.152C347.483 727.99 347.909 729.111 347.909 730.515C347.909 731.424 347.716 732.23 347.329 732.932C346.942 733.626 346.384 734.171 345.653 734.565C344.93 734.958 344.078 735.155 343.096 735.155H339.927V740H337.349V725.896H343.139ZM342.613 732.942C343.48 732.942 344.128 732.71 344.557 732.244C344.994 731.772 345.213 731.181 345.213 730.472C345.213 729.827 344.994 729.283 344.557 728.839C344.128 728.388 343.501 728.162 342.677 728.162H339.927V732.942H342.613ZM349.628 729.902C349.628 729.036 349.835 728.28 350.251 727.636C350.673 726.991 351.264 726.494 352.023 726.143C352.789 725.792 353.67 725.616 354.666 725.616C355.647 725.616 356.521 725.788 357.287 726.132C358.053 726.476 358.651 726.963 359.081 727.593C359.51 728.223 359.725 728.957 359.725 729.795H357.072C357.058 729.193 356.818 728.71 356.352 728.345C355.894 727.972 355.289 727.786 354.537 727.786C353.849 727.786 353.298 727.958 352.883 728.302C352.474 728.638 352.27 729.075 352.27 729.612C352.27 730.142 352.449 730.533 352.807 730.783C353.173 731.034 353.656 731.231 354.258 731.374L356.567 731.943C357.62 732.194 358.472 732.656 359.124 733.329C359.775 733.995 360.101 734.855 360.101 735.907C360.101 736.788 359.879 737.558 359.435 738.217C358.998 738.876 358.375 739.388 357.566 739.753C356.764 740.111 355.83 740.29 354.762 740.29C353.18 740.29 351.891 739.907 350.895 739.141C349.907 738.367 349.37 737.318 349.284 735.993H351.937C351.966 736.652 352.242 737.171 352.764 737.551C353.287 737.923 353.968 738.109 354.805 738.109C355.615 738.109 356.248 737.938 356.707 737.594C357.165 737.25 357.394 736.777 357.394 736.176C357.394 735.66 357.233 735.27 356.911 735.005C356.589 734.74 356.166 734.543 355.643 734.414L353.28 733.845C352.12 733.565 351.221 733.1 350.584 732.448C349.946 731.789 349.628 730.941 349.628 729.902ZM373.905 725.896V740H371.488L365 730.343V740H362.443V725.896H364.871L371.359 735.574V725.896H373.905ZM391.157 732.942C391.157 734.36 390.835 735.628 390.19 736.745C389.546 737.862 388.654 738.732 387.515 739.356C386.384 739.979 385.113 740.29 383.702 740.29C382.291 740.29 381.02 739.982 379.888 739.366C378.764 738.75 377.883 737.884 377.246 736.767C376.608 735.649 376.29 734.382 376.29 732.964C376.29 731.539 376.608 730.271 377.246 729.161C377.883 728.044 378.764 727.174 379.888 726.551C381.02 725.928 382.298 725.616 383.723 725.616C385.134 725.616 386.402 725.928 387.526 726.551C388.658 727.174 389.546 728.04 390.19 729.15C390.835 730.253 391.157 731.517 391.157 732.942ZM388.428 732.942C388.428 731.983 388.228 731.131 387.827 730.386C387.426 729.641 386.864 729.061 386.14 728.646C385.424 728.223 384.619 728.012 383.723 728.012C382.814 728.012 381.997 728.223 381.274 728.646C380.558 729.061 379.996 729.641 379.588 730.386C379.179 731.131 378.975 731.99 378.975 732.964C378.975 733.916 379.179 734.769 379.588 735.521C379.996 736.265 380.558 736.845 381.274 737.261C381.997 737.676 382.814 737.884 383.723 737.884C384.619 737.884 385.424 737.676 386.14 737.261C386.864 736.845 387.426 736.265 387.827 735.521C388.228 734.769 388.428 733.909 388.428 732.942ZM396.109 728.248V731.772H401.899V734.017H396.109V737.648H402.554V740H393.531V725.896H402.554V728.248H396.109ZM409.161 725.896H411.782L417.013 740H414.285L413.146 736.788H407.754L406.561 740H403.897L409.161 725.896ZM412.394 734.65L411.492 732.169C411.406 731.933 411.17 731.234 410.783 730.074L410.482 729.193C410.425 729.387 410.289 729.791 410.074 730.407C409.859 731.023 409.641 731.61 409.419 732.169L408.495 734.65H412.394Z" fill="#FF383D"/>
</g>
<path d="M365.333 641.642C414.105 641.642 453.643 681.18 453.643 729.952C453.643 778.727 414.105 818.265 365.333 818.265V861.876" stroke="#FFD6D7" stroke-width="2.4" stroke-miterlimit="10"/>
<path d="M358.07 864.08C358.07 860.068 361.321 856.818 365.332 856.818C369.344 856.818 372.595 860.068 372.595 864.08C372.595 868.089 369.344 871.342 365.332 871.342C361.321 871.342 358.07 868.089 358.07 864.08Z" fill="#F2AEB0"/>
<path d="M470.74 741.834H649.033C658.666 741.834 667.365 736.075 671.127 727.207L727.54 594.233C731.302 585.365 740.002 579.606 749.634 579.606H956.809" stroke="#FFB2B1" stroke-width="5" stroke-linejoin="round"/>
<path d="M485.987 742.241C485.987 747.277 481.904 751.359 476.868 751.359C471.832 751.359 467.75 747.277 467.75 742.241C467.75 737.205 471.832 733.122 476.868 733.122C481.904 733.122 485.987 737.205 485.987 742.241Z" fill="#FF383D"/>
<path opacity="0.15" d="M443.268 487.366C443.268 448.356 411.644 416.732 372.634 416.732C333.624 416.732 302 448.356 302 487.366C302 526.376 333.624 558 372.634 558C411.644 558 443.268 526.376 443.268 487.366Z" fill="#FF383D"/>
<path d="M342.203 473.227H337.938V485H335.36V473.227H331.052V470.896H342.203V473.227ZM344.115 470.896H346.693V476.75L352.945 476.771V470.896H355.534V485H352.945V478.995H346.693V485H344.115V470.896ZM358.574 470.896H364.17C365.889 470.896 367.193 471.279 368.081 472.045C368.976 472.804 369.423 473.889 369.423 475.3C369.423 476.281 369.194 477.119 368.736 477.813C368.285 478.501 367.647 478.999 366.824 479.307L369.509 485H366.63L364.256 479.747H361.152V485H358.574V470.896ZM364.17 477.502C365.008 477.502 365.642 477.301 366.072 476.9C366.501 476.492 366.716 475.966 366.716 475.321C366.716 474.677 366.498 474.158 366.061 473.764C365.631 473.363 365.001 473.162 364.17 473.162H361.152V477.502H364.17ZM385.87 477.942C385.87 479.36 385.547 480.628 384.903 481.745C384.258 482.862 383.367 483.732 382.228 484.355C381.097 484.979 379.825 485.29 378.415 485.29C377.004 485.29 375.733 484.982 374.601 484.366C373.477 483.75 372.596 482.884 371.958 481.767C371.321 480.649 371.002 479.382 371.002 477.964C371.002 476.539 371.321 475.271 371.958 474.161C372.596 473.044 373.477 472.174 374.601 471.551C375.733 470.928 377.011 470.616 378.436 470.616C379.847 470.616 381.114 470.928 382.239 471.551C383.37 472.174 384.258 473.04 384.903 474.15C385.547 475.253 385.87 476.517 385.87 477.942ZM383.141 477.942C383.141 476.983 382.941 476.131 382.54 475.386C382.139 474.641 381.576 474.061 380.853 473.646C380.137 473.223 379.331 473.012 378.436 473.012C377.527 473.012 376.71 473.223 375.987 473.646C375.271 474.061 374.708 474.641 374.3 475.386C373.892 476.131 373.688 476.99 373.688 477.964C373.688 478.916 373.892 479.769 374.3 480.521C374.708 481.265 375.271 481.845 375.987 482.261C376.71 482.676 377.527 482.884 378.436 482.884C379.331 482.884 380.137 482.676 380.853 482.261C381.576 481.845 382.139 481.265 382.54 480.521C382.941 479.769 383.141 478.909 383.141 477.942ZM391.456 470.896H394.077L399.308 485H396.58L395.441 481.788H390.048L388.856 485H386.192L391.456 470.896ZM394.689 479.65L393.787 477.169C393.701 476.933 393.464 476.234 393.078 475.074L392.777 474.193C392.72 474.387 392.583 474.791 392.369 475.407C392.154 476.023 391.935 476.61 391.713 477.169L390.79 479.65H394.689ZM409.707 473.227H405.442V485H402.864V473.227H398.556V470.896H409.707V473.227ZM357.682 499.896C359.165 499.896 360.328 500.314 361.173 501.152C362.026 501.99 362.452 503.111 362.452 504.515C362.452 505.424 362.258 506.23 361.872 506.932C361.485 507.626 360.926 508.171 360.196 508.564C359.472 508.958 358.62 509.155 357.639 509.155H354.47V514H351.892V499.896H357.682ZM357.156 506.942C358.022 506.942 358.67 506.71 359.1 506.244C359.537 505.771 359.755 505.181 359.755 504.472C359.755 503.827 359.537 503.283 359.1 502.839C358.67 502.388 358.044 502.162 357.22 502.162H354.47V506.942H357.156ZM367.372 499.896H369.993L375.224 514H372.496L371.357 510.788H365.964L364.772 514H362.108L367.372 499.896ZM370.605 508.65L369.703 506.169C369.617 505.933 369.38 505.234 368.994 504.074L368.693 503.193C368.636 503.387 368.5 503.791 368.285 504.407C368.07 505.023 367.851 505.61 367.629 506.169L366.706 508.65H370.605ZM377.029 514V499.896H379.607V514H377.029ZM394.098 499.896V514H391.681L385.193 504.343V514H382.636V499.896H385.064L391.552 509.574V499.896H394.098Z" fill="#FF383D"/>
<path d="M373.973 399.026C325.2 399.026 285.663 438.563 285.663 487.338C285.663 536.111 325.2 575.648 373.973 575.648V619.262" stroke="#FFD6D7" stroke-width="2.4" stroke-miterlimit="10"/>
<path d="M381.433 621.545C381.433 617.533 378.182 614.283 374.17 614.283C370.161 614.283 366.908 617.533 366.908 621.545C366.908 625.556 370.161 628.807 374.17 628.807C378.182 628.807 381.433 625.556 381.433 621.545Z" fill="#F2AEB0"/>
<path d="M474.511 502.07H677.822C685.243 502.07 692.246 498.638 696.792 492.772L739.528 437.629C744.074 431.763 751.077 428.331 758.498 428.331H915.721" stroke="#FFB2B1" stroke-width="5" stroke-linejoin="round"/>
<path d="M484.761 502.586C484.761 507.622 480.678 511.704 475.642 511.704C470.606 511.704 466.524 507.622 466.524 502.586C466.524 497.55 470.606 493.468 475.642 493.468C480.678 493.468 484.761 497.55 484.761 502.586Z" fill="#FF383D"/>
<path opacity="0.13" d="M1444 699.366C1444 660.356 1412.38 628.732 1373.37 628.732C1334.36 628.732 1302.74 660.356 1302.74 699.366C1302.74 738.376 1334.36 770 1373.37 770C1412.38 770 1444 738.376 1444 699.366Z" fill="#FF383D"/>
<path d="M1329.72 682.902C1329.72 682.036 1329.92 681.28 1330.34 680.636C1330.76 679.991 1331.35 679.493 1332.11 679.143C1332.88 678.792 1333.76 678.616 1334.75 678.616C1335.74 678.616 1336.61 678.788 1337.38 679.132C1338.14 679.476 1338.74 679.963 1339.17 680.593C1339.6 681.223 1339.81 681.957 1339.81 682.795H1337.16C1337.15 682.193 1336.91 681.71 1336.44 681.345C1335.98 680.972 1335.38 680.786 1334.63 680.786C1333.94 680.786 1333.39 680.958 1332.97 681.302C1332.56 681.638 1332.36 682.075 1332.36 682.612C1332.36 683.142 1332.54 683.532 1332.9 683.783C1333.26 684.034 1333.74 684.231 1334.35 684.374L1336.66 684.943C1337.71 685.194 1338.56 685.656 1339.21 686.329C1339.86 686.995 1340.19 687.854 1340.19 688.907C1340.19 689.788 1339.97 690.558 1339.52 691.217C1339.09 691.876 1338.46 692.388 1337.65 692.753C1336.85 693.111 1335.92 693.29 1334.85 693.29C1333.27 693.29 1331.98 692.907 1330.98 692.141C1330 691.367 1329.46 690.318 1329.37 688.993H1332.03C1332.05 689.652 1332.33 690.171 1332.85 690.551C1333.38 690.923 1334.06 691.109 1334.89 691.109C1335.7 691.109 1336.34 690.937 1336.8 690.594C1337.25 690.25 1337.48 689.777 1337.48 689.176C1337.48 688.66 1337.32 688.27 1337 688.005C1336.68 687.74 1336.25 687.543 1335.73 687.414L1333.37 686.845C1332.21 686.565 1331.31 686.1 1330.67 685.448C1330.03 684.789 1329.72 683.941 1329.72 682.902ZM1342.53 678.895H1345.11V684.75L1351.36 684.771V678.895H1353.95V693H1351.36V686.995H1345.11V693H1342.53V678.895ZM1360.87 678.895H1363.49L1368.72 693H1365.99L1364.85 689.788H1359.46L1358.27 693H1355.6L1360.87 678.895ZM1364.1 687.65L1363.2 685.169C1363.11 684.933 1362.88 684.234 1362.49 683.074L1362.19 682.193C1362.13 682.387 1362 682.791 1361.78 683.407C1361.57 684.023 1361.35 684.61 1361.13 685.169L1360.2 687.65H1364.1ZM1377.22 684.965L1382.08 693H1378.98L1375.46 687.145L1373.13 690.035V693.043H1370.53V678.895H1373.13V686.071L1378.89 678.895H1382.11L1377.22 684.965ZM1383.95 693V678.895H1386.53V693H1383.95ZM1401.02 678.895V693H1398.61L1392.12 683.343V693H1389.56V678.895H1391.99L1398.48 688.574V678.895H1401.02ZM1417.62 685.341V686.684C1417.62 687.987 1417.32 689.14 1416.72 690.143C1416.12 691.138 1415.28 691.911 1414.2 692.463C1413.14 693.014 1411.92 693.29 1410.55 693.29C1409.13 693.29 1407.88 692.989 1406.8 692.388C1405.73 691.786 1404.89 690.941 1404.3 689.852C1403.7 688.757 1403.41 687.489 1403.41 686.05C1403.41 684.582 1403.71 683.289 1404.32 682.172C1404.93 681.047 1405.78 680.174 1406.88 679.551C1407.98 678.928 1409.24 678.616 1410.67 678.616C1411.82 678.616 1412.85 678.817 1413.78 679.218C1414.72 679.619 1415.5 680.185 1416.12 680.915C1416.73 681.638 1417.14 682.469 1417.33 683.407H1414.58C1414.3 682.648 1413.81 682.057 1413.1 681.635C1412.39 681.205 1411.55 680.99 1410.59 680.99C1409.2 680.99 1408.09 681.449 1407.29 682.365C1406.48 683.282 1406.07 684.496 1406.07 686.007C1406.07 687.518 1406.48 688.71 1407.3 689.584C1408.12 690.45 1409.23 690.884 1410.62 690.884C1411.78 690.884 1412.74 690.594 1413.49 690.014C1414.26 689.426 1414.72 688.603 1414.87 687.543H1410.4V685.341H1417.62ZM1346.97 722.29C1345.56 722.29 1344.3 721.986 1343.2 721.377C1342.1 720.768 1341.25 719.905 1340.63 718.788C1340.01 717.671 1339.71 716.389 1339.71 714.942C1339.71 713.503 1340.01 712.228 1340.62 711.118C1341.23 710.001 1342.08 709.138 1343.18 708.529C1344.28 707.921 1345.54 707.616 1346.97 707.616C1348.14 707.616 1349.22 707.817 1350.19 708.218C1351.16 708.619 1351.97 709.199 1352.61 709.958C1353.25 710.71 1353.65 711.584 1353.83 712.579H1350.96C1350.74 711.82 1350.27 711.2 1349.55 710.721C1348.82 710.234 1347.96 709.99 1346.95 709.99C1346.04 709.99 1345.24 710.194 1344.54 710.602C1343.85 711.011 1343.32 711.594 1342.95 712.353C1342.58 713.105 1342.39 713.976 1342.39 714.964C1342.39 715.959 1342.58 716.833 1342.96 717.585C1343.34 718.33 1343.87 718.899 1344.56 719.293C1345.26 719.687 1346.05 719.884 1346.95 719.884C1347.93 719.884 1348.78 719.647 1349.51 719.175C1350.25 718.695 1350.74 718.061 1350.96 717.273H1353.83C1353.67 718.254 1353.27 719.128 1352.64 719.894C1352.01 720.654 1351.21 721.244 1350.23 721.667C1349.26 722.082 1348.17 722.29 1346.97 722.29ZM1356.17 707.895H1358.75V713.75L1365 713.771V707.895H1367.59V722H1365V715.995H1358.75V722H1356.17V707.895ZM1370.63 722V707.895H1373.21V722H1370.63ZM1384.67 719.669V722H1376.24V707.895H1378.84V719.669H1384.67ZM1395.18 719.669V722H1386.75V707.895H1389.35V719.669H1395.18ZM1396.85 711.902C1396.85 711.036 1397.06 710.28 1397.48 709.636C1397.9 708.991 1398.49 708.493 1399.25 708.143C1400.02 707.792 1400.9 707.616 1401.89 707.616C1402.87 707.616 1403.75 707.788 1404.51 708.132C1405.28 708.476 1405.88 708.963 1406.31 709.593C1406.74 710.223 1406.95 710.957 1406.95 711.795H1404.3C1404.28 711.193 1404.05 710.71 1403.58 710.345C1403.12 709.972 1402.52 709.786 1401.76 709.786C1401.08 709.786 1400.53 709.958 1400.11 710.302C1399.7 710.638 1399.5 711.075 1399.5 711.612C1399.5 712.142 1399.68 712.532 1400.03 712.783C1400.4 713.034 1400.88 713.231 1401.48 713.374L1403.79 713.943C1404.85 714.194 1405.7 714.656 1406.35 715.329C1407 715.995 1407.33 716.854 1407.33 717.907C1407.33 718.788 1407.11 719.558 1406.66 720.217C1406.23 720.876 1405.6 721.388 1404.79 721.753C1403.99 722.111 1403.06 722.29 1401.99 722.29C1400.41 722.29 1399.12 721.907 1398.12 721.141C1397.13 720.367 1396.6 719.318 1396.51 717.993H1399.16C1399.19 718.652 1399.47 719.171 1399.99 719.551C1400.51 719.923 1401.19 720.109 1402.03 720.109C1402.84 720.109 1403.48 719.937 1403.93 719.594C1404.39 719.25 1404.62 718.777 1404.62 718.176C1404.62 717.66 1404.46 717.27 1404.14 717.005C1403.82 716.74 1403.39 716.543 1402.87 716.414L1400.51 715.845C1399.35 715.565 1398.45 715.1 1397.81 714.448C1397.17 713.789 1396.85 712.941 1396.85 711.902Z" fill="#FA5652"/>
<path d="M1373.87 612.801C1325.1 612.801 1285.56 652.339 1285.56 701.111C1285.56 749.886 1325.1 789.424 1373.87 789.424V833.035" stroke="#FFD6D7" stroke-width="2.4" stroke-miterlimit="10"/>
<path d="M1009.74 753.401H1100.85C1108.12 753.401 1115.01 750.098 1119.56 744.421L1145.1 712.605C1149.65 706.929 1156.54 703.626 1163.81 703.626H1258" stroke="#FFA6A6" stroke-width="5" stroke-linejoin="round"/>
<path opacity="0.15" d="M1444 213.366C1444 174.356 1412.38 142.732 1373.37 142.732C1334.36 142.732 1302.74 174.356 1302.74 213.366C1302.74 252.376 1334.36 284 1373.37 284C1412.38 284 1444 252.376 1444 213.366Z" fill="#FF383D"/>
<path d="M1320.58 209.896H1323.16V215.75L1329.41 215.772V209.896H1332V224H1329.41V217.995H1323.16V224H1320.58V209.896ZM1337.62 212.248V215.772H1343.41V218.017H1337.62V221.648H1344.06V224H1335.04V209.896H1344.06V212.248H1337.62ZM1350.67 209.896H1353.29L1358.52 224H1355.79L1354.65 220.788H1349.26L1348.07 224H1345.41L1350.67 209.896ZM1353.9 218.65L1353 216.169C1352.91 215.933 1352.68 215.234 1352.29 214.074L1351.99 213.193C1351.93 213.387 1351.8 213.791 1351.58 214.407C1351.37 215.023 1351.15 215.61 1350.93 216.169L1350 218.65H1353.9ZM1365.57 209.896C1366.94 209.896 1368.17 210.196 1369.24 210.798C1370.32 211.399 1371.17 212.241 1371.77 213.322C1372.37 214.397 1372.67 215.618 1372.67 216.985C1372.67 218.346 1372.37 219.56 1371.78 220.627C1371.18 221.687 1370.35 222.514 1369.26 223.108C1368.19 223.703 1366.96 224 1365.57 224H1360.33V209.896H1365.57ZM1365.34 221.648C1366.27 221.648 1367.08 221.454 1367.77 221.067C1368.47 220.674 1369.01 220.126 1369.39 219.424C1369.77 218.722 1369.96 217.909 1369.96 216.985C1369.96 216.047 1369.77 215.224 1369.39 214.515C1369.01 213.799 1368.47 213.244 1367.77 212.85C1367.08 212.449 1366.27 212.248 1365.34 212.248H1362.9V221.648H1365.34ZM1378.26 209.896H1380.88L1386.11 224H1383.38L1382.24 220.788H1376.85L1375.66 224H1372.99L1378.26 209.896ZM1381.49 218.65L1380.59 216.169C1380.5 215.933 1380.26 215.234 1379.88 214.074L1379.58 213.193C1379.52 213.387 1379.38 213.791 1379.17 214.407C1378.95 215.023 1378.73 215.61 1378.51 216.169L1377.59 218.65H1381.49ZM1393.72 224.29C1392.31 224.29 1391.06 223.986 1389.95 223.377C1388.86 222.768 1388 221.905 1387.39 220.788C1386.77 219.671 1386.46 218.389 1386.46 216.942C1386.46 215.503 1386.77 214.228 1387.38 213.118C1387.98 212.001 1388.84 211.138 1389.93 210.529C1391.03 209.921 1392.3 209.616 1393.72 209.616C1394.9 209.616 1395.97 209.817 1396.95 210.218C1397.92 210.619 1398.73 211.199 1399.36 211.958C1400 212.71 1400.41 213.584 1400.59 214.579H1397.72C1397.5 213.82 1397.03 213.201 1396.3 212.721C1395.58 212.234 1394.71 211.99 1393.7 211.99C1392.79 211.99 1391.99 212.194 1391.3 212.603C1390.61 213.011 1390.08 213.594 1389.71 214.354C1389.33 215.106 1389.15 215.976 1389.15 216.964C1389.15 217.959 1389.34 218.833 1389.72 219.585C1390.1 220.33 1390.63 220.899 1391.32 221.293C1392.01 221.687 1392.81 221.884 1393.7 221.884C1394.68 221.884 1395.54 221.648 1396.27 221.175C1397.01 220.695 1397.49 220.061 1397.72 219.273H1400.59C1400.42 220.255 1400.03 221.128 1399.4 221.895C1398.77 222.654 1397.96 223.245 1396.99 223.667C1396.02 224.082 1394.93 224.29 1393.72 224.29ZM1402.93 209.896H1405.51V215.75L1411.76 215.772V209.896H1414.35V224H1411.76V217.995H1405.51V224H1402.93V209.896ZM1419.97 212.248V215.772H1425.76V218.017H1419.97V221.648H1426.41V224H1417.39V209.896H1426.41V212.248H1419.97Z" fill="#FF383D"/>
<path d="M1373.87 126.65C1325.1 126.65 1285.56 166.187 1285.56 214.96C1285.56 263.732 1325.1 303.272 1373.87 303.272V346.883" stroke="#FFD6D7" stroke-width="2.4" stroke-miterlimit="10"/>
<path d="M1381.13 349.087C1381.13 345.075 1377.88 341.825 1373.87 341.825C1369.86 341.825 1366.61 345.075 1366.61 349.087C1366.61 353.099 1369.86 356.349 1373.87 356.349C1377.88 356.349 1381.13 353.099 1381.13 349.087Z" fill="#F2AEB0"/>
<path d="M1259.84 221.859H1133.56C1127.44 221.859 1121.56 224.195 1117.1 228.39L1088.57 255.271C1084.11 259.466 1078.23 261.802 1072.11 261.802H958.12" stroke="#FFB2B1" stroke-width="5" stroke-linejoin="round"/>
<path d="M1263.94 221.146C1263.94 226.182 1259.86 230.264 1254.82 230.264C1249.79 230.264 1245.7 226.182 1245.7 221.146C1245.7 216.11 1249.79 212.027 1254.82 212.027C1259.86 212.027 1263.94 216.11 1263.94 221.146Z" fill="#FF383D"/>
<defs>
<filter id="filter0_d" x="310.58" y="725.616" width="106.434" height="14.6738" filterUnits="userSpaceOnUse" color-interpolation-filters="sRGB">
<feFlood flood-opacity="0" result="BackgroundImageFix"/>
<feColorMatrix in="SourceAlpha" type="matrix" values="0 0 0 0 0 0 0 0 0 0 0 0 0 0 0 0 0 0 127 0" result="hardAlpha"/>
<feOffset/>
<feColorMatrix type="matrix" values="0 0 0 0 0 0 0 0 0 0 0 0 0 0 0 0 0 0 0.1 0"/>
<feBlend mode="normal" in2="BackgroundImageFix" result="effect1_dropShadow"/>
<feBlend mode="normal" in="SourceGraphic" in2="effect1_dropShadow" result="shape"/>
</filter>
<linearGradient id="paint0_linear" x1="164.736" y1="645.295" x2="-11.8229" y2="620.419" gradientUnits="userSpaceOnUse">
<stop stop-color="#FFE1E2"/>
<stop offset="1" stop-color="#FFF8F8"/>
</linearGradient>
<linearGradient id="paint1_linear" x1="1710.07" y1="723.796" x2="1600.45" y2="832.245" gradientUnits="userSpaceOnUse">
<stop stop-color="#FFD3D2"/>
<stop offset="1" stop-color="#FFFAFA"/>
</linearGradient>
<linearGradient id="paint2_linear" x1="563.615" y1="650.802" x2="627.866" y2="779.175" gradientUnits="userSpaceOnUse">
<stop stop-color="#FFC8C8"/>
<stop offset="1" stop-color="#FFF2F5"/>
</linearGradient>
<linearGradient id="paint3_linear" x1="1195.18" y1="247.499" x2="673.511" y2="37.2372" gradientUnits="userSpaceOnUse">
<stop stop-color="white"/>
<stop offset="1" stop-color="#FFD5D5"/>
</linearGradient>
<linearGradient id="paint4_linear" x1="1127.95" y1="152.536" x2="966.873" y2="125.967" gradientUnits="userSpaceOnUse">
<stop stop-color="#FFD3D3"/>
<stop offset="1" stop-color="#FFF6F6"/>
</linearGradient>
<linearGradient id="paint5_linear" x1="489.431" y1="427.025" x2="1246.77" y2="427.025" gradientUnits="userSpaceOnUse">
<stop stop-color="#FFF8F5"/>
<stop offset="1" stop-color="#FFDEDE"/>
</linearGradient>
<linearGradient id="paint6_linear" x1="1177.01" y1="608.534" x2="978.623" y2="626.818" gradientUnits="userSpaceOnUse">
<stop stop-color="#FFC2C2"/>
<stop offset="1" stop-color="white"/>
</linearGradient>
</defs>
</svg>
