<svg xmlns="http://www.w3.org/2000/svg" width="933.618" height="812" viewBox="0 0 933.618 812"><defs><style>.a{opacity:0.67;}.b{fill:#03673d;}.c{fill:#04ad66;}.d{fill:#10794d;}.e{fill:#007248;}.f{fill:#096b42;}.g{fill:#0ea867;}.ay,.h{fill:#128e5a;}.ae,.ak,.h{fill-rule:evenodd;}.aa,.i{fill:none;stroke-miterlimit:10;}.i{stroke:#014d2d;stroke-linecap:round;stroke-linejoin:round;}.j{fill:#f52d29;}.k{fill:#f80700;}.l{opacity:0.76;}.m{fill:#ff1f55;}.n{fill:#ffc702;}.o{fill:#3d99ee;}.p{fill:#6f2a1a;}.q{fill:#bdd8f5;}.r{fill:#fb4c47;}.s{fill:#ffc700;}.t{fill:#1db776;}.u{fill:#11915b;}.v{fill:#592a3c;}.w{fill:#925c50;}.x{fill:#fff;}.y{fill:rgba(250,87,82,0.82);opacity:0.89;}.z{fill:rgba(250,87,82,0.75);}.aa{stroke:#925d51;stroke-width:5.81px;}.ab{fill:#ac6352;}.ac{fill:#984b39;}.ad{fill:#925d51;}.ae,.aj{fill:#f5c827;}.af{opacity:0.7;}.ag{fill:#dcb21d;}.ah{fill:#ebafb2;}.ai{fill:#caa41e;}.ak{fill:#ffe792;}.al{fill:#ff504a;}.am{fill:rgba(29,183,118,0.56);}.an{fill:#b63a37;}.ao{fill:#002014;}.ap{fill:#ffd339;}.aq{fill:#fbb990;}.ar{fill:#181818;}.as{fill:#fb9476;}.at{fill:#fa7764;}.au,.bc{fill:#ffc29c;}.av{fill:#108a57;}.aw{fill:#0cad69;}.ax{fill:#108e59;}.az{fill:#fd9b7e;}.ba{fill:#111;}.bb,.bc{opacity:0.4;}.bd{fill:#80d7b2;}.be{fill:#fab893;}</style></defs><g transform="translate(-493.191 -169)"><g class="a" transform="translate(-486.193 22)"><path class="b" d="M1184.06,512.954,1165.92,519l17.8-11.187q-.225-2.561-.54-5.162l-9.58,1.842,9.06-5.61c-2.07-13.368-6.69-30.146-13.02-47.271l-35.29,13.624,33.73-17.785c-8.86-23.009-20.7-46.186-33.54-62.17l-18.97,13.391,15.13-17.929c-11.69-13-24.03-19.615-35.61-14.5-14.07,6.217-18.1,36.36-13.77,72.708l9.5-.169-9.29,1.859a308.194,308.194,0,0,0,10.6,49.627l36.24-12.231-34.6,17.513c7.66,23.861,18.26,46.7,31.41,64.193l14.28-14.287-11.6,17.735c11.07,13.757,23.82,23.731,38.06,27.494C1165.92,590.684,1186.06,556.831,1184.06,512.954Z"/><path class="c" d="M1168,590.684s20.14-33.853,18.13-77.73L1168,519l17.79-11.187q-.21-2.561-.54-5.162l-9.57,1.842,9.06-5.61c-2.07-13.368-6.69-30.146-13.02-47.269l-35.3,13.622,33.73-17.783c-8.86-23.011-20.69-46.188-33.53-62.172l-18.97,13.393,15.12-17.931c-11.68-13-24.03-19.615-35.61-14.5,0,0,52.68,125.573,69.81,224.143C1167.31,590.481,1167.65,590.593,1168,590.684Z"/><path class="d" d="M1156.67,618.274l-13.42,3.132,12.25-6.64c-1.26-3.6-2.76-7.357-4.57-11.282a181.825,181.825,0,0,0-15.24-26.242l-12.07,9.174,8.5-14.173c-18.72-25.381-43.33-45.9-55.44-25.935-4.97,8.205-5.3,21.268-1.86,35.953l27.46-.964-26.48,4.854a137.693,137.693,0,0,0,12.95,30.891l9.27-4.17-7.99,6.389A137.135,137.135,0,0,0,1112.4,648l18.9-20.617-16.29,23.074c11.45,10.428,24.75,18.254,39.33,21.3C1154.34,671.756,1167.61,653.14,1156.67,618.274Z"/><path class="c" d="M1153.26,671.506c.36.082.72.174,1.08.249,0,0,13.28-18.616,2.33-53.48l-13.42,3.131,12.26-6.64c-1.26-3.6-2.77-7.357-4.58-11.281a181.943,181.943,0,0,0-15.24-26.244l-12.07,9.176,8.51-14.173c-17.65-23.927-40.53-43.517-53.24-28.964C1089.07,557,1131.94,616.438,1153.26,671.506Z"/><path class="e" d="M1115.34,656.6c-7.49-7.077-20.86-15.765-36.38-23.751-6.73,9.944-14.24,21.174-15.53,23.634-.19.439-.26.59-.17.364a3.529,3.529,0,0,1,.17-.364c1.09-2.579,6.35-15.564,10.62-26.1a275.088,275.088,0,0,0-29-12.275l-5.32,25.249,2.45-26.244c-30.49-10.343-58.917-12.577-62.537,7.45-1,5.535.94,11.685,5.1,18.122,11.687-.684,28.588-1.781,28.588-1.781l-24.642,7.162c9.039,11.138,23.892,22.844,41.1,33.541l14.79-28.707-12.09,30.36a334.424,334.424,0,0,0,57.54,27.68c1.61-7.08,2.78-12.21,2.78-12.21l.24,13.281q5.475,1.91,10.71,3.456l1.56-6.123,1.03,6.868c17.34,4.863,32.08,6.379,40.53,2.853C1146.88,719.069,1153.6,692.745,1115.34,656.6Z"/><path class="f" d="M1220.36,467.6c18.27-45.005,43.26-54.4,53.47-53.472,16.93-2.227,17.82,27.293,16.15,42.332h-25.62l25.62,5.013c-.45,24.063-6.87,49.759-10.03,59.6l-31.74-6.127,31.74,10.583a417.966,417.966,0,0,1-25.06,68.511l-32.31-15.039,30.64,18.381-3.9,6.684-8.91-1.671,7.8,3.9c-13.82,28.073-39.55,39.547-50.69,41.775-9.36-11.14-12.07-32.491-12.26-41.775l16.71-3.9h-16.71c-1.78-16.041,3.72-43.817,6.69-55.7l12.81,5.57-12.25-8.355,1.67-5.57,27.29,8.355-25.07-15.6c2.68-15.6,15.6-46.231,21.73-59.6l17.26,2.228Z"/><path class="g" d="M1248.47,607.233c-14.1,27.788-39.74,39.574-50.8,41.994,16.59-114.473,60.48-204.269,80.36-234.857,13.68,2.489,13.99,29.724,12.44,43.031l-25.41-1.037,25.41,4.666c-1.66,27.374-6.91,51.845-9.33,60.659l-34.22-7.259,32.66,10.888c-7.88,34.01-19.87,60.14-24.88,68.953l-31.63-15.553,30.59,18.664-4.15,7.258-8.81-2.073Z"/><path class="h" d="M1180.61,809.193s0,0-.67-.042l.67.045a.675.675,0,0,1-.67.622.664.664,0,0,1-.66-.627c-2.57-43.076-19.56-76.042-41.62-101.1-21.72-23.589-47.34-40.957-72.63-53.72.03-.046.05-.093.08-.14a366.573,366.573,0,0,0-39.51-16.614h0c-1.91-.693-3.49-1.271-4.72-1.744a368.959,368.959,0,0,0-40.55-10.911c.013-.1.023-.209.033-.314.016-.17.031-.34.062-.507,3.588-19.311,31.885-17.131,62.235-7.129l-2.36,24.726a.423.423,0,0,1,.07.026l5.15-23.791a280.592,280.592,0,0,1,28.88,11.864c-3.45,8.257-7.55,18.062-9.54,22.782.32.16.65.32.97.482,2.83-4.406,8.73-13.012,14.12-20.821,15.65,7.886,29.13,16.462,36.68,23.447,38.58,35.669,31.82,61.626,31.82,61.626-.37.153-.76.294-1.16.424a163.945,163.945,0,0,1,32.47,81.546c.24-5.832.49-14.113.62-24.412.25-21.5-.1-51.793-2.48-86.96-4.77-70.344-17.7-160.142-50.32-238.071a.667.667,0,0,1,1.23-.515c32.71,78.125,45.65,168.09,50.42,238.5,2.39,35.208,2.73,65.537,2.48,87.065-.13,10.764-.4,19.329-.65,25.2-.12,2.938-.23,5.2-.32,6.734-.04.765-.07,1.347-.1,1.739a2.831,2.831,0,0,1-.02.328v.114l-.01.112v.035Z"/><path class="i" d="M1106.55,582.15s73.39,102.406,73.39,227c11.1-217.613,67.5-336.2,67.5-336.2"/><path class="j" d="M1203.91,774.692h-58.87s-15.85,125.484,35.1,140.049S1203.91,774.692,1203.91,774.692Z"/><path class="k" d="M1214.26,774.692h-55.19s-12.49,125.484,27.65,140.049C1250.55,921.931,1214.26,774.692,1214.26,774.692Z"/></g><g class="l" transform="translate(-486.193 22)"><path class="m" d="M1226.78,187.178h-19.04V262.1h19.04Z"/><path class="n" d="M1249.35,187.178h-19.04V262.1h19.04Z"/><path class="o" d="M1263.42,188.519l-16.13,10.124,39.88,63.458,16.13-10.123Z"/><path class="p" d="M1411.98,278.616H1206.52A16.521,16.521,0,0,1,1190,262.1h238.5a16.521,16.521,0,0,1-16.52,16.516Z"/><path class="q" d="M1415.88,189.953h-90.95V262.1h90.95Z"/><path class="r" d="M1409.8,197.04h-78.79V255h78.79Z"/><path class="s" d="M1370.41,244.616a18.59,18.59,0,1,0-18.6-18.59A18.6,18.6,0,0,0,1370.41,244.616Z"/><path class="t" d="M1392.86,255h-61.85V227.246c10.68-.4,26.45.894,41.35,9.455A66.73,66.73,0,0,1,1392.86,255Z"/><path class="u" d="M1409.8,216.881V255h-49.58a79.212,79.212,0,0,1,12.13-18.3A58.739,58.739,0,0,1,1409.8,216.881Z"/><path class="v" d="M1238.23,292.954h-14.82l2.05-30.855h10.73Z"/><path class="v" d="M1395.09,292.954h-14.82l2.05-30.855h10.73Z"/><path class="w" d="M1706.91,245.912H1495.48V147h211.43Zm-202.36-9.06h193.3v-80.79h-193.3Z"/><path class="x" d="M1697.85,156.062h-193.3v80.791h193.3Z"/><path class="s" d="M1547.53,215.818a30.278,30.278,0,1,0-36.4-22.572A30.27,30.27,0,0,0,1547.53,215.818Z"/><path class="u" d="M1504.55,211.346l57.46-25.649a27.554,27.554,0,0,1,28.24,3.486l60.72,47.669H1504.55Z"/><path class="t" d="M1604.88,200.669l43.28-14.3a27.559,27.559,0,0,1,27.15,5.746l22.54,20.437v24.309h-46.88Z"/></g><g transform="translate(-486.193 22)"><path class="y" d="M1391.97,385.419a4.309,4.309,0,0,0-4.15,3.55,73.508,73.508,0,0,1-10.38.077c-2.14-.138-4.17-.361-6.07-.638.01-.366.02-.735.02-1.1a38.4,38.4,0,0,0-.37-5.288,18.748,18.748,0,0,1,3.64-2.193,19.023,19.023,0,0,1,6.74-1.7,4.343,4.343,0,0,0,4.94,2.724,4.781,4.781,0,0,0-2.37-9.181,4.412,4.412,0,0,0-2.98,4.977,14.725,14.725,0,0,1-6.93,1.981,14.2,14.2,0,0,1-3.77-.412,37.446,37.446,0,0,0-2.8-7.673,39.247,39.247,0,0,1,4.53-3.558,39.76,39.76,0,0,1,7.17-3.823,4.289,4.289,0,0,0,5.38,1.2,4.512,4.512,0,0,0,1.25-6.2,4.445,4.445,0,0,0-5.96-2.012,4.371,4.371,0,0,0-1.67,5.288,40.432,40.432,0,0,1-6.86,4.335,41.043,41.043,0,0,1-5.26,2.177,36.988,36.988,0,0,0-4.59-6.177,27.54,27.54,0,0,1,3.71-8.115,27.211,27.211,0,0,1,5.5-5.97,4.308,4.308,0,0,0,5.56-.55,4.508,4.508,0,0,0-.79-6.281,4.43,4.43,0,0,0-6.28.008,4.385,4.385,0,0,0,.16,5.627,26.75,26.75,0,0,1-5.2,6.238,26.4,26.4,0,0,1-7.44,4.647,37.141,37.141,0,0,0-7.62-4.546,16.942,16.942,0,0,1,1.6-3.308,17.2,17.2,0,0,1,1.75-2.292,4.31,4.31,0,0,0,5.44-1.543,4.5,4.5,0,0,0-1.92-6.027,4.169,4.169,0,1,0-5,6.669,28.036,28.036,0,0,1-1.26,2.858,28.647,28.647,0,0,1-1.86,3.116c-.27-.112-.55-.22-.83-.319a36.819,36.819,0,0,0-10.31-2.258,32.314,32.314,0,0,1-1.73-15.425,4.34,4.34,0,0,0,3.71-4.1,4.742,4.742,0,0,0-9.42,0,4.361,4.361,0,0,0,3.82,4.116,29.022,29.022,0,0,1-1.31,15.373,36.878,36.878,0,0,0-9.92,1.951,14.244,14.244,0,0,1-1.18-2.3,16.066,16.066,0,0,1-1.12-4.659,4.181,4.181,0,1,0-3.49-7.589,4.5,4.5,0,0,0-3,5.565,4.314,4.314,0,0,0,4.85,2.57,25.247,25.247,0,0,1,2.25,7.039,36.942,36.942,0,0,0-7.98,4.4,33.968,33.968,0,0,1-3.92-3.316,35.585,35.585,0,0,1-6.34-8.4,4.378,4.378,0,0,0,.49-5.561,4.439,4.439,0,0,0-6.27-.432,4.5,4.5,0,0,0-1.19,6.214,4.307,4.307,0,0,0,5.52.915,27.776,27.776,0,0,1,6.29,8.319,27.428,27.428,0,0,1,1.91,5.127c-.39.365-.79.741-1.17,1.125a38.415,38.415,0,0,0-5.11,6.4,28.315,28.315,0,0,1-2.68-.928,28,28,0,0,1-6.99-4.1,4.372,4.372,0,0,0-1.75-5.331,4.456,4.456,0,0,0-5.92,2.144,4.51,4.51,0,0,0,1.39,6.175,4.31,4.31,0,0,0,5.4-1.373,28.537,28.537,0,0,1,7.2,3.718c.78.559,1.5,1.133,2.17,1.711a37.431,37.431,0,0,0-4.22,12.341,49.248,49.248,0,0,1-13.76-.732,4.391,4.391,0,0,0-3.68-4.464,4.785,4.785,0,0,0-.98,9.436,4.351,4.351,0,0,0,4.48-3.449,53.092,53.092,0,0,1,8,.77,52.451,52.451,0,0,1,5.61,1.291q-.12,1.5-.12,3.043a38.062,38.062,0,0,0,.67,7.129,30.808,30.808,0,0,1-16.19,5.177,4.322,4.322,0,0,0-4.72-2.95,4.783,4.783,0,0,0,1.79,9.315,4.346,4.346,0,0,0,3.29-4.419,47.763,47.763,0,0,1,17.07-2.346,37.485,37.485,0,0,0,4.32,8.924,25.025,25.025,0,0,1-2.87,1.983,24.622,24.622,0,0,1-5.74,2.438,4.306,4.306,0,0,0-5.19-1.974,4.5,4.5,0,0,0-2.09,5.969,4.914,4.914,0,0,0,3.19,2.958,3.778,3.778,0,0,0,2.44-.131,3.394,3.394,0,0,0,.66-.358,4.57,4.57,0,0,0,1.56-5.241,35.318,35.318,0,0,1,5.69-2.359,34.529,34.529,0,0,1,3.99-1,36.436,36.436,0,0,0,3.75,4.183c.13.122.26.245.38.361a31.041,31.041,0,0,1-10.28,12.634,4.311,4.311,0,0,0-5.56.181,4.522,4.522,0,0,0,.35,6.323,4.451,4.451,0,0,0,6.28.427,4.379,4.379,0,0,0,.27-5.539,41.031,41.031,0,0,1,12.68-10.957,37.454,37.454,0,0,0,9.36,4.869,29.319,29.319,0,0,1-.74,4.088,28.49,28.49,0,0,1-3.12,7.516,4.321,4.321,0,0,0-5.01,2.457,4.5,4.5,0,0,0,2.89,5.62,4.436,4.436,0,0,0,5.89-2.2,4.344,4.344,0,0,0-2-5.169,40.113,40.113,0,0,1,2.65-7.715,37.756,37.756,0,0,1,2.01-3.8,36.73,36.73,0,0,0,8.06,1.254,51.544,51.544,0,0,1,1,7.327,53.826,53.826,0,0,1-.32,10.435,4.326,4.326,0,0,0-3.69,4.092,4.742,4.742,0,0,0,9.42,0,4.335,4.335,0,0,0-3.67-4.089,61.433,61.433,0,0,1,.47-17.757,36.561,36.561,0,0,0,8.42-1.312c.23.4.46.815.68,1.242a29.129,29.129,0,0,1,2.68,7.578,4.37,4.37,0,0,0-2.16,5.126,4.75,4.75,0,0,0,8.88-3.185,4.341,4.341,0,0,0-5.01-2.58,20.421,20.421,0,0,1-2.57-7.708c-.05-.415-.09-.823-.11-1.223a36.672,36.672,0,0,0,8.42-4.219,47.072,47.072,0,0,1,11.28,13.407,4.372,4.372,0,0,0-.47,5.531,4.441,4.441,0,0,0,6.27.431,4.5,4.5,0,0,0,1.2-6.216,4.288,4.288,0,0,0-5.39-.98,56.986,56.986,0,0,1-6.58-8.069,55.493,55.493,0,0,1-3.58-6.119,38.725,38.725,0,0,0,2.99-2.712,36.633,36.633,0,0,0,4.24-5.1,43.621,43.621,0,0,1,14.74,7.365,4.371,4.371,0,0,0,1.69,5.269,4.458,4.458,0,0,0,5.96-2.038,4.521,4.521,0,0,0-1.28-6.2,4.312,4.312,0,0,0-5.41,1.254,32.2,32.2,0,0,1-7.14-3.819,32.676,32.676,0,0,1-6.2-5.708,36.858,36.858,0,0,0,2.51-5.9,31.22,31.22,0,0,1,3.52.323,30.44,30.44,0,0,1,7.77,2.266,4.356,4.356,0,0,0,3.01,4.7,4.466,4.466,0,0,0,5.21-3.55,4.512,4.512,0,0,0-2.86-5.638,4.34,4.34,0,0,0-4.91,2.681,27.91,27.91,0,0,1-7.87-1.82,26.561,26.561,0,0,1-3.15-1.461,37.773,37.773,0,0,0,.98-5.869c1.94-.158,4-.258,6.17-.262a76.364,76.364,0,0,1,10.35.673,4.332,4.332,0,0,0,3.95,3.781,4.784,4.784,0,0,0,.27-9.485Z"/></g><path class="z" d="M1909.3,209.616a3.986,3.986,0,0,0-3.82,3.323,66.367,66.367,0,0,1-9.53.072c-1.97-.129-3.83-.339-5.57-.6.01-.342.01-.687.01-1.033a35.137,35.137,0,0,0-.34-4.95,17.477,17.477,0,0,1,3.34-2.052,17.282,17.282,0,0,1,6.2-1.6,3.973,3.973,0,0,0,4.54,2.549c2.04-.547,3.21-2.912,2.61-5.285s-2.75-3.855-4.8-3.308a4.132,4.132,0,0,0-2.73,4.658,13.351,13.351,0,0,1-6.37,1.855,12.827,12.827,0,0,1-3.46-.386,35.241,35.241,0,0,0-2.57-7.182,37,37,0,0,1,4.16-3.33,36.294,36.294,0,0,1,6.58-3.578,3.9,3.9,0,0,0,4.95,1.119,4.284,4.284,0,0,0,1.15-5.806,4.054,4.054,0,0,0-5.48-1.883,4.133,4.133,0,0,0-1.53,4.95,37.068,37.068,0,0,1-6.31,4.057,36.542,36.542,0,0,1-4.82,2.037,35,35,0,0,0-4.22-5.781,25.946,25.946,0,0,1,3.4-7.6,25.279,25.279,0,0,1,5.06-5.588,3.894,3.894,0,0,0,5.1-.514,4.27,4.27,0,0,0-.72-5.879,4.017,4.017,0,0,0-5.77.007,4.162,4.162,0,0,0,.15,5.267,25,25,0,0,1-4.78,5.839,24.228,24.228,0,0,1-6.84,4.349,34,34,0,0,0-7-4.255,16.437,16.437,0,0,1,1.48-3.1,15.67,15.67,0,0,1,1.6-2.145,3.925,3.925,0,0,0,5-1.444,4.244,4.244,0,0,0-1.76-5.642,4.045,4.045,0,0,0-5.68,1.106,4.173,4.173,0,0,0,1.09,5.137,26.214,26.214,0,0,1-1.17,2.674,25.824,25.824,0,0,1-1.7,2.917c-.25-.1-.51-.205-.76-.3a33.343,33.343,0,0,0-9.48-2.113,30.8,30.8,0,0,1-1.59-14.438,4.034,4.034,0,0,0,3.41-3.832,4.351,4.351,0,0,0-8.66,0,4.055,4.055,0,0,0,3.51,3.851,27.81,27.81,0,0,1,.05,9.684,27.247,27.247,0,0,1-1.25,4.706,33.206,33.206,0,0,0-9.11,1.827,12.913,12.913,0,0,1-1.09-2.152,15.328,15.328,0,0,1-1.02-4.361,4.155,4.155,0,0,0,2.17-4.94,4.069,4.069,0,0,0-5.38-2.163,4.224,4.224,0,0,0-2.75,5.209,3.937,3.937,0,0,0,4.45,2.4,25.083,25.083,0,0,1,1.54,4.15,23.069,23.069,0,0,1,.53,2.439,34,34,0,0,0-7.34,4.114,32.137,32.137,0,0,1-3.6-3.1,33.319,33.319,0,0,1-5.82-7.86,4.156,4.156,0,0,0,.45-5.2,4.025,4.025,0,0,0-5.76-.406,4.278,4.278,0,0,0-1.1,5.817,3.921,3.921,0,0,0,5.08.857,25.788,25.788,0,0,1,5.78,7.786,26.2,26.2,0,0,1,1.75,4.8c-.36.341-.72.694-1.07,1.053a35.046,35.046,0,0,0-4.69,5.994,25.181,25.181,0,0,1-8.89-4.708,4.13,4.13,0,0,0-1.61-4.99,4.047,4.047,0,0,0-5.43,2.007,4.27,4.27,0,0,0,1.27,5.78,3.913,3.913,0,0,0,4.96-1.285,25.937,25.937,0,0,1,6.61,3.48c.72.522,1.38,1.06,2,1.6a35.647,35.647,0,0,0-3.88,11.552,44.452,44.452,0,0,1-12.64-.686,4.084,4.084,0,0,0-3.38-4.178c-2.1-.226-4,1.568-4.25,4.007s1.25,4.6,3.35,4.825a4,4,0,0,0,4.11-3.228,47.768,47.768,0,0,1,12.51,1.928c-.08.939-.11,1.889-.11,2.849a36.65,36.65,0,0,0,.61,6.673,27.948,27.948,0,0,1-14.87,4.846,3.972,3.972,0,0,0-4.34-2.762c-2.07.411-3.39,2.7-2.93,5.1s2.5,4.027,4.58,3.616a4.04,4.04,0,0,0,3.01-4.136,43.887,43.887,0,0,1,7.26-1.752,43.292,43.292,0,0,1,8.43-.444,35.28,35.28,0,0,0,3.97,8.353,22.021,22.021,0,0,1-7.91,4.138,3.928,3.928,0,0,0-4.77-1.848,4.245,4.245,0,0,0-1.91,5.588,4.531,4.531,0,0,0,2.92,2.768,3.4,3.4,0,0,0,2.24-.123,3.053,3.053,0,0,0,.61-.334,4.324,4.324,0,0,0,1.43-4.907,32.042,32.042,0,0,1,5.23-2.207,31.524,31.524,0,0,1,3.66-.937,35.233,35.233,0,0,0,3.45,3.915c.12.114.24.23.36.338a29.207,29.207,0,0,1-4.02,6.627,28.387,28.387,0,0,1-5.44,5.2,3.893,3.893,0,0,0-5.1.169,4.288,4.288,0,0,0,.32,5.918,4.037,4.037,0,0,0,5.77.4,4.154,4.154,0,0,0,.25-5.184,37.83,37.83,0,0,1,5.11-5.566,37.283,37.283,0,0,1,6.54-4.69,34.109,34.109,0,0,0,8.59,4.557,26.561,26.561,0,0,1-.67,3.827,27.126,27.126,0,0,1-2.87,7.034,3.946,3.946,0,0,0-4.6,2.3,4.218,4.218,0,0,0,2.65,5.26,4.058,4.058,0,0,0,5.42-2.059,4.115,4.115,0,0,0-1.84-4.838,38.415,38.415,0,0,1,2.43-7.222,34.554,34.554,0,0,1,1.85-3.553,33.019,33.019,0,0,0,7.41,1.173,51.751,51.751,0,0,1,.91,6.859,50.314,50.314,0,0,1-.3,9.767,4.03,4.03,0,0,0-3.39,3.83,4.351,4.351,0,0,0,8.66,0,4.029,4.029,0,0,0-3.37-3.827,58.937,58.937,0,0,1-.32-9.77,60.056,60.056,0,0,1,.75-6.851,33.164,33.164,0,0,0,7.74-1.228c.21.374.42.763.62,1.163a27.076,27.076,0,0,1,2.46,7.092,4.135,4.135,0,0,0-1.98,4.8,4.072,4.072,0,0,0,5.37,2.207,4.225,4.225,0,0,0,2.79-5.188,3.974,3.974,0,0,0-4.6-2.415,19.2,19.2,0,0,1-2.36-7.214c-.05-.389-.09-.771-.11-1.145a33.426,33.426,0,0,0,7.74-3.949,44.041,44.041,0,0,1,10.36,12.549,4.155,4.155,0,0,0-.43,5.177,4.027,4.027,0,0,0,5.76.4,4.28,4.28,0,0,0,1.11-5.817,3.9,3.9,0,0,0-4.96-.918,53.194,53.194,0,0,1-6.05-7.553,54.152,54.152,0,0,1-3.29-5.728,34.551,34.551,0,0,0,2.75-2.537,33.854,33.854,0,0,0,3.9-4.77,39.254,39.254,0,0,1,7.22,2.854,39.931,39.931,0,0,1,6.32,4.039,4.126,4.126,0,0,0,1.56,4.932c1.83,1.077,4.28.22,5.47-1.907a4.285,4.285,0,0,0-1.18-5.8,3.916,3.916,0,0,0-4.97,1.174,29.637,29.637,0,0,1-6.56-3.575,30.188,30.188,0,0,1-5.69-5.343,36.068,36.068,0,0,0,2.3-5.525,27.485,27.485,0,0,1,10.38,2.423,4.074,4.074,0,0,0,2.76,4.4c2.04.54,4.19-.947,4.78-3.323s-.58-4.737-2.62-5.277a3.97,3.97,0,0,0-4.51,2.509,25.261,25.261,0,0,1-10.13-3.071,35.428,35.428,0,0,0,.91-5.493c1.78-.148,3.67-.241,5.66-.245a68.736,68.736,0,0,1,9.51.63,4.014,4.014,0,0,0,3.63,3.539c2.11.061,3.88-1.876,3.95-4.328S1911.41,209.677,1909.3,209.616Z" transform="translate(-486.193 22)"/><path class="aa" d="M1753.35,433.8V845.9" transform="translate(-486.193 22)"/><path class="ab" d="M1672.96,432.333s70.14,29.735,160.06-3.5L1784.46,318.64l-71.93-1.75Z" transform="translate(-486.193 22)"/><path class="ac" d="M1803.49,361.839c-28.26,32.008-74.16,45.486-122.32,46.526l-8.21,23.968s70.14,29.735,160.06-3.5Z" transform="translate(-486.193 22)"/><rect class="ad" width="726.385" height="16.939" rx="8.469" transform="translate(643.507 931.272)"/><path class="ae" d="M1493.53,540.656a15.983,15.983,0,0,0-2.46-.187H1306.31c-12.76,0-23.07,0-23.07,46.835V838.357c0-6.31,3.26-4.542,8.39-1.763,4.02,2.183,9.19,4.99,14.84,4.99h184.6a19.813,19.813,0,0,0,5.15-.722h180.86c7.84,0,15.03-2.8,20.63-4.975,7.11-2.77,11.65-4.534,11.65,1.757V587.35c0-46.7-14.34-46.695-32.06-46.694H1493.53Z" transform="translate(-486.193 22)"/><g class="af" transform="translate(-486.193 22)"><g class="af"><path class="ag" d="M1298.08,671.238V837.9c0-11.978,9.34,3.431,20.86,3.431H1484.7c8.39,0,15.62-8.17,18.93-7.976V837.9c0-2.279.33-3.562.95-4.153.63.591.97,1.874.97,4.153v-4.547c3.29-.162,10.44,7.978,18.73,7.978h164.2c11.41,0,20.66-15.409,20.66-3.431V571.073c0-2.669-.04-5.167-.09-7.559Z"/></g></g><path class="ah" d="M1316.51,795.111c0,16.915-9.67,30.626-21.6,30.626H1247.4c-11.93,0-21.6-13.711-21.6-30.626V684.856c0-16.915,9.67-30.627,21.6-30.627h47.51c11.93,0,21.6,13.712,21.6,30.627Z" transform="translate(-486.193 22)"/><path class="ai" d="M1336.27,807.326c0,18.4-14.03,33.311-31.34,33.311h-68.94c-17.31,0-31.34-14.914-31.34-33.311V687.408c0-18.4,14.03-33.311,31.34-33.311h68.94c17.31,0,31.34,14.913,31.34,33.311Z" transform="translate(-486.193 22)"/><path class="ai" d="M1820.1,807.611c0,18.455-13.83,33.415-30.9,33.415h-67.99c-17.07,0-30.9-14.96-30.9-33.415V687.318c0-18.455,13.83-33.415,30.9-33.415h67.99c17.07,0,30.9,14.96,30.9,33.415Z" transform="translate(-486.193 22)"/><path class="ad" d="M1255.78,948.411c0,5.847-3.82,10.589-8.52,10.589s-8.52-4.742-8.52-10.589V911.827c0-5.847,3.81-10.588,8.52-10.588s8.52,4.741,8.52,10.588Z" transform="translate(-486.193 22)"/><path class="ad" d="M1785.1,946.517c0,5.847-3.82,10.589-8.53,10.589s-8.52-4.742-8.52-10.589V909.933c0-5.847,3.82-10.588,8.52-10.588s8.53,4.741,8.53,10.588Z" transform="translate(-486.193 22)"/><path class="aj" d="M1799.36,654.1h-23.9c-12,0-21.72,13.719-21.72,30.642V837.946H1268.21V684.739c0-16.923-9.73-30.642-21.73-30.642h-23.89c-12,0-21.73,13.719-21.73,30.642V894.632c0,8.857,2.68,16.812,6.94,22.407,3.97,5.995,9.6,9.766,15.87,9.766l575.69-1.531c12,0,21.72-13.719,21.72-30.642V684.739C1821.08,667.816,1811.36,654.1,1799.36,654.1Z" transform="translate(-486.193 22)"/><path class="x" d="M1391.95,670.2h-88.41c-3.37,0-6.09,3.181-6.09,7.1V780.451c0,3.925,2.72,7.106,6.09,7.106h88.41c3.37,0,6.09-3.181,6.09-7.106V677.3C1398.04,673.376,1395.32,670.2,1391.95,670.2Z" transform="translate(-486.193 22)"/><path class="x" d="M1734.1,681.406l-80.4-14.032c-3.06-.534-6.09,2.173-6.77,6.047l-17.79,101.826c-.68,3.874,1.26,7.447,4.31,7.981l80.41,14.033c3.06.534,6.08-2.174,6.76-6.048l17.79-101.826C1739.09,685.513,1737.16,681.94,1734.1,681.406Z" transform="translate(-486.193 22)"/><path class="ak" d="M1724.96,861.351c16.33,0,29.56-14.767,29.56-32.985V798.681c0-18.218-13.23-32.985-29.56-32.985H1496.67a13.838,13.838,0,0,0-5.13-1h-202.9c-11.61,0-21.02,14.922-21.02,33.329v29.995c0,18.407,9.41,33.328,21.02,33.328h436.32Z" transform="translate(-486.193 22)"/><path class="al" d="M1440.74,491.017a12.213,12.213,0,0,1-7.93-3.848c-5.41-5.81-13.17-19.321-2.06-43.316,20.68-44.686,96.33-37.982,114.37-5.512,12.84,23.1,25.61,27.683,18.72,34.633C1557.19,479.682,1478.41,494.058,1440.74,491.017Z" transform="translate(-486.193 22)"/><path class="x" d="M1574.07,759.483l-.26.034c-16.36,2.383-32.95,4.572-49.58,5.858-.96.07-1.91.145-2.87.2a312.457,312.457,0,0,1-52.73-.279c-5.73-.563-11.44-1.341-17.09-2.375a23.593,23.593,0,0,1-19.12-26.94c1.93-11.908,3.19-23.189,4.02-33.794.12-1.577.24-3.134.34-4.677.84-12.379,1.11-23.779,1.2-34.134,0-.881.01-1.752.01-2.613,0-.39.01-.778.01-1.159.01-.591.01-1.177.01-1.755v-1.166c0-.808.01-1.595,0-2.383q.015-3.631.01-7.056v-.606c.01-7.9.04-14.977.36-21.179.01-.284.02-.559.04-.837.07-1.288.14-2.566.2-3.825.06-1.221.12-2.43.16-3.627.13-3.358.22-6.595.28-9.686.03-2.6.03-5.091-.01-7.455-.05-2.623-.15-5.08-.29-7.356-.06-.753-.11-1.531-.17-2.33-.1-1.21-.2-2.465-.3-3.754-.06-.784-.13-1.573-.21-2.376-.03-.35-.06-.705-.1-1.065a2.074,2.074,0,0,0-.02-.256c-.04-.5-.09-.991-.13-1.495s-.1-.978-.15-1.472c-.08-.862-.16-1.741-.26-2.627-.41-4.134-.88-8.474-1.36-12.923-.16-1.394-.31-2.809-.47-4.226-.25-2.2-.5-4.414-.74-6.622-.17-1.426-.33-2.853-.49-4.277-2.44-21.451-4.74-41.989-3.92-48.507,1.41-11.286,56.07-41.074,56.07-41.074l32.81-1.031s46.05,18.551,54.55,29.749c.05.055.08.112.13.163,1.92,2.638,3.14,6.3,3.83,10.833a87.556,87.556,0,0,1,.8,13.84c-.02,3.709-.19,7.706-.43,11.945-.25,4.495-.59,9.264-.97,14.259-.11,1.453-.22,2.925-.34,4.414-.12,1.514-.23,3.041-.34,4.587-.08,1-.15,2.007-.23,3.018q-.3,4-.57,8.14c-.06.888-.12,1.786-.18,2.686-.03.566-.07,1.143-.1,1.713s-.07,1.166-.1,1.754v.011c-.03.54-.06,1.075-.09,1.613q-.06.879-.09,1.763c-.06,1.08-.12,2.162-.16,3.254-.05.9-.08,1.809-.12,2.716-.01.16-.02.329-.02.492-.03.586-.05,1.174-.06,1.756l-.01.306-.01.146c-.02.767-.05,1.547-.07,2.319-.03.928-.05,1.854-.08,2.777-.01.426-.01.865-.02,1.3-.01.383-.01.778-.02,1.166v.59c-.02.534-.02,1.069-.03,1.618-.01.911-.01,1.834-.01,2.779v1.495q0,3.922.08,8.191c.02,1.174.05,2.364.08,3.572.02,1.28.06,2.573.09,3.883.08,2.754.17,5.567.29,8.431.01.419.02.833.04,1.255.01.172.01.341.02.512.03.934.07,1.871.11,2.82.06,1.364.12,2.743.18,4.12q.09,2.237.3,4.737c.16,2.085.36,4.295.62,6.63.05.546.11,1.1.18,1.655.1.9.2,1.808.33,2.735.07.582.14,1.16.21,1.751q.075.559.15,1.124c.18,1.4.38,2.847.58,4.316.03.163.05.325.07.488.11.744.22,1.491.33,2.252.21,1.449.44,2.929.67,4.428.06.42.13.848.19,1.272q.6,3.828,1.28,7.845c.08.466.17.945.25,1.423.17,1.053.36,2.115.54,3.183.65,3.724,1.33,7.534,2.05,11.4.83,4.475,1.7,9.028,2.6,13.615.74,3.773,1.51,7.568,2.28,11.362,1.81,8.876,3.69,17.748,5.54,26.308A23.563,23.563,0,0,1,1574.07,759.483Z" transform="translate(-486.193 22)"/><path class="am" d="M1577.83,499.387a306.754,306.754,0,0,1-63.77,6.6q-4.785,0-9.09-.13c-27.13-.793-44.78-4.726-45.52-4.889l1.28-5.649,1.27-5.646h0c.35.078,17.66,3.887,43.62,4.619a297.556,297.556,0,0,0,68.25-5.9,2.022,2.022,0,0,1,.13.164C1575.92,491.191,1577.14,494.856,1577.83,499.387Z" transform="translate(-486.193 22)"/><path class="am" d="M1578.63,513.226c-.03,3.709-.19,7.706-.43,11.945a304.673,304.673,0,0,1-62.89,6.452c-4.36,0-8.45-.09-12.25-.24-27.11-1.061-44.72-5.169-45.45-5.344l2.66-11.271c.18.042,17.48,4.061,43.55,5.054A294.842,294.842,0,0,0,1578.63,513.226Z" transform="translate(-486.193 22)"/><path class="am" d="M1577.23,539.43c-.11,1.453-.22,2.925-.34,4.414-.11,1.514-.23,3.041-.34,4.587-.08,1-.15,2.006-.23,3.018a303.4,303.4,0,0,1-59.74,5.831c-5.56,0-10.72-.144-15.42-.372-27.09-1.334-44.65-5.619-45.39-5.8l2.78-11.244c.17.04,17.44,4.232,43.49,5.487A294.728,294.728,0,0,0,1577.23,539.43Z" transform="translate(-486.193 22)"/><path class="am" d="M1575.37,565.741v.012c-.03.542-.06,1.074-.09,1.613-.03.587-.06,1.173-.09,1.763-.06,1.08-.11,2.162-.16,3.254-.04.9-.08,1.808-.11,2.716-.01.159-.02.329-.02.492-.03.586-.05,1.174-.07,1.755l-.01.307a302.078,302.078,0,0,1-56.98,5.319c-6.76,0-13-.213-18.58-.546-27.08-1.6-44.59-6.063-45.32-6.249l2.89-11.213h0c.16.041,4.53,1.143,12.11,2.424a290.362,290.362,0,0,0,31.31,3.5A294.668,294.668,0,0,0,1575.37,565.741Z" transform="translate(-486.193 22)"/><path class="am" d="M1455.1,590.062l-1.5,5.592,1.51-5.592Zm119.57,9.97q-.075-4.266-.09-8.192a294.288,294.288,0,0,1-76.11,4.576c-25.92-1.767-43.05-6.272-43.36-6.354l-1.51,5.592-1.5,5.591c.73.194,18.2,4.831,45.26,6.7,6.44.449,13.75.75,21.75.75a300,300,0,0,0,55.63-5.094C1574.71,602.4,1574.69,601.205,1574.67,600.032Z" transform="translate(-486.193 22)"/><path class="am" d="M1575.77,629.361a297.707,297.707,0,0,1-55.4,5.092c-9.25,0-17.65-.407-24.92-.982-27.04-2.149-44.46-6.957-45.19-7.158l1.56-5.576,1.56-5.577h0c.28.078,17.37,4.759,43.3,6.792a293.628,293.628,0,0,0,78.5-4.268c.03.936.07,1.873.11,2.82.06,1.364.13,2.743.18,4.122Q1575.575,626.859,1575.77,629.361Z" transform="translate(-486.193 22)"/><path class="am" d="M1578.91,654.74a294.213,294.213,0,0,1-57.3,5.5c-10.49,0-19.97-.527-28.06-1.247-27.02-2.418-44.4-7.4-45.12-7.61l3.22-11.12v0c.17.05,17.25,4.928,43.24,7.226,20.44,1.81,50.15,2.293,82.37-4.226.18,1.4.38,2.847.59,4.315.02.164.04.325.07.489.1.743.22,1.491.32,2.252C1578.45,651.764,1578.68,653.241,1578.91,654.74Z" transform="translate(-486.193 22)"/><path class="am" d="M1583.22,679.867a289.732,289.732,0,0,1-60.38,6.185c-11.75,0-22.31-.66-31.2-1.542-27-2.689-44.33-7.843-45.05-8.064l3.34-11.086c.16.048,17.2,5.1,43.16,7.657,21.62,2.13,53.63,2.879,88.08-4.553C1581.82,672.188,1582.5,676,1583.22,679.867Z" transform="translate(-486.193 22)"/><path class="am" d="M1588.1,704.846a285.473,285.473,0,0,1-64.04,7.056,315.348,315.348,0,0,1-34.32-1.876c-26.98-2.959-44.27-8.288-44.99-8.512l1.73-5.529,1.72-5.527v0c.27.08,17.24,5.276,43.1,8.089,22.93,2.489,57.57,3.543,94.52-5.069C1586.56,697.255,1587.33,701.05,1588.1,704.846Z" transform="translate(-486.193 22)"/><path class="r" d="M1499.87,743.906c1.1-47.742-7.07-103.293-7-151.049.06-42.818,3.19-85.328,3.16-128.146-10.22.768-14.61,2.512-14.61,2.512s-9.76,8.334-41.55,18.691c-29.97,9.766-24.4,120.465-22.58,182.424s1.1,101.243,60.02,108.772c5.53.708,10.97,1.332,16.29,1.855C1493.69,764.8,1499.54,758.109,1499.87,743.906Z" transform="translate(-486.193 22)"/><path class="an" d="M1435.95,618.021a1.376,1.376,0,0,1-.29-2.72c.75-.162,18.44-4.188,24.54-25.363a1.373,1.373,0,1,1,2.64.759c-6.57,22.811-25.79,27.12-26.61,27.293A1.271,1.271,0,0,1,1435.95,618.021Z" transform="translate(-486.193 22)"/><path class="an" d="M1487.38,734.5a1.081,1.081,0,0,1-1.08-1.023c-4.74-85.49-8.52-169.058-2.67-251.541a1.088,1.088,0,0,1,2.17.154c-5.85,82.356-2.07,165.849,2.67,251.265a1.091,1.091,0,0,1-1.03,1.143C1487.42,734.5,1487.4,734.5,1487.38,734.5Z" transform="translate(-486.193 22)"/><path class="r" d="M1602.13,529.275c1.43-44.106-19.82-55.747-62.21-62.105-.17-.025-.33-.049-.5-.072a138.787,138.787,0,0,0,.05,21.96c.76,11.634,2.11,23.2,2.58,34.854,1.96,48.626,6.71,81.654,2.81,145.476-2.94,47.968,4.73,73.145,6.07,109.493,24.07-3.676,43.01-13.471,54.67-33.347C1627.48,708.245,1600.72,573.381,1602.13,529.275Z" transform="translate(-486.193 22)"/><path class="an" d="M1597.16,616.533a1.256,1.256,0,0,1-.31-.034c-.29-.065-28.47-6.982-33.24-47.976a1.383,1.383,0,0,1,1.21-1.522,1.36,1.36,0,0,1,1.52,1.206c4.55,39.087,30.86,45.553,31.12,45.612a1.375,1.375,0,0,1-.3,2.714Z" transform="translate(-486.193 22)"/><path class="an" d="M1554.17,726.658a1.074,1.074,0,0,1-1.07-.909c-1.99-12.07-1.23-44.45-.49-75.762.56-23.821,1.09-46.32.47-59.874-2.09-45.888-8.36-109.977-8.42-110.618a1.08,1.08,0,1,1,2.15-.213c.07.643,6.34,64.785,8.44,110.73.62,13.63.09,36.165-.47,60.026-.74,31.213-1.5,63.489.46,75.359a1.1,1.1,0,0,1-.9,1.246A1.2,1.2,0,0,1,1554.17,726.658Z" transform="translate(-486.193 22)"/><path class="ao" d="M1515.62,366.014l-20.84,7.571s-6.26,8.623-14.46,6.845c-3.28-.715-6.89-3.1-10.52-8.383-12.71-18.463,17.94-44.043,36.36-39.745,9.04,2.107,11.49,10.262,11.64,18.024A57.359,57.359,0,0,1,1515.62,366.014Z" transform="translate(-486.193 22)"/><path class="ap" d="M1515.62,366.014l-20.85,7.571s-6.25,8.623-14.45,6.845c0-9.562,13.42-27.046,37.47-30.1A57.128,57.128,0,0,1,1515.62,366.014Z" transform="translate(-486.193 22)"/><path class="ap" d="M1515.27,329.13a6.278,6.278,0,0,0-1.22.132,2.827,2.827,0,0,0-2.2,1.652c-1.88,4.055,2.07,13.713,4.89,19.418,1.75-6.329,3.84-16.909.89-20.243A2.984,2.984,0,0,0,1515.27,329.13Zm1.8,25.964a1.3,1.3,0,0,1-1.14-.671c-1-1.79-9.65-17.683-6.46-24.6a5.469,5.469,0,0,1,4.06-3.121c3.22-.641,5.07.548,6.05,1.656,5.13,5.794-.59,23.808-1.26,25.843a1.318,1.318,0,0,1-1.12.892A1.283,1.283,0,0,1,1517.07,355.094Z" transform="translate(-486.193 22)"/><path class="ap" d="M1532.9,335.562a2.427,2.427,0,0,0-.37.027c-4.42.587-9.76,9.958-12.58,15.886,5.87-2.471,15.17-7.189,16.41-11.48a2.844,2.844,0,0,0-.59-2.691A3.713,3.713,0,0,0,1532.9,335.562Zm-15.46,19.616a1.305,1.305,0,0,1-1.21-1.811c.83-1.976,8.28-19.347,15.95-20.371,1.47-.2,3.64.113,5.66,2.7a5.454,5.454,0,0,1,1.03,5.019c-2.11,7.324-19.06,13.68-20.98,14.382A1.341,1.341,0,0,1,1517.44,355.178Z" transform="translate(-486.193 22)"/><path class="ao" d="M1478.75,383.145c-4.56-.681-9.68-3.108-12.89-9.812-7.59-15.825,10.56-29.18,10.75-29.313a.829.829,0,0,1,.97,1.344c-.18.126-17.21,12.68-10.23,27.252,6.24,13,19.97,8.427,20.55,8.223a.829.829,0,0,1,.54,1.568A22.9,22.9,0,0,1,1478.75,383.145Z" transform="translate(-486.193 22)"/><path class="ao" d="M1539.14,385.1s8.14,34.163-3.16,56.276-22.65,28.136-6.43,35.005,34.69-6.215,47.08.59c14.96,8.214-1.81-60.728-9.29-89.9-7.65-29.854-43.98-33.195-43.98-33.195Z" transform="translate(-486.193 22)"/><path class="ao" d="M1560.65,409.648s14.54-33.3-12.72-48.969-54.79-3.836-62.13,14.209,3.9,29.914,3.9,29.914Z" transform="translate(-486.193 22)"/><path class="aq" d="M1513.93,479.95c7.87,2.185,11.02-1.3,13.43-3.9l1.63-14.106.95-8.227.2-1.212-3.62-.4-26.69-7.7-3.61,16.948-1.71,8.035C1497.94,472.63,1502.5,476.774,1513.93,479.95Z" transform="translate(-486.193 22)"/><path class="ar" d="M1528.99,461.947c-8.27,3.729-24.58,2.035-32.77-.592a.345.345,0,0,1-.08-.023l3.69-16.924,26.69,7.7,3.62.4-.2,1.211Z" transform="translate(-486.193 22)"/><path class="as" d="M1550.78,409.853s15.85-4.606,12.74,9.395c-3.42,15.417-16.04,11.04-18.21,10.042Z" transform="translate(-486.193 22)"/><path class="x" d="M1539.4,435.459a10.753,10.753,0,1,0,14.68-8.368.18.18,0,0,0-.03.038c-.75.2-.91.78-.98,1.413a9.038,9.038,0,1,1-8.94,1.674,10.3,10.3,0,0,1,1.32-.94,7.544,7.544,0,0,1-1.15-1.308,9.458,9.458,0,0,0-1.23.9A10.611,10.611,0,0,0,1539.4,435.459Z" transform="translate(-486.193 22)"/><path class="at" d="M1552.55,424.713a.723.723,0,0,1-.09-.019.857.857,0,0,1-.61-1.05,14.072,14.072,0,0,1,6.97-9.247.862.862,0,1,1,.72,1.566,12.356,12.356,0,0,0-6.03,8.115A.86.86,0,0,1,1552.55,424.713Z" transform="translate(-486.193 22)"/><path class="at" d="M1558.22,421.853a.853.853,0,0,1-.6-.4c-.03-.038-1.09-1.72-2.6-1.739a.86.86,0,1,1,.02-1.719c2.47.025,3.98,2.457,4.05,2.56a.863.863,0,0,1-.87,1.3Z" transform="translate(-486.193 22)"/><path class="au" d="M1559.47,407.933a91.76,91.76,0,0,1-4.39,16.053q-1.275,3.449-2.78,6.668c-6.98,15.093-17.02,25.968-25.04,26.909-12.69,1.493-27.1-4.709-34.17-21.264a40.048,40.048,0,0,1-2.94-9.822c-.08-.534-.15-1.082-.22-1.641-2.07-17.2,2.29-41.721,2.29-41.721,10.41-15.534,32.78-11.394,45.76-9.258S1563.99,382.45,1559.47,407.933Z" transform="translate(-486.193 22)"/><path class="as" d="M1523.75,448.674a10.138,10.138,0,0,1-4.45-1.714.859.859,0,0,1,1.05-1.359,8.787,8.787,0,0,0,3.92,1.407,10.089,10.089,0,0,0,4.16-.276.86.86,0,0,1,.58,1.619,11.525,11.525,0,0,1-4.95.365C1523.96,448.7,1523.86,448.689,1523.75,448.674Z" transform="translate(-486.193 22)"/><path class="av" d="M1475.43,613.759a1.306,1.306,0,0,1-1.24-.906,123.3,123.3,0,0,1-3.21-12.525,1.3,1.3,0,1,1,2.56-.506,124.887,124.887,0,0,0,3.14,12.225,1.316,1.316,0,0,1-.84,1.647A1.33,1.33,0,0,1,1475.43,613.759Z" transform="translate(-486.193 22)"/><path class="av" d="M1482.42,611.416a1.3,1.3,0,0,1-1.24-.888,124.714,124.714,0,0,1-3.38-12.477,1.308,1.308,0,0,1,2.56-.542,123.957,123.957,0,0,0,3.29,12.178,1.3,1.3,0,0,1-.81,1.658A1.378,1.378,0,0,1,1482.42,611.416Z" transform="translate(-486.193 22)"/><path class="av" d="M1489.4,609.073a1.3,1.3,0,0,1-1.23-.872,124.541,124.541,0,0,1-3.54-12.428,1.307,1.307,0,1,1,2.55-.573,124.883,124.883,0,0,0,3.45,12.129,1.307,1.307,0,0,1-1.23,1.744Z" transform="translate(-486.193 22)"/><path class="av" d="M1496.38,606.73a1.319,1.319,0,0,1-1.23-.855,124.492,124.492,0,0,1-3.7-12.379,1.306,1.306,0,1,1,2.54-.607c.02.064,1.58,6.554,3.62,12.08a1.313,1.313,0,0,1-1.23,1.761Z" transform="translate(-486.193 22)"/><path class="av" d="M1503.37,604.388a1.317,1.317,0,0,1-1.23-.839,121.588,121.588,0,0,1-3.86-12.33,1.3,1.3,0,1,1,2.53-.641c.02.063,1.66,6.533,3.77,12.033a1.3,1.3,0,0,1-.75,1.689A1.271,1.271,0,0,1,1503.37,604.388Z" transform="translate(-486.193 22)"/><path class="av" d="M1510.34,602.046a1.307,1.307,0,0,1-1.21-.824,125.728,125.728,0,0,1-4.03-12.282,1.3,1.3,0,1,1,2.52-.673,125.384,125.384,0,0,0,3.94,11.985,1.31,1.31,0,0,1-1.22,1.794Z" transform="translate(-486.193 22)"/><path class="av" d="M1517.33,599.7a1.306,1.306,0,0,1-1.21-.807,127.307,127.307,0,0,1-4.2-12.232,1.309,1.309,0,0,1,2.52-.708,124.622,124.622,0,0,0,4.09,11.938,1.307,1.307,0,0,1-.7,1.708A1.351,1.351,0,0,1,1517.33,599.7Z" transform="translate(-486.193 22)"/><path class="aw" d="M1554.95,460.328a37.993,37.993,0,0,1-2.06,10c-.3.814-.63,1.611-1,2.391v0a23.018,23.018,0,0,1-8.88,10.009s-20.31,8.633-44.23-1.962h-.01q-2.025-.9-4.11-2c-1.21-.639-2.41-1.329-3.63-2.073-10.39-6.366-14.51-14.945-15.64-23.115-.1-.729-.17-1.449-.23-2.174a46.361,46.361,0,0,1,1.6-15.325c.08-.274.15-.544.23-.8a45.147,45.147,0,0,1,2.52-6.9,55.581,55.581,0,0,1,12.43-3.41,42.561,42.561,0,0,1,8.58-.473,27.4,27.4,0,0,1,9.97,2.293c22.68,10.35,34.17,14.972,40.75,6.088a73.654,73.654,0,0,1,2.19,8.285c.15.707.29,1.443.43,2.212.39,2.111.73,4.44.96,6.9A60.076,60.076,0,0,1,1554.95,460.328Z" transform="translate(-486.193 22)"/><path class="ax" d="M1553.86,443.369c-.3.468-.64.942-1.01,1.413-2.88,3.631-8.46,7.811-18.94,7.811-.64,0-1.3-.015-1.98-.049-10.17-.485-18.09-4.681-25.75-8.737-9.15-4.84-17.79-9.416-29.26-7l-.16-.73-.15-.731c.13-.024.26-.051.38-.074,11.8-2.352,20.59,2.3,29.89,7.218,7.52,3.977,15.29,8.094,25.12,8.56,8.91.43,15.51-1.974,19.63-7.138a17.462,17.462,0,0,0,1.8-2.754C1553.58,441.863,1553.72,442.6,1553.86,443.369Z" transform="translate(-486.193 22)"/><path class="ax" d="M1552.88,470.324a23.312,23.312,0,0,1-1,2.391v0a38.717,38.717,0,0,1-13.62,4.468,64.564,64.564,0,0,1-9.65.675,100.078,100.078,0,0,1-14.5-1.141,155.6,155.6,0,0,1-28.9-7.353l.53-1.4a154.022,154.022,0,0,0,28.62,7.273C1526.57,477.039,1542.4,477.418,1552.88,470.324Z" transform="translate(-486.193 22)"/><path class="aw" d="M1517.02,589.994l-45.98,15.017s-.61-2.68-1.55-7.237c-.21-1.015-.44-2.128-.68-3.324-.65-3.235-1.4-7.094-2.19-11.4-.19-1.092-.39-2.208-.59-3.355-.64-3.6-1.3-7.455-1.93-11.483-.18-1.117-.35-2.244-.53-3.387-.57-3.766-1.12-7.65-1.62-11.592-.15-1.143-.29-2.29-.43-3.442-.48-3.9-.89-7.834-1.24-11.735-.11-1.168-.21-2.333-.29-3.5-.32-4.065-.55-8.072-.67-11.946-.03-1.192-.06-2.372-.07-3.537-.06-4.34.05-8.479.36-12.3.1-1.253.23-2.466.37-3.642.1-.852.22-1.685.35-2.495a67.984,67.984,0,0,1,2.44-10.333q.63-1.962,1.35-3.754c8.51-21.381,25.23-25.595,25.23-25.595,12.38,1.229,17.82,14.46,17.82,14.46a23.046,23.046,0,0,0-5.75,9.95c-.34,1.058-.63,2.161-.88,3.3a60.34,60.34,0,0,0-1.3,10c-.07,1.11-.1,2.242-.12,3.389-.06,3.343.06,6.839.31,10.431.08,1.122.17,2.25.28,3.386.32,3.459.76,6.989,1.29,10.532.16,1.13.34,2.254.52,3.382.58,3.526,1.23,7.055,1.94,10.538.22,1.12.46,2.232.7,3.343.76,3.581,1.57,7.1,2.41,10.489.27,1.105.54,2.2.82,3.271.92,3.642,1.86,7.117,2.76,10.344.31,1.109.62,2.193.92,3.241,1.12,3.87,2.17,7.3,3.06,10.15q.555,1.761,1.02,3.208C1516.3,587.944,1517.02,589.994,1517.02,589.994Z" transform="translate(-486.193 22)"/><path class="ax" d="M1501.41,485.37c-.33,1.057-.62,2.158-.88,3.3-8.14-1-22.92-1.938-37.77,1.638q.63-1.963,1.35-3.754a101.886,101.886,0,0,1,20.31-2.186A123.12,123.12,0,0,1,1501.41,485.37Z" transform="translate(-486.193 22)"/><path class="ax" d="M1499.23,498.675c-.06,1.109-.1,2.241-.12,3.388-9.71-.417-24.97-.025-39.5,4.714.1-1.251.22-2.464.37-3.642a110.052,110.052,0,0,1,26.78-4.441C1491.46,498.474,1495.7,498.521,1499.23,498.675Z" transform="translate(-486.193 22)"/><path class="ax" d="M1499.71,515.88c-10.37.175-25.94,1.472-40.39,6.737-.04-1.193-.06-2.374-.08-3.54a122.819,122.819,0,0,1,29.85-6.057c3.79-.318,7.28-.468,10.34-.523C1499.51,513.617,1499.6,514.745,1499.71,515.88Z" transform="translate(-486.193 22)"/><path class="ax" d="M1501.52,529.795c-10.71.721-26.65,2.737-41.24,8.262-.11-1.17-.2-2.334-.29-3.5,14.67-5.435,30.32-7.429,41.01-8.147C1501.16,527.541,1501.34,528.667,1501.52,529.795Z" transform="translate(-486.193 22)"/><path class="ax" d="M1504.15,543.675c-10.88,1.233-27.31,3.9-42.21,9.559-.14-1.143-.29-2.29-.43-3.444,14.97-5.6,31.09-8.233,41.95-9.458C1503.68,541.454,1503.92,542.566,1504.15,543.675Z" transform="translate(-486.193 22)"/><path class="ax" d="M1507.39,557.437c-10.92,1.721-27.93,5.053-43.29,10.775-.18-1.116-.35-2.244-.53-3.387,15.31-5.622,32.08-8.925,43-10.662C1506.84,555.27,1507.11,556.36,1507.39,557.437Z" transform="translate(-486.193 22)"/><path class="ax" d="M1511.08,571.022c-10.79,2.2-28.49,6.261-44.45,12.027q-.3-1.635-.6-3.353c15.89-5.69,33.33-9.709,44.13-11.917C1510.47,568.888,1510.78,569.972,1511.08,571.022Z" transform="translate(-486.193 22)"/><path class="ax" d="M1515.15,584.379c-10.45,2.63-28.95,7.562-45.66,13.395-.21-1.016-.44-2.128-.68-3.325,16.61-5.774,34.86-10.64,45.32-13.278Q1514.685,582.93,1515.15,584.379Z" transform="translate(-486.193 22)"/><path class="ay" d="M1498.78,480.766h-.01a7.9,7.9,0,0,1-1.05-.128,5.725,5.725,0,0,1-3.06-1.875c-7.91-8.528-9.94-42.183-9.94-42.183s2.96-7.324,7.22-11.613a42.517,42.517,0,0,1,8.58-.473c.61,6.32,2.74,26.468,5.21,32.012C1508.58,462.873,1508.21,481.27,1498.78,480.766Z" transform="translate(-486.193 22)"/><path class="ax" d="M1554.95,460.328c-11.56,8.966-36.77,3.8-59.79-2.98a92.971,92.971,0,0,0-19.77-3.771c-.09-.729-.17-1.451-.23-2.174,10.01.626,23.42,3.438,40.03,7.212,24.63,5.593,35.85-3.848,39.63-8.347A59.012,59.012,0,0,1,1554.95,460.328Z" transform="translate(-486.193 22)"/><path class="ar" d="M1538.25,414.722c-.38,2.43.41,4.574,1.76,4.787s2.78-1.586,3.16-4.019a7.191,7.191,0,0,0-.06-2.636,3.388,3.388,0,0,0,3.45-.9,16.331,16.331,0,0,1-4.61-1.037c-.34-.127-.55-.209-.55-.209C1540.04,410.488,1538.64,412.286,1538.25,414.722Z" transform="translate(-486.193 22)"/><path class="ar" d="M1541.4,410.7s.21.082.55.21A1.429,1.429,0,0,0,1541.4,410.7Z" transform="translate(-486.193 22)"/><path class="az" d="M1555.08,423.986c-.85,2.3-1.78,4.526-2.77,6.668a23.452,23.452,0,0,1-3.47-.238c-5.4-.763-9.52-3.125-9.22-5.274s4.93-3.267,10.32-2.506A21.442,21.442,0,0,1,1555.08,423.986Z" transform="translate(-486.193 22)"/><path class="az" d="M1515.48,420.925c-.31,2.172-4.97,3.3-10.42,2.532s-9.62-3.159-9.31-5.331,4.97-3.3,10.42-2.532S1515.79,418.753,1515.48,420.925Z" transform="translate(-486.193 22)"/><path class="aq" d="M1492.98,407.194a5.577,5.577,0,0,0-2.26-5.315c-4.15-3.026-9.72-4.74-12.48.76-5.13,10.21,4.18,23.891,12.23,22.089Z" transform="translate(-486.193 22)"/><path class="as" d="M1494.67,424.057c-.16.145-.31.284-.47.411a9.429,9.429,0,0,1-1.41.978,10.24,10.24,0,0,1-2.63,1.033c-.09-.539-.16-1.085-.22-1.644a8.458,8.458,0,0,0,1.86-.673,7.714,7.714,0,0,0,1.49-.915c.19-.15.38-.314.56-.483a.6.6,0,0,1,.96.137A.943.943,0,0,1,1494.67,424.057Z" transform="translate(-486.193 22)"/><path class="as" d="M1486.88,417.63a.852.852,0,0,1-.73-.871,13.916,13.916,0,0,0-4.25-10.608.861.861,0,0,1,1.09-1.333,15.393,15.393,0,0,1,4.88,11.981.866.866,0,0,1-.88.839A.857.857,0,0,1,1486.88,417.63Z" transform="translate(-486.193 22)"/><path class="as" d="M1481.38,412.8a.843.843,0,0,1-.52-.289.858.858,0,0,1,.09-1.211c.1-.088,2.52-2.147,5.23-1.429a.861.861,0,0,1-.44,1.665c-1.83-.483-3.65,1.051-3.67,1.067A.863.863,0,0,1,1481.38,412.8Z" transform="translate(-486.193 22)"/><path class="as" d="M1531.96,423.925h0Zm-4.31,4.344a.862.862,0,0,1-.23-1.64,16.4,16.4,0,0,0,4.52-2.841c-.3-1.569-1.46-7.8-1.88-10.085a.86.86,0,0,1,1.69-.316c.44,2.358,1.66,8.921,1.91,10.22.08.449.34,1.813-5.52,4.588A.846.846,0,0,1,1527.65,428.269Z" transform="translate(-486.193 22)"/><path class="ar" d="M1516.72,411.505c-.35,2.436-1.73,4.255-3.09,4.064s-2.18-2.328-1.83-4.766a7,7,0,0,1,.82-2.5,3.4,3.4,0,0,1-3.04-1.875,16.437,16.437,0,0,0,4.72.358c.36-.023.58-.042.58-.042C1516.24,406.933,1517.07,409.063,1516.72,411.505Z" transform="translate(-486.193 22)"/><path class="ar" d="M1514.89,406.741s-.22.019-.59.04A1.457,1.457,0,0,1,1514.89,406.741Z" transform="translate(-486.193 22)"/><path class="ba" d="M1550.68,410.833a17.782,17.782,0,0,0-1.83-2.944,17.1,17.1,0,0,0-2.35-2.488,12.909,12.909,0,0,0-2.72-1.845,12.391,12.391,0,0,0-2.97-1.063l-.1-.025a2.023,2.023,0,0,1,1.01-3.917,2.043,2.043,0,0,1,.36.133,16.06,16.06,0,0,1,6.3,4.969,19.017,19.017,0,0,1,2.03,3.275,18.448,18.448,0,0,1,1.33,3.562.55.55,0,0,1-.4.677.556.556,0,0,1-.64-.3Z" transform="translate(-486.193 22)"/><path class="ba" d="M1504.33,403.454a21.411,21.411,0,0,1,2.9-3.188,21.775,21.775,0,0,1,3.51-2.586,18.244,18.244,0,0,1,8.66-2.57,2.019,2.019,0,0,1,.26,4.03,2.14,2.14,0,0,1-.33-.005l-.13-.014a14.393,14.393,0,0,0-3.66-.036,14.98,14.98,0,0,0-3.68.9,19.793,19.793,0,0,0-6.66,4.167l-.04.028a.549.549,0,0,1-.78-.017A.564.564,0,0,1,1504.33,403.454Z" transform="translate(-486.193 22)"/><path class="ao" d="M1503.35,381.183s15.96,21.778,53.24,20.713c20.06-.572,2.64-31.892-27.26-33.653S1503.35,381.183,1503.35,381.183Z" transform="translate(-486.193 22)"/><path class="ar" d="M1556.69,398.488s2.24,16.608-1.61,25.5c0,0,7.21-14.867,4.96-24.264S1556.69,398.488,1556.69,398.488Z" transform="translate(-486.193 22)"/><path class="ao" d="M1513.35,381.248s-17.77,30.291-13.42,54.743,10.69,43.916-6.84,45.741c-17.34,1.809-28.84-5-44.38,1.138h0c-.16.066-.32.129-.49.2a4.441,4.441,0,0,1-1.1.313c-2.69.346-3.21-3.164-2.2-9.155.36-2.119.9-4.542,1.61-7.218,3.27-12.39,10-30.117,17.31-47.154,5.74-13.38,11.84-26.335,16.91-35.943,1.84-3.5,3.56-6.55,5.06-9.024,16.04-26.312,51.76-18.893,51.76-18.893Z" transform="translate(-486.193 22)"/><path class="ao" d="M1481.81,385.062c-.16.3-9.21,16.94-17.97,34.791-7.16,14.564-14.12,29.939-15.92,37.907a60.749,60.749,0,0,0-1.4,9.249c-.58,8.745,1.31,13.954,2.19,15.86-.16.066-.33.131-.49.2a4.341,4.341,0,0,1-1.11.314,28.411,28.411,0,0,1-2.19-9.155,53.816,53.816,0,0,1,1.38-16.832c4.06-17.959,32.84-70.882,34.06-73.126a.847.847,0,0,1,.38-.355.819.819,0,0,1,.74.026A.828.828,0,0,1,1481.81,385.062Z" transform="translate(-486.193 22)"/><g class="bb" transform="translate(-486.193 22)"><g class="bb"><g class="bb"><g class="bb"><g class="bb"><g class="bb"><path class="bc" d="M1534.44,401.942s-19.36-5.879-24.87,15.4,13.57,30.834,25.67,28.495S1555.31,405.551,1534.44,401.942Z"/></g></g></g></g></g></g><path class="x" d="M1515.13,399.681a13.13,13.13,0,1,0,13.13,13.131A13.137,13.137,0,0,0,1515.13,399.681Zm0,28.066a14.936,14.936,0,1,1,14.94-14.935A14.951,14.951,0,0,1,1515.13,427.747Z" transform="translate(-486.193 22)"/><path class="x" d="M1548.22,406.392a13.13,13.13,0,1,0,13.13,13.128A13.136,13.136,0,0,0,1548.22,406.392Zm0,28.066a14.937,14.937,0,1,1,14.94-14.938A14.952,14.952,0,0,1,1548.22,434.458Z" transform="translate(-486.193 22)"/><path class="x" d="M1534.14,415.642c-1.59-2.453-4.53-1.415-4.65-1.369l-.62-1.7a5.739,5.739,0,0,1,6.78,2.081Z" transform="translate(-486.193 22)"/><path class="ax" d="M1557.89,758.712c-4.18,3-9.87,11.961-19.76,15.106C1481.95,791.694,1429.52,757,1429.52,757c-3.11-15.386-1.18-32.867,4-39.267a5.648,5.648,0,0,1-.55-4.991l-24.74-45.863c.6.377,38.81,24.53,67.12,41.641h.01c8.16,4.928,15.49,9.272,20.87,12.29,8.2,4.6,18.67,5.055,28.93,3.642,19.99-2.763,39.18-12.615,39.18-12.615s47.84-28.21,59.91-27.236C1633.64,685.354,1599.67,737.118,1557.89,758.712Z" transform="translate(-486.193 22)"/><path class="x" d="M1452.08,805.116s-3.02.567-7.94,1.575c-1.4.287-2.95.605-4.63.96-2.22.47-4.67.995-7.28,1.575-1.48.329-3.02.675-4.61,1.035-19.69,4.486-45.77,11.31-56.28,17.982-.73.467-1.45.931-2.13,1.4-16,10.759-19.28,20.05-22.25,18.165-3.09-1.963-3.79-10.019,1.27-15.316,3.5-3.67,5.95-9.024,10.64-14.811a53.52,53.52,0,0,1,4.37-4.768c7.35-7.083,19.12-14.4,25.69-20.03.42-.362.82-.719,1.2-1.067,5.41-4.987,7.52-15.249,17.38-18.368,4.82-1.522,10.6-.929,16.18.542.99.26,1.97.551,2.94.859,1.45.464,2.87.974,4.24,1.5,1.89.74,3.68,1.517,5.31,2.28,1.57.73,2.99,1.446,4.22,2.088,2.97,1.554,4.8,2.709,4.8,2.709Z" transform="translate(-486.193 22)"/><path class="bd" d="M1423.68,773.987c-5.83,7.632-19.26,22.221-34.76,18.894.42-.363.83-.719,1.2-1.068,5.41-4.987,7.52-15.249,17.39-18.369C1412.33,771.923,1418.11,772.518,1423.68,773.987Z" transform="translate(-486.193 22)"/><path class="bd" d="M1369.21,829.639c-16.01,10.759-19.28,20.05-22.25,18.167-3.1-1.963-3.79-10.021,1.27-15.318,3.5-3.67,5.95-9.022,10.64-14.809C1362.83,820.488,1367.04,824.47,1369.21,829.639Z" transform="translate(-486.193 22)"/><path class="bd" d="M1444.14,806.691c-1.4.285-2.95.605-4.63.96-2.91-5.321-4.38-11.81-4.29-19.212a60.62,60.62,0,0,1,.96-9.812c1.56.731,2.99,1.446,4.22,2.088a54.934,54.934,0,0,0-.66,7.813C1439.67,794.361,1440.63,801.041,1444.14,806.691Z" transform="translate(-486.193 22)"/><path class="bd" d="M1430.86,776.347c-1.36-.527-2.78-1.037-4.23-1.5a60.438,60.438,0,0,0-2.9,12.752c-.99,8.775.35,16.481,3.89,22.662,1.58-.359,3.12-.705,4.61-1.034C1424.75,797.76,1428.86,782.222,1430.86,776.347Z" transform="translate(-486.193 22)"/><path class="aw" d="M1688.23,721.855c-21.09,25.756-68.5,52.1-119.22,67.39-17.61,5.308-32.73,9.292-45.63,12.278-10.16,2.356-18.95,4.087-26.49,5.352-29.13,4.886-39.84,2.851-39.84,2.851s-17.97-5.78-10.27-34.977c0,0,34.08-7.832,60.48-20.882a114.616,114.616,0,0,0,14.84-8.614q1.545-1.082,3.06-2.2c24.54-17.974,45.52-42.388,100.82-64.457,0,0,28.92-17.564,52.17-9.688a32.135,32.135,0,0,1,9.71,5.2C1704.71,687.366,1702.47,704.477,1688.23,721.855Z" transform="translate(-486.193 22)"/><path class="ax" d="M1584.95,781.354l-11,1.51-66.68-29a115.414,115.414,0,0,0,14.84-8.614c1.02-.721,2.05-1.453,3.06-2.2Z" transform="translate(-486.193 22)"/><path class="ax" d="M1523.39,801.522c-10.16,2.357-18.95,4.087-26.5,5.352-21.22-5.763-46.63-16.516-46.63-16.516l1.66-13.179Z" transform="translate(-486.193 22)"/><path class="ax" d="M1688.23,721.856c-17.4-23.394-13.95-42.983-10.08-52.945a32.348,32.348,0,0,1,9.72,5.2C1704.71,687.366,1702.47,704.477,1688.23,721.856Z" transform="translate(-486.193 22)"/><path class="ax" d="M1449.68,783.457c17.74-3.473,54.21-18.359,97.57-39.821,32.42-16.052,69.91-36.736,75.6-44.22,3.08-4.042,3.95-7.419,2.6-10.036-2.01-3.916-8.28-4.578-11.14-4.671a1.274,1.274,0,1,0-.09,2.546c2.81.1,7.68.791,8.97,3.292,1.07,2.079-.7,5.132-2.37,7.326-4.59,6.037-36,24.321-74.7,43.479-33.33,16.5-76.29,35.564-96.93,39.606Z" transform="translate(-486.193 22)"/><path class="ax" d="M1453.51,771.111c1.32,15.576,4.74,29.831,13.03,41,0,0-7.72,5.078-14.4.915-5.11-3.18-14.16-27.807-9.76-40.561C1446.85,770.265,1450.66,769.592,1453.51,771.111Z" transform="translate(-486.193 22)"/><path class="x" d="M1575.63,811.405s2.98.761,7.82,2.09c1.38.376,2.91.8,4.56,1.261,2.19.614,4.59,1.3,7.16,2.048,1.46.426,2.98.871,4.53,1.333,19.36,5.767,44.94,14.283,54.98,21.624.71.518,1.39,1.027,2.05,1.537,15.26,11.782,17.92,21.265,21,19.581,3.23-1.755,4.44-9.75-.25-15.366-3.26-3.892-5.35-9.394-9.66-15.478a53.184,53.184,0,0,0-4.05-5.042c-6.87-7.55-18.13-15.621-24.32-21.667-.39-.388-.77-.771-1.13-1.145-5.07-5.329-6.5-15.706-16.14-19.466-4.71-1.833-10.52-1.62-16.17-.517-1.01.2-2.02.42-3,.666-1.48.369-2.93.783-4.33,1.221-1.93.614-3.77,1.274-5.45,1.926-1.61.628-3.08,1.248-4.35,1.811-3.06,1.354-4.96,2.385-4.96,2.385Z" transform="translate(-486.193 22)"/><path class="bd" d="M1606.01,782.2c5.32,8,17.76,23.433,33.45,21.128q-.6-.582-1.14-1.143c-5.06-5.331-6.5-15.707-16.14-19.467C1617.47,780.883,1611.67,781.1,1606.01,782.2Z" transform="translate(-486.193 22)"/><path class="bd" d="M1656.72,841.3c15.27,11.782,17.93,21.266,21.01,19.581,3.22-1.755,4.44-9.751-.26-15.367-3.25-3.891-5.34-9.393-9.65-15.477C1663.68,832.58,1659.22,836.281,1656.72,841.3Z" transform="translate(-486.193 22)"/><path class="bd" d="M1583.45,813.494c1.38.377,2.91.8,4.56,1.261,3.25-5.118,5.14-11.5,5.53-18.891a59.45,59.45,0,0,0-.31-9.852c-1.61.626-3.08,1.246-4.35,1.809a53.6,53.6,0,0,1,.15,7.84C1588.72,801.484,1587.32,808.085,1583.45,813.494Z" transform="translate(-486.193 22)"/><path class="bd" d="M1595.17,816.8c1.46.426,2.98.871,4.53,1.333,3.94-5.936,5.78-13.537,5.37-22.36a61.4,61.4,0,0,0-2.06-12.914c-1.48.369-2.93.784-4.33,1.221C1600.3,790.075,1603.39,805.849,1595.17,816.8Z" transform="translate(-486.193 22)"/><path class="aw" d="M1581.28,781.856c5.77,29.642-12.54,34.231-12.54,34.231s-27.28,3.357-110.37-27.759c-47.91-17.939-92.08-45.974-112.49-72.261-14.99-19.3-17.16-37.666,1.42-50.4a33.775,33.775,0,0,1,14.06-5.4c22.99-3.608,50.16,11.865,50.16,11.865,55.95,26.7,41.94,35.873,88.61,65.6C1526.81,754.726,1581.28,781.856,1581.28,781.856Z" transform="translate(-486.193 22)"/><path class="ax" d="M1361.36,660.265c.89,10.022,2.42,43.535-15.48,55.8-14.99-19.3-17.16-37.666,1.42-50.4A33.827,33.827,0,0,1,1361.36,660.265Z" transform="translate(-486.193 22)"/><path class="ax" d="M1577.82,790.356c-17.47-4.625-52.89-21.865-94.75-46.117-31.31-18.138-67.36-41.231-72.55-49.07-2.8-4.236-3.46-7.663-1.94-10.184,2.27-3.778,8.56-4.027,11.42-3.934a1.275,1.275,0,0,1-.07,2.549c-2.81-.084-7.72.285-9.17,2.7-1.2,2,.36,5.163,1.88,7.464,4.19,6.322,34.34,26.624,71.71,48.273,32.17,18.64,73.8,40.477,94.12,45.858Z" transform="translate(-486.193 22)"/><path class="ax" d="M1574.8,777.786c-2.34,15.459-6.68,29.456-15.68,40.061,0,0,7.37,5.572,14.31,1.856,5.3-2.837,15.94-26.82,12.39-39.834C1581.5,777.378,1577.75,776.459,1574.8,777.786Z" transform="translate(-486.193 22)"/><path class="r" d="M1658.58,659.719c-6.21,7.938-14.76,12.379-21.56,16.92-16.34,10.926-49.49,17.834-47-19.8s30.97-22.383,10.02-88.483c-8.94-28.2-15.1-86.338-15.1-86.338s46.8,32.784,74.49,113.639a164.954,164.954,0,0,1,4.97,17.3C1669.75,636.828,1665.72,650.586,1658.58,659.719Z" transform="translate(-486.193 22)"/><path class="an" d="M1658.57,659.719c-10.15-18.127-1.73-36.046,5.83-46.763C1669.75,636.828,1665.72,650.586,1658.57,659.719Z" transform="translate(-486.193 22)"/><path class="an" d="M1589.91,663.572a1.12,1.12,0,0,1-1.09-.887c-.07-.321-1.64-7.98,1.48-18.162,2.87-9.348,10.43-22.648,30.17-32.919a1.119,1.119,0,1,1,1.03,1.987c-18.98,9.884-26.26,22.569-29.02,31.472a37.809,37.809,0,0,0-1.47,17.156,1.12,1.12,0,0,1-.86,1.328A1.15,1.15,0,0,1,1589.91,663.572Z" transform="translate(-486.193 22)"/><path class="an" d="M1606.92,622.561a1.168,1.168,0,0,1-.47-.053,1.113,1.113,0,0,1-.7-1.419,132.218,132.218,0,0,1,6.05-15.635,1.121,1.121,0,0,1,2,1.014,131.972,131.972,0,0,0-5.93,15.334A1.13,1.13,0,0,1,1606.92,622.561Z" transform="translate(-486.193 22)"/><path class="an" d="M1608.18,617.636a1.126,1.126,0,0,1-1.12-1.12c0-22.03-29.43-71.907-29.73-72.41a1.122,1.122,0,1,1,1.93-1.144c1.22,2.069,30.04,50.914,30.04,73.554A1.119,1.119,0,0,1,1608.18,617.636Z" transform="translate(-486.193 22)"/><path class="an" d="M1587.35,561.025a1.1,1.1,0,0,1-.67-.223c-3.81-2.847-13.45-5.365-13.55-5.389a1.12,1.12,0,0,1,.56-2.169c.41.107,10.16,2.652,14.33,5.763a1.126,1.126,0,0,1,.22,1.569A1.108,1.108,0,0,1,1587.35,561.025Z" transform="translate(-486.193 22)"/><path class="be" d="M1573.63,718.348c.18,1.99.35,4.068.59,5.746.46,3.17,1.18,4.905,2.76,1.89a11.608,11.608,0,0,0,.87-2.543c1.35-5.815.91-16.051,1.54-18.282a108.5,108.5,0,0,1,3.92-10.152,36.831,36.831,0,0,0-1.62,7.429c-.15,2.55,0,5.65,0,11.93a49.888,49.888,0,0,0,.45,7.63V722c.44,2.662,1.3,4.018,2.9,2.172a9.5,9.5,0,0,0,1.61-4.394c.86-4.905.55-11.831,1.01-14.1a42.574,42.574,0,0,1,3.23-8.258,27.115,27.115,0,0,0-1.46,6.927c-.36,2.87-1.03,10.505-.32,13.927.3,1.476.86,2.172,1.82,1.364a11.7,11.7,0,0,0,3.25-5.225,35.188,35.188,0,0,0,1.53-7.687,19.346,19.346,0,0,1,2.51-7.956c-1.1,5.331-1.7,10.487-1.38,13.15.23,1.883.92,2.518,2.22,1.086,2.54-2.788,5.1-12.007,5.98-15.474a1.958,1.958,0,0,0,.08-.313,2.021,2.021,0,0,0,.08-.29c.12-.464.18-.728.18-.728l.01-.006a83,83,0,0,1,2.37-8.364c1.45-3.844,3.6-7.027,7.73-8.558,9.37-3.486,6.49-21.318-6.65-22.389a15.144,15.144,0,0,0-10.62,3.349c-1.91,1.524-4.61,3.652-7.34,5.738l-.01.006c-.26.335-8.81,10.92-11.48,17.514-2.72,6.694-5.03,17.269-5.55,20.3A63.763,63.763,0,0,0,1573.63,718.348Z" transform="translate(-486.193 22)"/><path class="r" d="M1367.05,668.514c6.24,8.139,14.85,12.694,21.68,17.351,16.44,11.2,49.8,18.285,47.29-20.309s-31.15-22.95-10.08-90.732c9-28.919,10.08-86.552,10.08-86.552s-41.97,31.636-69.83,114.548a170.337,170.337,0,0,0-5,17.743C1355.8,645.042,1359.86,659.149,1367.05,668.514Z" transform="translate(-486.193 22)"/><path class="an" d="M1367.3,670.1c10.16-18.129,1.74-36.046-5.82-46.763C1356.13,647.208,1360.16,660.966,1367.3,670.1Z" transform="translate(-486.193 22)"/><path class="an" d="M1435.96,673.952a1.122,1.122,0,0,0,1.1-.887c.07-.321,1.64-7.98-1.49-18.162-2.86-9.348-10.43-22.647-30.16-32.921a1.12,1.12,0,1,0-1.03,1.989c18.98,9.882,26.25,22.569,29.02,31.472a37.81,37.81,0,0,1,1.47,17.156,1.113,1.113,0,0,0,.86,1.328A1.132,1.132,0,0,0,1435.96,673.952Z" transform="translate(-486.193 22)"/><path class="an" d="M1418.96,632.94a1.1,1.1,0,0,0,.47-.053,1.127,1.127,0,0,0,.71-1.419,130.862,130.862,0,0,0-6.06-15.635,1.122,1.122,0,0,0-2,1.016,131.722,131.722,0,0,1,5.93,15.333A1.129,1.129,0,0,0,1418.96,632.94Z" transform="translate(-486.193 22)"/><path class="an" d="M1417.7,628.015a1.119,1.119,0,0,0,1.12-1.12c0-22.029,29.44-71.907,29.73-72.409a1.117,1.117,0,1,0-1.92-1.143c-1.23,2.067-30.05,50.912-30.05,73.552A1.119,1.119,0,0,0,1417.7,628.015Z" transform="translate(-486.193 22)"/><path class="an" d="M1438.53,571.405a1.09,1.09,0,0,0,.67-.224c3.81-2.847,13.45-5.363,13.55-5.388a1.121,1.121,0,0,0-.56-2.17c-.42.106-10.17,2.653-14.33,5.764a1.119,1.119,0,0,0,.67,2.018Z" transform="translate(-486.193 22)"/><path class="be" d="M1452.25,728.727c-.18,1.991-.35,4.07-.59,5.745-.46,3.17-1.18,4.907-2.76,1.892a11.618,11.618,0,0,1-.87-2.544c-1.35-5.816-.91-16.052-1.53-18.281-.71-2.537-3.67-9.745-3.93-10.152a36.842,36.842,0,0,1,1.62,7.429c.15,2.548,0,5.65,0,11.93a49.873,49.873,0,0,1-.45,7.63v.006c-.44,2.663-1.3,4.019-2.9,2.172a9.613,9.613,0,0,1-1.61-4.4c-.86-4.9-.55-11.832-1-14.1a43.017,43.017,0,0,0-3.24-8.256,27.115,27.115,0,0,1,1.46,6.927c.36,2.868,1.03,10.5.32,13.927-.3,1.476-.86,2.172-1.82,1.364a11.8,11.8,0,0,1-3.25-5.225,35.779,35.779,0,0,1-1.53-7.687,19.339,19.339,0,0,0-2.51-7.957c1.1,5.333,1.71,10.488,1.38,13.149-.23,1.885-.92,2.518-2.22,1.086-2.54-2.786-5.1-12.006-5.98-15.471a2.023,2.023,0,0,1-.08-.314c-.04-.109-.05-.2-.08-.289-.12-.464-.18-.729-.18-.729l-.01-.007a80.569,80.569,0,0,0-2.37-8.363c-1.45-3.843-3.59-7.027-7.73-8.56-9.37-3.484-6.49-21.316,6.65-22.389a15.145,15.145,0,0,1,10.62,3.35c1.92,1.525,4.61,3.653,7.34,5.739l.01.006c.26.333,8.81,10.92,11.49,17.514,2.71,6.7,5.02,17.269,5.54,20.3A63.754,63.754,0,0,1,1452.25,728.727Z" transform="translate(-486.193 22)"/></g></svg>