<svg width="267" height="249" viewBox="0 0 267 249" fill="none" xmlns="http://www.w3.org/2000/svg">
<path d="M99.2976 236.075C84.9242 241.168 70.4113 243.521 54.9311 240.58C37.6768 237.3 22.711 222.534 14.2548 207.809C11.1129 202.339 8.61151 196.228 8.93838 189.93C9.69888 175.381 23.4437 173.755 35.1109 176.108C41.6877 177.432 47.7266 180.444 53.6969 183.427C63.6091 188.384 75.2363 190.822 84.1229 197.692C87.1048 200.004 89.3442 202.782 92.8092 204.464C98.1994 207.083 104.352 208.319 109.888 210.702C114.615 212.747 119.898 216.111 119.905 221.259C119.906 226.539 114.398 229.903 109.558 232.005C106.132 233.502 102.722 234.868 99.2976 236.075Z" fill="url(#paint0_linear)"/>
<path d="M46.3907 48.41C69.9369 13.71 118.626 -0.222703 158.092 12.8238C177.122 19.1181 193.071 32.2247 207.782 45.8306C220.748 57.8223 233.328 70.7565 242.183 86.1725C248.229 96.6952 252.557 109.309 255.613 121.085C260.181 138.717 256.032 161.436 233.24 159.771C227.892 159.381 223.266 157.458 218.264 155.776C214.219 154.412 210.254 155.23 206.054 154.564C195.481 152.89 185.296 148.997 175.665 144.438C156.037 135.138 138.103 122.503 117.917 114.353C101.375 107.683 83.7095 104.24 65.8732 104.208C58.3485 104.196 50.4365 104.722 43.7054 101.358C27.1152 93.0571 34.5757 70.675 40.7716 58.0842C42.4131 54.7305 44.2909 51.4976 46.3907 48.41Z" fill="url(#paint1_linear)"/>
<path d="M231.007 53.6475C234.883 57.1585 250.114 66.7432 250.407 55.4955C250.476 52.6934 249.205 49.9727 247.475 47.9206C245.497 45.5653 243.253 44.3298 241.708 41.5857C239.817 38.2724 237.665 35.1584 235.279 32.284C230.401 26.3012 224.706 20.7734 217.797 18.3105C212.95 16.5851 204.745 17.019 202.443 23.2302C199.089 32.2721 213.43 33.9289 217.803 37.224C221.954 40.343 224.304 45.7023 227.592 49.9615C228.631 51.3045 229.774 52.5384 231.007 53.6475Z" fill="url(#paint2_linear)"/>
<path d="M159.324 42.6499C167.535 47.4841 173.694 54.7201 181.18 60.5477C193.644 70.2486 210.727 72.2333 225.02 78.9796C239.594 85.8629 250.598 96.5601 255.574 111.978C262.002 131.879 262.613 155.545 257.152 176.004C251.137 198.525 237.014 213.484 216.363 223.46C195.725 233.431 172.862 238.084 150.059 239.044C147.859 239.138 145.662 239.189 143.456 239.203C93.919 239.491 27.9818 222.054 11.1164 168.839C10.9618 168.352 10.8136 167.866 10.6651 167.373C8.9272 161.444 7.9054 155.329 7.62146 149.157C6.56065 127.278 10.39 103.128 18.0608 82.617C23.2201 68.8082 34.3298 57.1323 46.0364 48.813C62.4842 37.1253 82.5529 34.1426 102.527 32.7403C117.318 31.7025 133.953 31.3233 147.94 36.9809C151.871 38.5835 155.676 40.4784 159.324 42.6499Z" fill="url(#paint3_linear)"/>
<path d="M190.966 233.12C127.471 251.582 77.419 235.142 58.8996 223.933L41.7029 210.745L47.6556 200.855L84.6946 197.558L146.206 194.261L195.812 204.152L205.31 199.322L207.004 216.822C209.262 230.371 207.568 226.984 190.966 233.12Z" fill="#FB4C47"/>
<path d="M72.9011 225.278H181.631C181.631 225.278 191.314 144.155 176.999 136.243C162.686 128.331 95.7527 129.985 80.9173 136.742C66.082 143.499 72.9011 225.278 72.9011 225.278Z" fill="#FB4C47"/>
<path d="M77.9216 119.157C77.7 119.157 77.476 119.075 77.3026 118.908C77.2062 118.819 67.8195 109.694 74.2917 93.629C76.5607 87.9958 78.6732 84.0387 80.5351 80.5493C83.8977 74.253 86.3257 69.7026 87.4409 59.6806C87.4963 59.1862 87.9492 58.839 88.4381 58.8824C88.9343 58.9379 89.2908 59.3864 89.2354 59.8807C88.0816 70.25 85.4537 75.1718 82.1297 81.4029C80.287 84.8513 78.2011 88.7627 75.9658 94.3042C69.9512 109.238 78.4564 117.512 78.5407 117.596C78.9044 117.939 78.9213 118.51 78.5768 118.872C78.401 119.06 78.1625 119.157 77.9216 119.157Z" fill="#000C3E"/>
<path d="M138.308 23.6795C138.05 30.5449 132.284 35.9031 125.426 35.6451C118.568 35.3871 113.216 29.6141 113.474 22.7487C113.732 15.8833 119.498 10.525 126.356 10.783C133.213 11.0411 138.566 16.8141 138.308 23.6795Z" fill="#000C3E"/>
<path d="M77.0869 114.341C77.0869 114.341 80.187 122.108 94.8464 125.812C109.506 129.516 121.545 124.971 132.709 129.953C143.876 134.937 160.824 130.698 164.451 126.111C168.076 121.525 171.203 68.0749 162.804 58.4749C154.405 48.8725 107.581 38.009 96.5687 47.7536C85.556 57.4983 71.0073 107.861 77.0869 114.341Z" fill="#000C3E"/>
<path d="M169.212 75.2881C168.364 97.9124 149.359 115.567 126.758 114.72C104.16 113.871 83.1843 93.8298 84.0322 71.2056C84.8776 48.5813 104.061 32.1569 126.659 33.0058C149.261 33.8522 170.06 52.6639 169.212 75.2881Z" fill="#000C3E"/>
<path d="M145.088 109.565C145.088 109.565 147.745 141.49 145.088 145.037C142.431 148.584 125.599 145.925 121.172 145.037C116.742 144.152 114.969 109.565 117.629 109.565C120.285 109.565 144.578 102.446 145.088 109.565Z" fill="#FFCEB0"/>
<path d="M94.859 72.2155C94.859 72.2155 96.5427 121.976 130.147 124.124C163.751 126.273 163.717 56.1624 151.556 49.4948C139.394 42.8247 88.6469 44.0762 94.859 72.2155Z" fill="#FFCEB0"/>
<path d="M134.794 82.8679C134.794 82.8679 141.211 98.183 139.561 99.1983C137.909 100.213 133.077 100.033 131.774 98.9065C130.47 97.7803 132.169 81.1534 134.794 82.8679Z" fill="#EE9B68"/>
<path d="M121.319 45.6792C121.319 45.6792 109.27 51.5125 106.977 62.4629C104.684 73.4157 105.872 101.456 93.1053 100.168C93.1053 100.168 68.3845 44.6761 121.319 45.6792Z" fill="#000C3E"/>
<path d="M127.671 45.9172C126.578 46.701 140.095 46.6696 147.823 56.0477C155.552 65.4259 157.388 88.8652 158.582 89.3017C159.777 89.7357 164.549 60.2557 156.077 51.3985C147.603 42.5436 133.893 41.4585 127.671 45.9172Z" fill="#000C3E"/>
<path d="M118.093 119.587C118.093 119.587 131.168 127.029 144.744 120.074C144.744 120.074 145.799 128.427 144.744 130.354C143.686 132.281 122.186 133.658 117.954 124.162C117.954 124.162 116.872 119.175 118.093 119.587Z" fill="#EE9B68"/>
<path d="M155.394 91.288C155.394 91.288 158.036 78.8087 162.444 83.1976C166.85 87.5864 162.728 100.64 158.33 101.865C153.932 103.09 152.92 97.7314 155.394 91.288Z" fill="#FFCEB0"/>
<path d="M102.683 89.311C102.683 89.311 100.407 76.6485 94.4787 80.6491C88.5508 84.6497 92.6408 98.0115 98.0845 99.6055C103.526 101.197 105.258 95.9449 102.683 89.311Z" fill="#FFCEB0"/>
<path d="M141.829 75.8663C141.829 75.8663 147.408 72.1165 151.524 76.2136C155.142 79.8163 147.497 77.3976 144.859 78.1958C142.222 78.9916 138.645 79.1459 141.829 75.8663Z" fill="#41294A"/>
<path d="M127.118 76.752C127.118 76.752 121.77 72.6791 117.42 76.5254C113.595 79.9086 121.371 77.9457 123.955 78.8982C126.54 79.8483 130.105 80.2149 127.118 76.752Z" fill="#41294A"/>
<path d="M121.309 80.8496C116.085 80.8496 111.838 84.9467 111.643 90.1771C111.443 95.516 115.62 100.023 120.955 100.223L121.324 100.23C126.548 100.23 130.795 96.1334 130.99 90.9029C131.086 88.3155 130.171 85.8461 128.413 83.9483C126.654 82.0505 124.262 80.9533 121.68 80.8568L121.309 80.8496ZM121.324 101.436C121.187 101.436 121.049 101.434 120.91 101.429C114.912 101.202 110.215 96.1358 110.439 90.1313C110.665 84.1123 115.702 79.4365 121.724 79.6511C124.629 79.7596 127.319 80.9943 129.294 83.1284C131.272 85.2626 132.3 88.0381 132.194 90.9463C131.973 96.8279 127.199 101.436 121.324 101.436Z" fill="#FFFCF6"/>
<path d="M111.045 90.7571C110.968 90.7571 110.891 90.7426 110.814 90.7113L101.706 86.9349C101.4 86.8071 101.253 86.4526 101.381 86.1464C101.509 85.8377 101.86 85.6906 102.166 85.8208L111.276 89.5972C111.582 89.725 111.729 90.077 111.601 90.3857C111.505 90.6172 111.281 90.7571 111.045 90.7571Z" fill="#FFFCF6"/>
<path d="M132.191 50.2929C132.191 50.2929 130.827 69.6134 138.254 72.0611C145.68 74.5111 160.021 74.2651 160.903 71.3135C161.784 68.3643 146.744 44.6236 135.951 40.8159C117.025 34.141 99.7741 62.0777 101.935 69.5001C104.095 76.925 126.643 73.8938 130.112 72.9388C133.583 71.9839 131.497 55.6246 132.191 50.2929Z" fill="#000C3E"/>
<path d="M132.191 90.9487C131.88 90.9487 131.615 90.7076 131.591 90.3917C131.567 90.0589 131.815 89.7695 132.145 89.743L138.273 89.2776C138.61 89.2631 138.894 89.4994 138.921 89.8346C138.945 90.165 138.697 90.4544 138.364 90.4809L132.239 90.9487C132.222 90.9487 132.205 90.9487 132.191 90.9487Z" fill="#FFFCF6"/>
<path d="M118.128 35.5753C117.988 35.5753 117.848 35.544 117.716 35.474C114.108 33.6124 111.954 31.0153 111.323 27.7598C109.929 20.5978 116.439 12.9029 116.719 12.5797C117.044 12.2011 117.612 12.1601 117.991 12.4808C118.371 12.8064 118.415 13.3779 118.089 13.7565C118.027 13.8288 111.865 21.1187 113.096 27.4198C113.619 30.1013 115.452 32.2716 118.542 33.868C118.985 34.0971 119.161 34.6421 118.932 35.0858C118.771 35.3969 118.455 35.5753 118.128 35.5753Z" fill="#000C3E"/>
<path d="M132.462 37.7909C132.204 37.7909 131.946 37.68 131.768 37.4678C131.448 37.0843 131.498 36.5128 131.881 36.1921C131.956 36.1318 139.228 29.9537 139.047 23.5368C138.97 20.8046 137.52 18.3618 134.733 16.2807C134.333 15.9817 134.251 15.415 134.55 15.0147C134.846 14.6168 135.417 14.5324 135.812 14.8315C139.067 17.2622 140.762 20.1776 140.854 23.4934C141.054 30.788 133.367 37.3062 133.04 37.5811C132.871 37.721 132.664 37.7909 132.462 37.7909Z" fill="#000C3E"/>
<path d="M161.34 124.286C161.048 124.286 160.762 124.144 160.588 123.884C160.309 123.469 160.422 122.909 160.836 122.63C161.195 122.386 169.689 116.55 168.359 105.59C167.841 101.312 166.67 96.5402 165.43 91.4858C163.274 82.6888 161.041 73.5929 161.605 65.0129C161.636 64.5161 162.079 64.1158 162.566 64.1689C163.065 64.2027 163.44 64.6319 163.407 65.1311C162.862 73.4337 165.059 82.3898 167.186 91.0542C168.436 96.1616 169.621 100.987 170.151 105.371C171.62 117.46 162.238 123.867 161.838 124.134C161.687 124.236 161.511 124.286 161.34 124.286Z" fill="#000C3E"/>
<path d="M169.131 79.4308C169.091 79.4308 169.05 79.4284 169.004 79.4211C168.51 79.3512 168.168 78.8954 168.238 78.4011C170.211 64.3906 166.272 53.2738 156.536 45.3618C149.252 39.4417 141.313 37.6355 141.234 37.6186C140.747 37.5125 140.439 37.0302 140.547 36.5407C140.653 36.0536 141.137 35.7473 141.624 35.8534C141.956 35.9258 174.958 43.6376 170.025 78.6519C169.962 79.1052 169.577 79.4308 169.131 79.4308Z" fill="#000C3E"/>
<path d="M136.458 114.902C134.623 114.902 133.202 114.319 133.11 114.28C132.653 114.087 132.436 113.559 132.628 113.099C132.819 112.641 133.346 112.423 133.806 112.612C133.835 112.624 136.572 113.726 138.961 112.542C139.409 112.315 139.949 112.498 140.173 112.947C140.394 113.393 140.214 113.935 139.766 114.157C138.641 114.719 137.485 114.902 136.458 114.902Z" fill="#EE9B68"/>
<path d="M99.2609 96.4225C99.1742 96.4225 99.0851 96.4104 98.9984 96.3839C98.519 96.2368 98.2517 95.7328 98.3962 95.2553C100.215 89.2798 95.8646 85.3105 95.8213 85.2695C95.4479 84.9367 95.4166 84.3652 95.749 83.9939C96.079 83.6201 96.6547 83.5863 97.0232 83.9191C97.24 84.112 102.277 88.7131 100.126 95.781C100.008 96.1717 99.6487 96.4225 99.2609 96.4225Z" fill="#EE9B68"/>
<path d="M158.356 96.5991C158.334 96.5991 158.313 96.5991 158.294 96.5967C157.795 96.5605 157.419 96.1289 157.455 95.6321C157.865 89.8519 161.471 86.9244 161.622 86.8038C162.02 86.4927 162.576 86.5578 162.889 86.9485C163.2 87.3367 163.135 87.9058 162.75 88.2169C162.718 88.2434 159.609 90.8068 159.257 95.7575C159.223 96.235 158.826 96.5991 158.356 96.5991Z" fill="#EE9B68"/>
<path d="M98.0857 139.504C98.0857 139.504 129.187 167.134 146.525 159.934C163.861 152.733 168.984 135.817 160.269 133.227C151.555 130.637 84.4571 128.679 98.0857 139.504Z" fill="#FFCEB0"/>
<path d="M138.255 111.661C138.154 111.661 138.05 111.645 137.949 111.608C135.119 110.581 133.719 109.33 133.666 107.777C133.582 105.242 137.45 103.465 137.891 103.27C138.344 103.069 138.879 103.274 139.081 103.733C139.281 104.188 139.076 104.724 138.618 104.926C137.33 105.495 135.439 106.778 135.473 107.716C135.494 108.396 136.651 109.214 138.561 109.906C139.03 110.077 139.274 110.596 139.105 111.063C138.97 111.432 138.623 111.661 138.255 111.661Z" fill="#EE9B68"/>
<path d="M123.957 93.0385C123.673 93.0385 123.389 92.9372 123.16 92.737C119.128 89.1681 116.321 90.0941 116.203 90.1326C115.584 90.3545 114.895 90.0338 114.667 89.4189C114.438 88.8015 114.736 88.1191 115.348 87.8803C115.517 87.8128 119.547 86.3201 124.754 90.9284C125.253 91.3697 125.301 92.1342 124.86 92.6309C124.622 92.901 124.289 93.0385 123.957 93.0385Z" fill="#41294A"/>
<path d="M145.215 93.2639C144.882 93.2639 144.552 93.1265 144.311 92.8564C143.871 92.3572 143.919 91.5952 144.417 91.1539C149.632 86.5408 153.655 88.0383 153.823 88.1058C154.442 88.347 154.751 89.0463 154.507 89.666C154.269 90.2834 153.58 90.5872 152.966 90.3581C152.821 90.3075 150.022 89.4153 146.012 92.9625C145.783 93.1626 145.499 93.2639 145.215 93.2639Z" fill="#41294A"/>
<path d="M220.55 112.262L197.715 105.659L191.031 114.309L174.883 112.602L193.912 121.939L200.555 111.063L220.55 112.262Z" fill="#000C3E"/>
<path d="M200.717 95.6281L186.298 95.8524L183.95 102.057L174.276 103.933L186.973 105.973L188.902 98.4833L200.717 95.6281Z" fill="#000C3E"/>
<path d="M148.53 79.3136C143.305 79.3136 139.059 83.4106 138.864 88.6411C138.664 93.9824 142.84 98.487 148.176 98.6872L148.544 98.6944C153.769 98.6944 158.016 94.5974 158.211 89.3669C158.411 84.028 154.231 79.521 148.898 79.3208L148.53 79.3136ZM148.544 99.9001C148.405 99.9001 148.267 99.8977 148.128 99.8929C142.132 99.6662 137.435 94.5998 137.659 88.5977C137.886 82.5763 142.918 77.9053 148.947 78.1151C154.942 78.3418 159.637 83.4082 159.415 89.4103C159.196 95.2919 154.419 99.9001 148.544 99.9001Z" fill="#FFFCF6"/>
<path d="M113.465 181.964C113.465 181.964 131.774 160.37 147.763 130.962C154.028 119.436 165.766 116.636 166.192 118.252C166.618 119.87 159.371 126.617 159.371 126.617C159.371 126.617 169.03 119.489 170.595 121.813C172.161 124.138 164.275 131.199 164.275 131.199C164.275 131.199 171.308 127.126 174.293 128.833C177.277 130.54 165.978 132.708 166.192 138.65C169.473 229.899 126.487 222.788 126.487 222.788L113.465 181.964Z" fill="#FFBD96"/>
<path d="M131.778 161.273C131.665 161.273 131.549 161.252 131.436 161.206C130.976 161.018 130.754 160.49 130.942 160.027C141.463 134.241 147.936 130.472 148.205 130.325C148.644 130.084 149.19 130.25 149.431 130.684C149.67 131.121 149.511 131.666 149.082 131.907C148.959 131.981 142.718 135.946 132.614 160.711C132.471 161.061 132.132 161.273 131.778 161.273Z" fill="#EE9B68"/>
<path d="M103.854 198.223L41.7807 203.179C41.7807 203.179 39.6972 173.426 48.6504 158.065C57.6036 142.704 82.5652 135.755 86.7396 134.894C90.9139 134.033 103.854 198.223 103.854 198.223Z" fill="#FB4C47"/>
<path d="M175.28 135.379C175.28 135.379 197.62 140.218 201.915 163.873C204.663 178.996 208.52 227.337 208.52 227.337L198.534 231.165L189.358 233.899L170.039 238.274L175.28 135.379Z" fill="#D9423D"/>
<path d="M111.038 178.12C111.038 178.12 137.578 221.634 128.35 222.84C119.122 224.046 72.1517 227.663 59.5059 222.84C46.86 218.017 40.4167 212.051 42.0257 198.774C40.6064 178.12 47.3813 152.836 50.7487 158.561C67.8699 187.669 111.038 178.12 111.038 178.12Z" fill="#D9423D"/>
<path d="M108.388 179.326C90.8521 179.326 74.9762 161.918 74.309 161.177C73.8634 160.683 73.9019 159.919 74.3957 159.475C74.8895 159.029 75.6507 159.067 76.0963 159.562C76.2529 159.735 91.9312 176.915 108.388 176.915C109.052 176.915 109.592 177.455 109.592 178.12C109.592 178.786 109.052 179.326 108.388 179.326Z" fill="#B43936"/>
<path d="M178.789 222.37H178.76C178.096 222.353 177.568 221.801 177.585 221.136C177.592 220.827 178.31 190.187 177.587 176.444C176.908 163.536 173.57 160.637 173.536 160.608C173.032 160.193 172.938 159.444 173.338 158.927C173.733 158.416 174.458 158.298 174.988 158.684C175.422 159.005 179.249 162.205 179.991 176.316C180.721 190.153 180.001 220.885 179.994 221.194C179.977 221.849 179.442 222.37 178.789 222.37Z" fill="#B43936"/>
<path d="M129.501 13.1987C129.184 13.1987 128.84 13.2356 128.467 13.3092C127.558 13.4916 126.969 13.9333 126.616 14.7C125.039 18.1121 128.363 26.2392 130.738 31.0406C132.206 25.7143 133.965 16.811 131.479 14.0054C131.001 13.466 130.349 13.1987 129.501 13.1987ZM131.015 35.0481C130.62 35.0481 130.25 34.8352 130.055 34.4831C129.215 32.9771 121.929 19.6021 124.618 13.7781C125.265 12.3777 126.447 11.4687 128.037 11.1518C130.745 10.6124 132.3 11.6127 133.126 12.5458C137.444 17.4207 132.625 32.5802 132.062 34.2927C131.924 34.7072 131.556 35.0017 131.121 35.0433C131.086 35.0465 131.05 35.0481 131.015 35.0481Z" fill="#FFD310"/>
<path d="M144.333 18.611C144.229 18.611 144.124 18.6174 144.018 18.6334C140.3 19.1279 135.808 27.0134 133.433 32.002C138.37 29.923 146.201 25.9523 147.241 22.3416C147.475 21.5286 147.318 20.81 146.75 20.077C145.985 19.0927 145.193 18.611 144.333 18.611ZM131.322 35.118C131.026 35.118 130.736 34.9996 130.526 34.7787C130.224 34.4619 130.137 33.9977 130.305 33.5944C131 31.9315 137.271 17.313 143.727 16.452C144.964 16.2871 146.793 16.5464 148.486 18.7262C149.482 20.0066 149.783 21.4678 149.356 22.9498C147.579 29.1132 133.317 34.4619 131.698 35.0524C131.575 35.0972 131.448 35.118 131.322 35.118Z" fill="#FFD310"/>
<path d="M110.666 31.2317C116.011 34.6673 128.226 37.3395 137.77 31.2317" stroke="#FFD310" stroke-width="1.63065"/>
<defs>
<linearGradient id="paint0_linear" x1="7.66249" y1="191.938" x2="22.5753" y2="243.719" gradientUnits="userSpaceOnUse">
<stop stop-color="#FFD8D8"/>
<stop offset="1" stop-color="#FFF8F8"/>
</linearGradient>
<linearGradient id="paint1_linear" x1="256.25" y1="79.4139" x2="99.7536" y2="-19.38" gradientUnits="userSpaceOnUse">
<stop stop-color="#FFF8F8"/>
<stop offset="1" stop-color="#FFCFCF"/>
</linearGradient>
<linearGradient id="paint2_linear" x1="250.802" y1="55.2982" x2="193.538" y2="30.8394" gradientUnits="userSpaceOnUse">
<stop stop-color="#FFD7D7"/>
<stop offset="1" stop-color="#FFF9F9"/>
</linearGradient>
<linearGradient id="paint3_linear" x1="237.876" y1="216.592" x2="7.66844" y2="83.2792" gradientUnits="userSpaceOnUse">
<stop stop-color="#FFCFCF"/>
<stop offset="1" stop-color="#FFF8F8"/>
</linearGradient>
</defs>
</svg>
