<svg width="281" height="263" viewBox="0 0 281 263" fill="none" xmlns="http://www.w3.org/2000/svg">
<path d="M104.802 249.258C89.6549 254.625 74.3612 257.104 58.0481 254.005C39.8654 250.549 24.0944 234.989 15.1832 219.471C11.8722 213.707 9.23628 207.267 9.58073 200.63C10.3822 185.298 24.8665 183.585 37.1614 186.065C44.0921 187.459 50.4559 190.634 56.7475 193.778C67.193 199.001 79.4458 201.57 88.8105 208.81C91.9529 211.246 94.3128 214.174 97.9642 215.946C103.644 218.706 110.128 220.009 115.962 222.52C120.943 224.675 126.511 228.22 126.518 233.645C126.519 239.208 120.714 242.754 115.614 244.969C112.004 246.547 108.41 247.986 104.802 249.258Z" fill="url(#paint0_linear)"/>
<path d="M49.0501 51.4956C73.8631 14.9285 125.172 0.246157 166.761 13.9946C186.816 20.6276 203.623 34.4394 219.125 48.7773C232.789 61.4143 246.045 75.0443 255.377 91.2898C261.748 102.379 266.309 115.671 269.529 128.081C274.344 146.661 269.971 170.602 245.952 168.848C240.317 168.437 235.442 166.411 230.171 164.638C225.908 163.201 221.73 164.063 217.304 163.361C206.162 161.597 195.429 157.495 185.28 152.69C164.596 142.89 145.697 129.575 124.425 120.987C106.993 113.958 88.3767 110.329 69.5808 110.296C61.6512 110.283 53.3135 110.838 46.2203 107.292C28.7374 98.5449 36.5993 74.9585 43.1286 61.6903C44.8584 58.1561 46.8372 54.7492 49.0501 51.4956Z" fill="url(#paint1_linear)"/>
<path d="M243.597 57.015C247.682 60.7149 263.732 70.8153 264.041 58.9624C264.114 56.0096 262.775 53.1425 260.952 50.98C258.867 48.4979 256.502 47.196 254.874 44.3042C252.881 40.8126 250.613 37.5311 248.099 34.502C242.959 28.1974 236.958 22.3722 229.676 19.7767C224.569 17.9585 215.922 18.4157 213.496 24.9612C209.962 34.4895 225.074 36.2354 229.683 39.7079C234.057 42.9947 236.534 48.6423 239.999 53.1307C241.094 54.546 242.298 55.8463 243.597 57.015Z" fill="url(#paint2_linear)"/>
<path d="M168.059 45.4252C176.712 50.5195 183.202 58.1448 191.091 64.286C204.225 74.5089 222.228 76.6003 237.29 83.7096C252.648 90.9632 264.245 102.236 269.488 118.483C276.262 139.455 276.906 164.395 271.151 185.955C264.813 209.687 249.929 225.451 228.168 235.964C206.419 246.471 182.326 251.374 158.296 252.386C155.977 252.485 153.662 252.539 151.338 252.554C99.1352 252.857 29.6502 234.482 11.8773 178.404C11.7144 177.891 11.5583 177.379 11.4017 176.859C9.57037 170.611 8.49359 164.167 8.19436 157.663C7.07648 134.606 11.1118 109.157 19.1954 87.5428C24.6323 72.991 36.3397 60.6869 48.6763 51.9199C66.009 39.6034 87.1575 36.4602 108.206 34.9824C123.793 33.8888 141.323 33.4892 156.063 39.4512C160.205 41.14 164.215 43.1369 168.059 45.4252Z" fill="url(#paint3_linear)"/>
<path d="M70.3902 80.7599C70.3902 80.7599 123.466 151.627 136.743 157.487C150.024 163.35 166.672 162.03 168.128 168.828C169.584 175.63 140.255 164.125 144.934 174.617C149.612 185.113 167.846 197.093 167.932 207.659C168.021 218.229 138.917 184.972 138.917 184.972C138.917 184.972 166.339 215.399 157.259 216.118C148.175 216.838 124.688 187.09 124.688 187.09C124.688 187.09 150.961 226.114 142.251 222.549C133.546 218.985 52.8046 125.617 40.3535 115.737C27.9025 105.861 70.3902 80.7599 70.3902 80.7599Z" fill="#E27B5A"/>
<path d="M224.787 97.9623C224.787 97.9623 164.251 162.554 150.407 166.919C136.563 171.281 120.163 168.139 117.966 174.734C115.773 181.331 146.187 173.128 140.382 183.045C134.581 192.958 115.143 202.857 113.894 213.353C112.65 223.845 145.228 193.997 145.228 193.997C145.228 193.997 114.628 221.219 123.574 222.933C132.525 224.65 159.138 197.669 159.138 197.669C159.138 197.669 128.735 233.566 137.781 230.981C146.828 228.396 237.338 144.485 250.797 136.036C264.259 127.588 224.787 97.9623 224.787 97.9623Z" fill="#FFCEB0"/>
<path d="M173.25 142.812C173.25 142.812 191.869 178.069 208.985 181.82C226.099 185.571 263.071 152.104 271.138 135.527C279.208 118.953 239.877 68.7967 231.46 61.5826C219.301 60.0982 164.618 111.385 173.25 142.812Z" fill="#FB4C47"/>
<path d="M57.721 46.5534C57.721 46.5534 118.959 106.906 116.057 122.577C113.159 138.251 89.7756 157.026 70.917 163.174C52.0585 169.32 10.8298 144.563 10.8298 126.51C7.82341 95.8497 23.4547 63.9875 57.721 46.5534Z" fill="#128E5A"/>
<defs>
<linearGradient id="paint0_linear" x1="8.2362" y1="202.746" x2="23.9514" y2="257.313" gradientUnits="userSpaceOnUse">
<stop stop-color="#FFD0D0"/>
<stop offset="1" stop-color="#FFF8F8"/>
</linearGradient>
<linearGradient id="paint1_linear" x1="301.772" y1="56.8221" x2="125.881" y2="16.2066" gradientUnits="userSpaceOnUse">
<stop stop-color="#FFF8F8"/>
<stop offset="1" stop-color="#FFD0D0"/>
</linearGradient>
<linearGradient id="paint2_linear" x1="264.458" y1="58.7546" x2="204.112" y2="32.9798" gradientUnits="userSpaceOnUse">
<stop stop-color="#FFD0D0"/>
<stop offset="1" stop-color="#FFF7F7"/>
</linearGradient>
<linearGradient id="paint3_linear" x1="250.838" y1="228.726" x2="8.24391" y2="88.2405" gradientUnits="userSpaceOnUse">
<stop stop-color="#FFCFCF"/>
<stop offset="1" stop-color="#FFF8F8"/>
</linearGradient>
</defs>
</svg>
