<svg width="272" height="254" viewBox="0 0 272 254" fill="none" xmlns="http://www.w3.org/2000/svg">
<path d="M101.309 240.717C86.6532 245.91 71.8549 248.309 56.0703 245.31C38.4768 241.966 23.2167 226.91 14.5942 211.895C11.3905 206.318 8.84002 200.086 9.17331 193.664C9.94877 178.829 23.9638 177.171 35.8604 179.571C42.5665 180.92 48.7242 183.992 54.8119 187.034C64.919 192.088 76.7748 194.574 85.8361 201.579C88.8767 203.937 91.1601 206.769 94.6933 208.484C100.189 211.154 106.463 212.415 112.108 214.845C116.927 216.93 122.315 220.36 122.322 225.609C122.323 230.993 116.706 234.423 111.771 236.566C108.278 238.093 104.801 239.486 101.309 240.717Z" fill="url(#paint0_linear)"/>
<path d="M47.3637 49.3619C71.3729 13.9796 121.019 -0.227089 161.261 13.0759C180.666 19.494 196.928 32.8583 211.928 46.7317C225.15 58.9592 237.976 72.1477 247.006 87.8668C253.171 98.5965 257.584 111.458 260.7 123.466C265.358 141.444 261.127 164.61 237.887 162.912C232.434 162.515 227.716 160.554 222.617 158.839C218.491 157.448 214.449 158.282 210.166 157.603C199.386 155.896 189 151.927 179.18 147.278C159.166 137.795 140.879 124.912 120.297 116.602C103.429 109.801 85.4162 106.289 67.2292 106.257C59.5566 106.244 51.489 106.781 44.6256 103.351C27.7092 94.8869 35.3164 72.0646 41.6341 59.2263C43.3079 55.8066 45.2226 52.5101 47.3637 49.3619Z" fill="url(#paint1_linear)"/>
<path d="M235.61 54.7026C239.563 58.2826 255.093 68.0557 255.392 56.5869C255.462 53.7297 254.166 50.9555 252.403 48.8631C250.385 46.4614 248.097 45.2016 246.522 42.4036C244.594 39.0251 242.399 35.8499 239.966 32.919C234.993 26.8186 229.186 21.1821 222.14 18.6707C217.199 16.9114 208.832 17.3538 206.485 23.6872C203.065 32.9069 217.687 34.5962 222.147 37.9562C226.379 41.1365 228.776 46.6011 232.128 50.9441C233.188 52.3135 234.353 53.5717 235.61 54.7026Z" fill="url(#paint2_linear)"/>
<path d="M162.516 43.4884C170.888 48.4177 177.169 55.796 184.802 61.7382C197.511 71.6298 214.93 73.6535 229.504 80.5325C244.364 87.5511 255.585 98.4587 260.659 114.18C267.213 134.472 267.836 158.603 262.268 179.465C256.135 202.428 241.734 217.682 220.677 227.854C199.633 238.021 176.32 242.765 153.069 243.744C150.826 243.84 148.586 243.892 146.337 243.906C95.8253 244.2 28.5916 226.42 11.3946 172.158C11.237 171.663 11.0859 171.167 10.9344 170.664C9.16236 164.619 8.12047 158.383 7.83094 152.09C6.74928 129.78 10.6539 105.156 18.4755 84.2414C23.7363 70.1611 35.0644 58.2556 47.0013 49.7727C63.7724 37.8553 84.2357 34.8139 104.603 33.384C119.684 32.3258 136.646 31.9392 150.908 37.708C154.917 39.3421 158.797 41.2743 162.516 43.4884Z" fill="url(#paint3_linear)"/>
<path d="M184.879 98.9624C184.879 98.9624 184.199 108.555 183.248 122.069C182.499 132.679 181.577 145.707 180.668 158.434C180.448 161.558 180.219 164.656 180.002 167.698C179.483 175.049 178.981 182.056 178.532 188.144C178.138 193.263 177.8 197.746 177.544 201.224C177.203 205.681 176.973 208.507 176.888 208.996C176.389 212.228 166.878 218.503 144.969 218.503C123.07 218.503 110.327 218.844 106.087 213.587C105.451 212.786 104.68 209.675 103.836 204.946C102.002 194.677 99.7997 176.815 97.8175 158.788C96.5803 147.594 95.412 136.348 94.4603 126.798C92.9802 112.017 91.9891 101.342 91.9891 101.342L118.601 100.662L152.439 99.7927L184.879 98.9624Z" fill="#FB4C47"/>
<path d="M183.25 122.07C182.501 132.679 181.579 145.708 180.67 158.434C172.194 160.732 147.078 165.392 97.8195 158.789C96.5823 147.595 95.414 136.348 94.4623 126.799C107.425 128.292 149.412 131.974 183.25 122.07Z" fill="#D9423D"/>
<path d="M177.544 201.225C177.202 205.679 176.973 208.507 176.891 208.996C176.388 212.229 166.878 218.504 144.969 218.504C123.07 218.504 110.33 218.845 106.09 213.588C105.45 212.783 104.679 209.676 103.836 204.947C115.397 207.027 147.916 211.343 177.544 201.225Z" fill="#D9423D"/>
<path d="M187.757 100.159C186.238 101.843 173.849 107.628 140.051 109.315C136.887 109.476 133.829 109.558 130.937 109.571C105.481 109.775 90.7657 105.131 90.4671 104.235C90.1291 103.201 89.4497 96.4082 90.3063 95.5681L90.3194 95.555C91.1366 94.8593 100.834 99.8475 128.735 99.0303C132.175 98.9352 135.88 98.7448 139.887 98.4462C172.721 96.0144 183.248 91.0032 185.936 90.8391C186.251 90.8129 186.455 90.8523 186.579 90.977C187.757 92.1715 189.293 98.4462 187.757 100.159Z" fill="#FF807C"/>
<path d="M185.898 91.655C184.717 96.082 150.403 104.234 133.597 103.879C132.252 103.853 130.827 103.814 129.347 103.732C112.394 102.957 88.2665 99.4655 90.3044 95.5668L90.3176 95.5537C90.5342 95.2124 97.3306 85.2293 124.402 82.4858C126.046 82.3217 127.769 82.1872 129.564 82.0789C130.499 82.01 131.451 81.9673 132.429 81.9148C132.606 81.9148 132.783 81.9148 132.96 81.9017C133.938 81.859 134.943 81.8327 135.976 81.8196C137.171 81.7934 138.339 81.7802 139.478 81.7802C172.039 81.5472 185.366 86.6963 185.937 90.8378C185.977 91.1233 185.967 91.3957 185.898 91.655Z" fill="#C63F3B"/>
<path d="M147.592 102.733C147.057 103.621 144.198 104.403 140.896 104.807C137.645 105.207 133.942 105.224 131.605 104.597C130.552 104.319 129.77 103.92 129.423 103.377C129.235 103.082 128.959 102.262 128.613 101.046C128.007 98.9556 127.175 95.6827 126.259 91.9009C126.155 91.4507 126.038 90.9964 125.929 90.5253C125.382 88.262 124.809 85.8263 124.22 83.3864C123.856 81.8552 123.472 80.3239 123.112 78.8095C122.903 77.9555 122.698 77.1184 122.506 76.3023C121.762 73.286 121.052 70.4507 120.412 68.0991C119.601 65.0492 118.908 62.786 118.439 61.9363C118.335 61.7596 118.247 61.6376 118.18 61.5871C118.076 61.5156 117.921 61.4819 117.7 61.4483C116.471 61.2548 113.495 61.4483 109.997 61.7091C102.971 62.2307 93.9053 63.0132 93.0944 61.3599C92.5929 60.3335 92.2125 58.0703 92.1122 55.563C91.9199 51.6592 92.3839 47.2042 93.9596 46.1399C95.1549 45.3407 102.005 44.5414 109.478 44.188C113.357 44.0324 117.403 43.9819 120.914 44.1207C125.382 44.2932 128.976 44.7643 130.289 45.6856C130.861 46.0895 131.588 47.3262 132.437 49.173C133.649 51.8022 135.083 55.6472 136.587 60.1231C137.469 62.807 138.389 65.6971 139.308 68.6544C140.203 71.5991 141.084 74.6112 141.92 77.5895C142.058 78.0397 142.175 78.4772 142.297 78.9315C142.455 79.5036 142.631 80.0799 142.786 80.652C143.321 82.6208 143.839 84.5559 144.324 86.3984C144.616 87.5132 144.892 88.5775 145.135 89.6208C145.807 92.25 146.363 94.6184 146.798 96.604C147.504 100.032 147.835 102.317 147.592 102.733Z" fill="#F5C827"/>
<path d="M146.581 96.4313L138.904 98.2344L128.237 100.729C127.63 98.7066 126.791 95.54 125.868 91.8808L136.252 88.8485L144.086 86.557C145.114 90.3301 145.97 93.7531 146.581 96.4313Z" fill="#FFAE00"/>
<path d="M142.22 78.6666C140.045 79.2245 137.231 79.9654 134.363 80.6845C130.658 81.6433 126.866 82.6152 124.296 83.2864C123.936 81.6956 123.554 80.1092 123.194 78.5402C122.986 77.6555 122.788 76.7882 122.597 75.9427L131.86 71.5408L139.253 68.0237C140.144 71.0701 141.019 74.1907 141.843 77.2763C141.98 77.747 142.1 78.1959 142.22 78.6666Z" fill="#FFAE00"/>
<path d="M136.768 60.2151L129.383 63.7117L120.249 68.0238C119.421 65.0379 118.713 62.8221 118.234 61.9902L126.272 54.964L132.529 49.4905C133.767 52.0646 135.231 55.833 136.768 60.2151Z" fill="#FFAE00"/>
<path d="M120.414 44.1193C119.999 46.528 119.493 49.4848 118.931 52.5621C118.402 55.4816 117.856 58.4883 117.346 61.2251C116.178 61.034 113.341 61.2251 110.006 61.4825L109.775 53.1435L109.512 44.1899C113.206 44.0321 117.067 43.9822 120.414 44.1193Z" fill="#FFAE00"/>
<path opacity="0.309998" d="M147.206 89.0692C155.404 89.4302 163.516 90.3392 171.59 91.8258C174.153 92.2984 175.252 88.3735 172.673 87.8976C164.242 86.3421 155.768 85.3707 147.206 84.9933C144.584 84.8784 144.591 88.9543 147.206 89.0692Z" fill="white"/>
<path opacity="0.300003" d="M172.647 119.715C172.181 134.598 171.233 149.448 169.808 164.268C169.556 166.877 173.635 166.86 173.881 164.268C175.312 149.448 176.257 134.598 176.723 119.715C176.805 117.093 172.729 117.093 172.647 119.715Z" fill="#FFC7D3"/>
<defs>
<linearGradient id="paint0_linear" x1="7.87234" y1="195.712" x2="23.0784" y2="248.511" gradientUnits="userSpaceOnUse">
<stop stop-color="#FFD0D0"/>
<stop offset="1" stop-color="#FFF7F7"/>
</linearGradient>
<linearGradient id="paint1_linear" x1="291.898" y1="54.5159" x2="121.706" y2="15.2162" gradientUnits="userSpaceOnUse">
<stop stop-color="#FFF7F7"/>
<stop offset="1" stop-color="#FFD0D0"/>
</linearGradient>
<linearGradient id="paint2_linear" x1="255.795" y1="56.3858" x2="197.404" y2="31.446" gradientUnits="userSpaceOnUse">
<stop stop-color="#FFD0D0"/>
<stop offset="1" stop-color="#FFFBFC"/>
</linearGradient>
<linearGradient id="paint3_linear" x1="242.613" y1="220.85" x2="7.87887" y2="84.9166" gradientUnits="userSpaceOnUse">
<stop stop-color="#FFCFCF"/>
<stop offset="1" stop-color="#FFF8F8"/>
</linearGradient>
</defs>
</svg>
