<svg xmlns="http://www.w3.org/2000/svg" width="255.005" height="264" viewBox="0 0 255.005 264"><defs><style>.a{fill:rgba(250,87,82,0.92);}</style></defs><path class="a" d="M2031.66,564.493c-4.1-.122-7.63,3.087-8.63,7.5a150.056,150.056,0,0,1-21.52.162c-4.42-.293-8.63-.764-12.56-1.348.02-.772.03-1.552.03-2.331a82.222,82.222,0,0,0-.77-11.17,39.226,39.226,0,0,1,21.53-8.228c1.86,4.329,6.14,6.848,10.23,5.751,4.62-1.234,7.26-6.572,5.89-11.925s-6.19-8.7-10.81-7.466c-4.2,1.13-6.77,5.662-6.16,10.512a30.17,30.17,0,0,1-14.39,4.183,28.907,28.907,0,0,1-7.8-.868,78.805,78.805,0,0,0-5.81-16.206,82.129,82.129,0,0,1,24.25-15.589c2.92,3.494,7.57,4.656,11.16,2.528,4.13-2.439,5.28-8.312,2.59-13.1s-8.23-6.693-12.35-4.248c-3.59,2.12-4.94,6.831-3.46,11.169a83.318,83.318,0,0,1-14.24,9.155,81.713,81.713,0,0,1-10.89,4.6,78.789,78.789,0,0,0-9.51-13.046,58.5,58.5,0,0,1,7.69-17.139,57.336,57.336,0,0,1,11.38-12.607c3.88,2.461,8.76,2.079,11.54-1.162,3.15-3.671,2.43-9.609-1.63-13.264-4.04-3.663-9.87-3.657-13.02.016-2.78,3.241-2.56,8.237.33,11.883a56.456,56.456,0,0,1-10.77,13.177,54.728,54.728,0,0,1-15.44,9.812,77.252,77.252,0,0,0-15.8-9.6,36.229,36.229,0,0,1,3.33-6.986,37.52,37.52,0,0,1,3.62-4.842c4.3,1.8,9.12.5,11.29-3.257,2.44-4.2.65-9.9-3.99-12.728s-10.36-1.715-12.8,2.493c-2.14,3.7-1.01,8.553,2.44,11.591a56.088,56.088,0,0,1-2.64,6.035,58.115,58.115,0,0,1-3.83,6.58c-.58-.235-1.14-.462-1.72-.673a74.946,74.946,0,0,0-21.38-4.769,69.372,69.372,0,0,1-3.59-32.576c4.4-.864,7.69-4.405,7.69-8.648,0-4.89-4.37-8.854-9.76-8.854s-9.77,3.964-9.77,8.854c0,4.316,3.41,7.906,7.91,8.69a63.088,63.088,0,0,1,.12,21.852,62.164,62.164,0,0,1-2.82,10.618,75.046,75.046,0,0,0-20.58,4.121,31.784,31.784,0,0,1-2.45-4.855,35.142,35.142,0,0,1-2.3-9.839c4.21-2.251,6.38-6.973,4.9-11.149-1.64-4.593-7.07-6.779-12.14-4.88s-7.86,7.161-6.21,11.755c1.41,3.963,5.65,6.127,10.04,5.426a56.2,56.2,0,0,1,3.47,9.364,53.55,53.55,0,0,1,1.2,5.5,76.465,76.465,0,0,0-16.55,9.285,73.422,73.422,0,0,1-8.13-7,75.163,75.163,0,0,1-13.14-17.735c3.03-3.436,3.56-8.355,1.03-11.744-2.91-3.878-8.73-4.287-13.01-.915s-5.38,9.25-2.49,13.127c2.58,3.426,7.42,4.138,11.47,1.931a58.184,58.184,0,0,1,13.03,17.57,59.747,59.747,0,0,1,3.98,10.828c-.82.77-1.65,1.565-2.44,2.376a80.081,80.081,0,0,0-10.59,13.524,56.957,56.957,0,0,1-20.04-10.623c1.48-4.421.03-9.19-3.65-11.259-4.17-2.351-9.66-.323-12.25,4.531s-1.32,10.69,2.88,13.04c3.67,2.066,8.35.746,11.19-2.9a59,59,0,0,1,14.93,7.853c1.62,1.179,3.1,2.392,4.48,3.612a80.312,80.312,0,0,0-8.73,26.066,100.549,100.549,0,0,1-28.55-1.547c-.11-4.879-3.29-8.962-7.6-9.427-4.74-.511-9.05,3.536-9.61,9.04s2.83,10.377,7.57,10.887c4.22.454,8.07-2.705,9.28-7.283a108.109,108.109,0,0,1,28.23,4.352c-.18,2.119-.26,4.261-.26,6.428a81.18,81.18,0,0,0,1.39,15.056,63.593,63.593,0,0,1-17,8.18,62.829,62.829,0,0,1-16.56,2.755c-1.63-4.338-5.68-7.044-9.79-6.232-4.67.927-7.64,6.082-6.62,11.514s5.65,9.087,10.32,8.16c4.05-.8,6.81-4.764,6.82-9.332a97.622,97.622,0,0,1,35.4-4.956,78.821,78.821,0,0,0,8.97,18.846,50.792,50.792,0,0,1-5.98,4.189,50.205,50.205,0,0,1-11.89,5.15c-2.39-3.931-6.88-5.776-10.76-4.17-4.41,1.837-6.35,7.482-4.33,12.607a10.252,10.252,0,0,0,6.62,6.247,7.665,7.665,0,0,0,5.05-.275,7.193,7.193,0,0,0,1.37-.757c3.23-2.191,4.6-6.735,3.24-11.07a71.238,71.238,0,0,1,20.05-7.1,77.838,77.838,0,0,0,7.79,8.833c.26.26.53.521.79.763a65.785,65.785,0,0,1-9.04,14.955,64.729,64.729,0,0,1-12.29,11.731c-3.69-2.69-8.53-2.632-11.5.381-3.4,3.436-3.08,9.415.72,13.354,3.78,3.931,9.62,4.339,13.01.9,2.95-2.982,3.09-7.887.58-11.7a86.055,86.055,0,0,1,11.5-12.559,85.061,85.061,0,0,1,14.78-10.584,76.95,76.95,0,0,0,19.38,10.284,58.231,58.231,0,0,1-1.52,8.635,61.6,61.6,0,0,1-6.45,15.873c-4.48-.919-8.9,1.177-10.41,5.19-1.71,4.557.98,9.87,6.01,11.868s10.48-.082,12.21-4.647c1.5-3.964-.33-8.5-4.15-10.918a84.566,84.566,0,0,1,9.65-24.311,74.816,74.816,0,0,0,16.73,2.648,117.32,117.32,0,0,1,2.07,15.474,114.59,114.59,0,0,1-.68,22.038c-4.38.87-7.65,4.411-7.65,8.644,0,4.89,4.36,8.853,9.77,8.853,5.39,0,9.76-3.963,9.76-8.853,0-4.217-3.26-7.751-7.61-8.636a133.388,133.388,0,0,1,.98-37.5,74.518,74.518,0,0,0,17.46-2.771c.48.845.95,1.723,1.41,2.625a61.31,61.31,0,0,1,5.55,16c-3.89,2.315-5.87,6.815-4.46,10.829,1.59,4.6,7.01,6.831,12.09,4.978s7.91-7.1,6.31-11.7c-1.42-4.085-5.85-6.3-10.38-5.45a43.367,43.367,0,0,1-5.33-16.279c-.11-.878-.19-1.738-.23-2.583a75.941,75.941,0,0,0,17.46-8.911,100.132,100.132,0,0,1,23.38,28.317c-2.98,3.428-3.5,8.31-.98,11.681,2.92,3.874,8.73,4.281,13.01.909s5.38-9.243,2.48-13.125c-2.51-3.348-7.2-4.112-11.19-2.072a120.3,120.3,0,0,1-21.06-29.967,78.889,78.889,0,0,0,15.01-16.49,89.778,89.778,0,0,1,30.55,15.556c-1.45,4.338-.08,9.033,3.52,11.128,4.13,2.43,9.65.5,12.33-4.3s1.48-10.666-2.65-13.1c-3.62-2.119-8.31-.908-11.21,2.65a66.874,66.874,0,0,1-14.82-8.067,68.042,68.042,0,0,1-12.83-12.055,80.811,80.811,0,0,0,5.19-12.469,62.18,62.18,0,0,1,23.42,5.467c-.36,4.631,2.19,8.871,6.23,9.935,4.61,1.219,9.45-2.137,10.8-7.5s-1.31-10.69-5.94-11.909c-4.05-1.073-8.28,1.4-10.16,5.661a57.349,57.349,0,0,1-16.35-3.841,58.129,58.129,0,0,1-6.51-3.088,80.156,80.156,0,0,0,2.05-12.4c4.02-.333,8.28-.544,12.78-.553a155.7,155.7,0,0,1,21.46,1.422c.76,4.46,4.11,7.856,8.19,7.987,4.77.137,8.76-4.234,8.91-9.765S2036.41,564.631,2031.66,564.493Z" transform="translate(-1785 -439)"/></svg>