<svg width="566" height="565" viewBox="0 0 566 565" fill="none" xmlns="http://www.w3.org/2000/svg">
<path d="M210.05 539.51C179.478 550.342 148.61 555.347 115.685 549.091C78.9858 542.115 47.1545 510.709 29.1687 479.389C22.486 467.756 17.1658 454.757 17.861 441.362C19.4786 410.417 48.7129 406.959 73.5283 411.964C87.5168 414.779 100.361 421.186 113.06 427.532C134.142 438.074 158.873 443.259 177.774 457.872C184.116 462.79 188.879 468.698 196.249 472.275C207.714 477.845 220.8 480.475 232.575 485.544C242.628 489.893 253.866 497.048 253.88 507.997C253.882 519.227 242.167 526.382 231.873 530.853C224.587 534.038 217.333 536.942 210.05 539.51Z" fill="url(#paint0_linear)"/>
<path d="M97.5215 140.359C147.603 66.5537 251.161 36.9196 335.103 64.6687C375.58 78.0564 409.502 105.933 440.79 134.872C468.37 160.378 495.126 187.888 513.96 220.677C526.82 243.058 536.025 269.887 542.524 294.933C552.242 332.436 543.417 380.757 494.938 377.217C483.564 376.387 473.724 372.297 463.086 368.719C454.481 365.818 446.049 367.558 437.115 366.141C414.628 362.58 392.965 354.301 372.48 344.604C330.733 324.824 292.588 297.95 249.654 280.616C214.47 266.429 176.896 259.105 138.96 259.037C122.955 259.011 106.127 260.131 91.8101 252.975C56.5236 235.32 72.3916 187.715 85.57 160.935C89.0613 153.802 93.0553 146.926 97.5215 140.359Z" fill="url(#paint1_linear)"/>
<path d="M490.186 151.498C498.43 158.966 530.825 179.352 531.448 155.428C531.596 149.469 528.893 143.682 525.214 139.317C521.005 134.308 516.233 131.68 512.946 125.843C508.924 118.796 504.346 112.173 499.271 106.059C488.897 93.3341 476.785 81.5767 462.088 76.3382C451.78 72.6683 434.328 73.5912 429.432 86.8022C422.298 106.034 452.8 109.558 462.102 116.566C470.93 123.2 475.93 134.599 482.923 143.658C485.133 146.515 487.564 149.139 490.186 151.498Z" fill="url(#paint2_linear)"/>
<path d="M337.721 128.107C355.185 138.389 368.285 153.78 384.208 166.175C410.717 186.808 447.053 191.029 477.453 205.378C508.45 220.018 531.857 242.771 542.44 275.564C556.111 317.891 557.411 368.228 545.795 411.744C533.003 459.643 502.963 491.461 459.041 512.68C415.144 533.887 366.516 543.783 318.016 545.825C313.335 546.026 308.663 546.134 303.972 546.164C198.609 546.776 58.3645 509.689 22.4928 396.503C22.164 395.469 21.8489 394.435 21.5328 393.386C17.8366 380.776 15.6632 367.768 15.0593 354.642C12.803 308.105 20.9478 256.74 37.2631 213.115C48.2366 183.744 71.8663 158.91 96.7657 141.216C131.749 116.357 174.434 110.012 216.918 107.03C248.377 104.823 283.759 104.016 313.508 116.049C321.869 119.458 329.963 123.488 337.721 128.107Z" fill="url(#paint3_linear)"/>
<path d="M411.102 536.123C276.051 575.391 163.509 537.525 124.119 513.684L87.5426 485.635L100.204 464.598L178.983 457.586L309.814 450.574L415.323 471.611L525.051 435.147H536.306C519.424 492.367 445.803 526.306 411.102 536.123Z" fill="#FB4C47"/>
<path d="M117.601 504.644H450.958C450.958 504.644 462.63 312.974 420.16 284.927C377.696 256.886 188.28 266.496 146.917 294.78C42.0283 366.495 117.601 504.644 117.601 504.644Z" fill="#FB4C47"/>
<path d="M173.098 244.542C172.617 244.542 172.13 244.386 171.731 244.05C170.81 243.303 149.436 225.312 161.131 189.051C165.214 176.372 169.217 167.399 172.75 159.47C179.116 145.203 183.715 134.887 184.584 112.841C184.63 111.642 185.65 110.744 186.843 110.75C188.042 110.802 188.975 111.81 188.928 113.009C188.025 135.889 183.037 147.08 176.718 161.242C173.231 169.068 169.28 177.936 165.255 190.384C154.516 223.713 173.665 240.013 174.482 240.69C175.403 241.455 175.542 242.822 174.777 243.743C174.349 244.27 173.723 244.542 173.098 244.542Z" fill="#000C3E"/>
<path d="M291.432 28.286C290.87 43.3346 278.214 55.07 263.165 54.5081C248.122 53.9462 236.381 41.2899 236.943 26.2471C237.511 11.1985 250.161 -0.542625 265.21 0.0192344C280.253 0.586887 291.994 13.2374 291.432 28.286Z" fill="#000C3E"/>
<path d="M170.659 233.954C170.659 233.954 178.658 250.45 211.316 256.249C243.979 262.053 269.61 250.236 294.824 259.382C320.039 268.523 356.467 256.608 363.69 246.013C370.907 235.419 369.395 118.095 349.516 98.418C329.631 78.7471 225.461 62.3257 202.888 85.3446C180.315 108.369 156.34 220.741 170.659 233.954Z" fill="#000C3E"/>
<path d="M359.233 141.39C357.374 190.973 315.675 229.666 266.092 227.807C216.509 225.948 177.816 184.248 179.676 134.66C181.535 85.077 223.234 46.3897 272.817 48.2491C322.4 50.1027 361.093 91.8078 359.233 141.39Z" fill="#000C3E"/>
<path d="M306.307 216.508C306.307 216.508 312.14 286.474 306.307 294.247C300.474 302.02 263.547 296.193 253.834 294.247C244.114 292.307 240.227 216.508 246.055 216.508C251.887 216.508 305.189 200.909 306.307 216.508Z" fill="#FFCEB0"/>
<path d="M196.101 134.656C196.101 134.656 199.797 243.709 273.522 248.418C347.253 253.122 347.178 99.4732 320.498 84.859C293.813 70.2448 182.472 72.9846 196.101 134.656Z" fill="#FFCEB0"/>
<path d="M271.803 157.999C271.803 157.999 285.885 191.566 282.259 193.79C278.638 196.015 268.032 195.615 265.177 193.147C262.321 190.68 266.046 154.246 271.803 157.999Z" fill="#EE9B68"/>
<path d="M254.153 76.4997C254.153 76.4997 227.717 89.2835 222.689 113.281C217.655 137.285 220.262 198.736 192.25 195.915C192.25 195.915 138.016 74.2986 254.153 76.4997Z" fill="#000C3E"/>
<path d="M268.088 77.0207C265.69 78.741 295.347 78.6657 312.301 99.2228C329.261 119.774 333.287 171.147 335.905 172.097C338.529 173.052 349.002 108.444 330.408 89.034C311.82 69.6238 281.735 67.2489 268.088 77.0207Z" fill="#000C3E"/>
<path d="M247.081 238.473C247.081 238.473 275.77 254.784 305.549 239.538C305.549 239.538 307.866 257.848 305.549 262.071C303.232 266.293 256.059 269.311 246.774 248.499C246.774 248.499 244.399 237.569 247.081 238.473Z" fill="#EE9B68"/>
<path d="M329.545 176.478C329.545 176.478 336.606 149.179 348.915 158.893C361.229 168.612 350.091 197.14 337.921 199.729C325.751 202.318 322.82 190.554 329.545 176.478Z" fill="#FFCEB0"/>
<path d="M213.264 172.121C213.264 172.121 208.265 144.37 195.261 153.14C182.257 161.904 191.23 191.19 203.174 194.683C215.118 198.17 218.912 186.66 213.264 172.121Z" fill="#FFCEB0"/>
<path d="M299.148 142.656C299.148 142.656 311.387 134.443 320.417 143.421C328.359 151.316 311.578 146.016 305.798 147.759C300.011 149.503 292.162 149.845 299.148 142.656Z" fill="#41294A"/>
<path d="M248.13 144.597C248.13 144.597 236.401 135.671 226.855 144.105C218.462 151.513 235.52 147.216 241.191 149.301C246.862 151.386 254.681 152.185 248.13 144.597Z" fill="#41294A"/>
<path d="M242.222 153.703C230.835 153.703 221.578 162.629 221.144 174.028C220.709 185.659 229.821 195.477 241.452 195.906L242.263 195.923C253.651 195.923 262.907 186.997 263.341 175.604C263.776 163.967 254.659 154.149 243.033 153.72L242.222 153.703ZM242.263 198.819L241.342 198.802C228.112 198.31 217.755 187.142 218.248 173.912C218.74 160.961 229.271 150.806 242.222 150.806L243.143 150.824C256.367 151.316 266.724 162.484 266.238 175.719C265.745 188.671 255.215 198.819 242.263 198.819Z" fill="#FFFCF6"/>
<path d="M302.124 150.338C290.731 150.338 281.474 159.264 281.046 170.663C280.831 176.293 282.83 181.674 286.664 185.804C290.499 189.94 295.718 192.332 301.354 192.541L302.165 192.558C313.552 192.558 322.809 183.632 323.243 172.233C323.452 166.603 321.453 161.221 317.619 157.086C313.784 152.956 308.571 150.563 302.935 150.355L302.124 150.338ZM302.165 195.454L301.244 195.437C294.837 195.199 288.906 192.477 284.544 187.779C280.183 183.076 277.906 176.959 278.15 170.547C278.636 157.595 289.167 147.441 302.124 147.441L303.045 147.459C309.451 147.696 315.383 150.419 319.745 155.116C324.106 159.82 326.377 165.936 326.139 172.349C325.647 185.3 315.116 195.454 302.165 195.454Z" fill="#FFFCF6"/>
<path d="M220.406 170.605C220.232 170.605 220.046 170.571 219.873 170.501L211.097 167.037C210.35 166.742 209.985 165.902 210.28 165.161C210.576 164.413 211.404 164.054 212.157 164.344L220.938 167.813C221.686 168.103 222.045 168.949 221.749 169.69C221.523 170.258 220.985 170.605 220.406 170.605Z" fill="#FFFCF6"/>
<path d="M323.856 166.774C323.231 166.774 322.646 166.363 322.466 165.72C322.246 164.956 322.692 164.156 323.462 163.936L335.661 160.443C336.443 160.229 337.237 160.669 337.451 161.44C337.671 162.21 337.225 163.009 336.455 163.229L324.25 166.716C324.123 166.757 323.984 166.774 323.856 166.774Z" fill="#FFFCF6"/>
<path d="M263.094 70.773C263.094 70.773 266.419 129.884 282.713 135.248C299.007 140.617 339.067 139.146 341.002 132.682C342.936 126.212 309.937 74.1847 286.258 65.8437C244.733 51.2122 208.889 118.728 213.627 134.993C218.366 151.264 254.047 137.026 261.658 134.935C269.275 132.844 261.571 82.4562 263.094 70.773Z" fill="#000C3E"/>
<path d="M264.797 175.837C264.044 175.837 263.412 175.257 263.355 174.504C263.291 173.705 263.887 173.01 264.681 172.946L279.544 171.788C280.436 171.649 281.039 172.326 281.097 173.114C281.16 173.914 280.569 174.609 279.77 174.672L264.913 175.831C264.872 175.837 264.832 175.837 264.797 175.837Z" fill="#FFFCF6"/>
<path d="M247.162 54.5476C246.82 54.5476 246.484 54.4665 246.166 54.3043C238.195 50.1917 233.44 44.4573 232.038 37.2632C228.962 21.4732 243.304 4.54783 243.918 3.83537C244.7 2.91439 246.067 2.81012 246.982 3.60368C247.892 4.38565 247.996 5.75265 247.214 6.66205C247.075 6.82424 233.625 22.7243 236.307 36.4406C237.442 42.262 241.433 46.9712 248.158 50.4466C249.224 50.9969 249.641 52.306 249.091 53.3718C248.708 54.119 247.95 54.5476 247.162 54.5476Z" fill="#000C3E"/>
<path d="M278.601 59.4011C277.987 59.4011 277.367 59.1347 276.939 58.6192C276.168 57.704 276.29 56.337 277.211 55.5666C277.367 55.4276 293.256 41.9487 292.862 27.9775C292.7 22.0519 289.537 16.7519 283.473 12.2222C282.511 11.504 282.314 10.1428 283.032 9.18124C283.756 8.21392 285.106 8.02856 286.073 8.74102C293.256 14.1105 297.009 20.5459 297.206 27.8732C297.647 43.9529 280.715 58.2948 279.991 58.8972C279.586 59.2389 279.094 59.4011 278.601 59.4011Z" fill="#000C3E"/>
<path d="M356.459 242.71C355.81 242.71 355.167 242.42 354.738 241.87C354.003 240.92 354.171 239.559 355.121 238.823C355.868 238.238 373.453 224.209 368.854 200.576C367.053 191.32 363.751 181.073 360.247 170.224C354.147 151.323 347.84 131.774 347.73 112.903C347.724 111.704 348.691 110.725 349.89 110.719H349.902C351.095 110.719 352.068 111.686 352.074 112.879C352.178 131.079 358.382 150.304 364.377 168.892C367.922 179.868 371.27 190.231 373.117 199.748C378.238 226.057 358.619 241.609 357.785 242.258C357.385 242.565 356.922 242.71 356.459 242.71Z" fill="#000C3E"/>
<path d="M363.7 143.634C363.613 143.634 363.527 143.628 363.434 143.616C362.246 143.471 361.401 142.388 361.546 141.195C364.476 117.33 359.929 97.8044 348.02 83.1613C328.836 59.5689 296.688 56.6322 296.364 56.6148C295.171 56.5106 294.284 55.4621 294.377 54.2631C294.481 53.0757 295.53 52.1779 296.723 52.2821C298.113 52.3922 330.991 55.3637 351.363 80.3867C364.059 95.9798 368.937 116.624 365.855 141.728C365.722 142.823 364.783 143.634 363.7 143.634Z" fill="#000C3E"/>
<path d="M275.213 228.392C271.141 228.392 267.996 227.1 267.793 227.019C266.687 226.556 266.171 225.287 266.634 224.181C267.092 223.075 268.384 222.577 269.467 223.005C269.525 223.028 275.45 225.432 280.617 222.855C281.677 222.327 282.998 222.75 283.531 223.833C284.058 224.905 283.623 226.208 282.552 226.747C280.055 227.992 277.489 228.392 275.213 228.392Z" fill="#EE9B68"/>
<path d="M205.758 187.897C205.55 187.897 205.335 187.868 205.127 187.799C203.974 187.451 203.331 186.241 203.684 185.094C207.635 172.113 198.176 163.494 198.083 163.407C197.191 162.614 197.11 161.235 197.909 160.337C198.703 159.439 200.07 159.358 200.979 160.163C201.454 160.586 212.593 170.752 207.832 186.356C207.554 187.295 206.691 187.897 205.758 187.897Z" fill="#EE9B68"/>
<path d="M334.56 194.261C334.496 194.261 334.438 194.261 334.369 194.255C333.176 194.145 332.289 193.097 332.394 191.898C333.824 175.615 341.905 167.031 342.247 166.672C343.081 165.815 344.442 165.791 345.311 166.614C346.18 167.437 346.209 168.809 345.386 169.678C345.311 169.759 338.012 177.608 336.726 192.28C336.622 193.41 335.672 194.261 334.56 194.261Z" fill="#EE9B68"/>
<path d="M207.996 291.175C207.996 291.175 257.318 350.142 295.356 334.363C333.389 318.585 369.024 275.814 349.903 270.137C330.783 264.467 178.096 267.45 207.996 291.175Z" fill="#FFCEB0"/>
<path d="M340.352 211.727C340.352 211.727 355.232 319.569 341.319 331.757C327.412 343.944 309.82 333.274 286.211 341.355C262.601 349.429 261.79 316.644 263.412 299.823C265.034 283.002 272.732 176.162 340.352 211.727Z" fill="white"/>
<path d="M76.5052 378.639L47.3174 464.817L260.025 536.863C260.025 536.863 292.561 454.275 288.466 452.891C284.376 451.501 76.5052 378.639 76.5052 378.639Z" fill="#128E5A"/>
<path d="M118.543 482.883C118.543 482.883 154.913 457.756 153.639 464.145C152.371 470.54 138.301 482.883 138.301 482.883C138.301 482.883 163.851 463.108 165.519 472.995C167.187 482.883 158.221 492.267 158.221 492.267C158.221 492.267 176.195 477.942 179.097 485.351C181.999 492.759 158.806 525.527 138.301 524.577C117.802 523.627 108.517 489.579 118.543 482.883Z" fill="#FFC6A6"/>
<path d="M131.998 434.436L211.632 466.874C211.632 466.874 225.493 424.728 222.886 419.857C220.274 414.98 191.567 413.167 183.695 405.428C175.829 397.695 178.667 388.242 165.519 389.881C152.37 391.521 131.998 434.436 131.998 434.436Z" fill="white"/>
<path d="M277.145 221.294C276.902 221.294 276.647 221.254 276.404 221.167C270.119 218.89 267.003 216.087 266.887 212.6C266.702 207.033 274.672 203.245 276.271 202.539C277.377 202.064 278.651 202.55 279.132 203.651C279.619 204.751 279.121 206.031 278.02 206.512C275.13 207.792 271.168 210.567 271.231 212.455C271.249 212.976 271.782 214.871 277.887 217.077C279.011 217.489 279.596 218.734 279.19 219.864C278.866 220.744 278.032 221.294 277.145 221.294Z" fill="#EE9B68"/>
<path d="M250.978 179.819C250.462 179.819 249.953 179.64 249.541 179.275C240.447 171.247 234.07 173.396 233.809 173.483C232.715 173.876 231.44 173.32 231.029 172.208C230.606 171.09 231.151 169.857 232.263 169.422C232.616 169.283 241.183 166.097 252.414 176.02C253.312 176.813 253.399 178.186 252.606 179.084C252.177 179.57 251.58 179.819 250.978 179.819Z" fill="#41294A"/>
<path d="M295.62 180.312C295.017 180.312 294.421 180.063 293.992 179.576C293.199 178.678 293.286 177.306 294.183 176.512C305.392 166.607 313.976 169.77 314.329 169.915C315.453 170.349 316.009 171.612 315.569 172.724C315.14 173.842 313.883 174.404 312.783 173.969C312.464 173.859 306.098 171.78 297.056 179.767C296.645 180.132 296.135 180.312 295.62 180.312Z" fill="#41294A"/>
<path d="M436.564 472.554C436.564 472.554 463.26 506.529 504.514 482.261C548.127 445.438 557.902 397.325 540.04 360.886C517.05 322.235 460.253 279.556 445.718 279.628C431.176 279.706 380.49 417.674 436.564 472.554Z" fill="#D9423D"/>
<path d="M383.791 223.92C383.791 223.92 327.373 199.772 306.521 205.367C285.668 210.962 326.145 216.274 334.393 220.271C342.642 224.262 304.169 217.658 299.355 220.711C294.548 223.758 334.335 235.036 334.335 235.036C334.335 235.036 299.066 234.005 296.662 239.345C294.258 244.686 329.128 250.733 329.128 250.733C329.128 250.733 302.559 255.147 303.288 260.823C304.012 266.494 353.039 264.727 369.061 285.024C385.077 305.326 407.794 416.007 475.061 405.858C542.322 395.71 541.685 354.248 493.174 301.028C444.663 247.814 403.357 233.263 383.791 223.92Z" fill="#FFC6A6"/>
<path d="M274.332 8.62869C273.679 8.62869 272.969 8.70456 272.201 8.85629C270.327 9.23231 269.114 10.1427 268.385 11.7226C265.136 18.7549 271.986 35.5045 276.881 45.3999C279.906 34.4226 283.531 16.0733 278.409 10.2911C277.422 9.17953 276.08 8.62869 274.332 8.62869ZM277.452 53.6592C276.637 53.6592 275.875 53.2205 275.473 52.4948C273.741 49.391 258.727 21.8258 264.268 9.82273C265.601 6.93658 268.038 5.06306 271.314 4.40997C276.895 3.29839 280.101 5.35992 281.803 7.28292C290.702 17.33 280.77 48.573 279.609 52.1023C279.326 52.9566 278.567 53.5635 277.67 53.6493C277.597 53.6559 277.525 53.6592 277.452 53.6592Z" fill="#FFD310"/>
<path d="M304.897 19.7826C304.683 19.7826 304.465 19.7958 304.247 19.8288C296.585 20.848 287.326 37.0995 282.431 47.3808C292.607 43.0961 308.746 34.9126 310.89 27.4713C311.372 25.7957 311.049 24.3147 309.878 22.804C308.301 20.7754 306.668 19.7826 304.897 19.7826ZM278.081 53.8029C277.47 53.8029 276.873 53.5588 276.441 53.1036C275.818 52.4505 275.64 51.4939 275.986 50.6627C277.418 47.2356 290.341 17.1076 303.647 15.333C306.197 14.9933 309.967 15.5276 313.457 20.0201C315.508 22.6589 316.128 25.6703 315.248 28.7247C311.586 41.4271 282.194 52.4505 278.856 53.6676C278.602 53.76 278.341 53.8029 278.081 53.8029Z" fill="#FFD310"/>
<path d="M235.511 45.7941C246.526 52.8748 271.702 58.382 291.37 45.7941" stroke="#FFD310" stroke-width="4.87"/>
<defs>
<linearGradient id="paint0_linear" x1="15.1473" y1="445.633" x2="46.866" y2="555.768" gradientUnits="userSpaceOnUse">
<stop stop-color="#FFCBCB"/>
<stop offset="1" stop-color="#FFF1F1"/>
</linearGradient>
<linearGradient id="paint1_linear" x1="486.5" y1="186" x2="158.305" y2="33.7738" gradientUnits="userSpaceOnUse">
<stop stop-color="white"/>
<stop offset="1" stop-color="#FFDDDD"/>
</linearGradient>
<linearGradient id="paint2_linear" x1="532.289" y1="155.009" x2="439.14" y2="85.1444" gradientUnits="userSpaceOnUse">
<stop stop-color="#FFDDDD"/>
<stop offset="1" stop-color="#FFFBFC"/>
</linearGradient>
<linearGradient id="paint3_linear" x1="504.798" y1="498.071" x2="15.1593" y2="214.523" gradientUnits="userSpaceOnUse">
<stop stop-color="#FFE6E6"/>
<stop offset="1" stop-color="#FFF5F5"/>
</linearGradient>
</defs>
</svg>
