<svg width="558" height="585" viewBox="0 0 558 585" fill="none" xmlns="http://www.w3.org/2000/svg">
<path d="M207.42 557.802C177.293 568.477 146.873 573.409 114.426 567.244C78.2602 560.37 46.8911 529.42 29.1666 498.555C22.5809 487.09 17.338 474.28 18.0231 461.08C19.6172 430.584 48.4269 427.176 72.8819 432.109C86.6672 434.883 99.325 441.197 111.839 447.45C132.616 457.84 156.987 462.949 175.613 477.35C181.864 482.196 186.558 488.018 193.82 491.544C205.118 497.033 218.014 499.624 229.618 504.62C239.526 508.906 250.6 515.957 250.615 526.747C250.616 537.813 239.071 544.865 228.927 549.271C221.746 552.409 214.598 555.271 207.42 557.802Z" fill="url(#paint0_linear)"/>
<path d="M96.5248 164.448C145.879 91.7149 247.933 62.5113 330.655 89.8573C370.544 103.051 403.974 130.523 434.808 159.041C461.987 184.176 488.354 211.287 506.915 243.6C519.588 265.656 528.659 292.095 535.064 316.777C544.641 353.735 535.944 401.355 488.169 397.866C476.96 397.048 467.263 393.018 456.78 389.491C448.3 386.633 439.99 388.347 431.186 386.951C409.026 383.442 387.677 375.283 367.49 365.727C326.349 346.234 288.758 319.75 246.448 302.668C211.775 288.687 174.747 281.469 137.361 281.403C121.589 281.377 105.005 282.481 90.8963 275.429C56.1223 258.03 71.7598 211.116 84.7468 184.725C88.1875 177.696 92.1234 170.919 96.5248 164.448Z" fill="url(#paint1_linear)"/>
<path d="M483.489 175.426C491.614 182.785 523.538 202.875 524.152 179.3C524.297 173.426 521.634 167.724 518.008 163.422C513.86 158.485 509.158 155.896 505.919 150.144C501.955 143.199 497.444 136.672 492.443 130.647C482.219 118.107 470.283 106.52 455.8 101.358C445.641 97.7415 428.443 98.651 423.617 111.67C416.587 130.622 446.646 134.095 455.813 141.002C464.513 147.539 469.44 158.773 476.332 167.7C478.51 170.515 480.906 173.102 483.489 175.426Z" fill="url(#paint2_linear)"/>
<path d="M333.238 152.375C350.448 162.507 363.359 177.674 379.05 189.889C405.174 210.223 440.982 214.383 470.94 228.524C501.488 242.951 524.554 265.373 534.984 297.69C548.457 339.402 549.737 389.008 538.29 431.892C525.684 479.096 496.08 510.452 452.796 531.362C409.537 552.261 361.615 562.013 313.819 564.025C309.207 564.223 304.602 564.33 299.979 564.36C196.147 564.963 57.9392 528.415 22.5885 416.872C22.2645 415.853 21.954 414.834 21.6425 413.801C17.9999 401.374 15.8582 388.555 15.263 375.619C13.0395 329.759 21.066 279.14 37.1443 236.148C47.9585 207.204 71.245 182.731 95.7827 165.293C130.258 140.795 172.323 134.543 214.19 131.604C245.192 129.428 280.06 128.634 309.377 140.492C317.617 143.851 325.593 147.823 333.238 152.375Z" fill="url(#paint3_linear)"/>
<path d="M405.553 554.465C272.463 593.163 161.555 555.847 122.738 532.352L86.6926 504.71L99.1698 483.979L176.805 477.069L305.736 470.159L409.712 490.89L517.847 454.956H528.938C512.302 511.344 439.749 544.79 405.553 554.465Z" fill="#FB4C47"/>
<path d="M131.119 479.7H447.999C447.999 479.7 459.094 297.505 418.723 270.844C378.358 244.189 189.577 249.756 147.736 272.523C105.896 295.297 131.119 479.7 131.119 479.7Z" fill="#FB4C47"/>
<path d="M183.878 232.455C183.415 232.455 182.953 232.306 182.573 231.987C181.697 231.277 161.38 214.175 172.502 179.707C176.384 167.654 180.189 159.12 183.547 151.582C189.598 138.015 193.97 128.214 194.796 107.264C194.846 106.124 195.732 105.27 196.944 105.276C198.083 105.325 198.97 106.283 198.926 107.423C198.061 129.172 193.326 139.804 187.324 153.261C184.004 160.705 180.249 169.135 176.422 180.973C166.165 212.787 184.99 228.639 185.183 228.794C186.064 229.515 186.201 230.814 185.474 231.695C185.067 232.196 184.472 232.455 183.878 232.455Z" fill="#000C3E"/>
<path d="M296.359 26.888C295.825 41.1928 283.794 52.3481 269.489 51.814C255.19 51.2799 244.029 39.2491 244.563 24.9499C245.103 10.6451 257.128 -0.515719 271.433 0.0183696C285.732 0.557966 296.893 12.5832 296.359 26.888Z" fill="#000C3E"/>
<path d="M181.556 222.389C181.556 222.389 189.16 238.07 220.203 243.582C251.252 249.099 275.616 237.866 299.584 246.56C323.552 255.249 358.18 243.923 365.046 233.852C371.907 223.782 370.469 112.256 351.573 93.5521C332.67 74.8535 233.649 59.2438 212.192 81.1249C190.735 103.012 167.945 209.829 181.556 222.389Z" fill="#000C3E"/>
<path d="M360.807 134.4C359.04 181.532 319.402 218.312 272.27 216.545C225.138 214.778 188.357 175.139 190.125 128.002C191.892 80.8699 231.53 44.0948 278.662 45.8623C325.794 47.6242 362.575 87.2679 360.807 134.4Z" fill="#000C3E"/>
<path d="M205.738 128C205.738 128 209.251 231.663 279.332 236.139C349.419 240.61 349.348 94.5561 323.987 80.6642C298.62 66.7724 192.782 69.3768 205.738 128Z" fill="#FFCEB0"/>
<path d="M277.697 150.19C277.697 150.19 291.082 182.098 287.636 184.212C284.194 186.326 274.113 185.946 271.398 183.601C268.684 181.255 272.224 146.622 277.697 150.19Z" fill="#EE9B68"/>
<path d="M256.709 171.497C256.533 175.131 253.444 177.928 249.81 177.752C246.182 177.576 243.379 174.487 243.555 170.853C243.732 167.224 246.821 164.421 250.455 164.598C254.083 164.774 256.886 167.863 256.709 171.497Z" fill="#41294A"/>
<path d="M313.244 168.396C313.068 172.03 309.979 174.827 306.345 174.651C302.716 174.475 299.914 171.386 300.09 167.752C300.266 164.123 303.355 161.321 306.989 161.497C310.618 161.673 313.42 164.762 313.244 168.396Z" fill="#41294A"/>
<path d="M260.922 72.7163C260.922 72.7163 235.792 84.8682 231.013 107.68C226.228 130.497 228.706 188.911 202.078 186.229C202.078 186.229 150.525 70.624 260.922 72.7163Z" fill="#000C3E"/>
<path d="M274.167 73.2132C271.887 74.8485 300.078 74.777 316.195 94.318C332.316 113.854 336.143 162.687 338.632 163.59C341.126 164.498 351.081 103.084 333.407 84.6328C315.738 66.182 287.139 63.9245 274.167 73.2132Z" fill="#000C3E"/>
<path d="M254.198 226.685C254.198 226.685 281.464 242.191 309.776 227.699C309.776 227.699 311.978 245.103 309.776 249.117C307.573 253.131 262.732 256 253.906 236.216C253.906 236.216 251.648 225.827 254.198 226.685Z" fill="#EE9B68"/>
<path d="M332.59 167.755C332.59 167.755 339.302 141.805 351.002 151.039C362.708 160.278 352.12 187.396 340.552 189.857C328.984 192.318 326.198 181.135 332.59 167.755Z" fill="#FFCEB0"/>
<path d="M222.053 163.613C222.053 163.613 217.301 137.233 204.94 145.569C192.579 153.9 201.108 181.739 212.461 185.059C223.815 188.373 227.421 177.433 222.053 163.613Z" fill="#FFCEB0"/>
<path d="M304.035 134.317C304.035 134.317 316.578 128.073 323.989 137.648C330.508 146.061 315.345 139.008 309.673 139.944C304.008 140.88 296.569 140.236 304.035 134.317Z" fill="#41294A"/>
<path d="M254.743 135.525C254.743 135.525 242.179 129.325 234.8 138.927C228.314 147.363 243.45 140.254 249.122 141.168C254.793 142.088 262.232 141.416 254.743 135.525Z" fill="#41294A"/>
<path d="M249.578 146.103C238.753 146.103 229.955 154.588 229.542 165.424C229.344 170.776 231.243 175.891 234.888 179.823C238.533 183.749 243.489 186.023 248.846 186.221L249.617 186.237C260.447 186.237 269.246 177.752 269.654 166.922C269.857 161.57 267.958 156.449 264.313 152.524C260.668 148.592 255.707 146.318 250.349 146.12L249.578 146.103ZM249.617 188.99L248.741 188.974C242.652 188.748 237.014 186.16 232.867 181.695C228.721 177.224 226.563 171.409 226.789 165.314C227.257 153.003 237.267 143.35 249.578 143.35L250.454 143.367C256.544 143.593 262.182 146.181 266.328 150.646C270.474 155.122 272.632 160.931 272.407 167.032C271.944 179.344 261.934 188.99 249.617 188.99Z" fill="#FFFCF6"/>
<path d="M306.522 142.906C295.698 142.906 286.899 151.391 286.486 162.227C286.073 173.283 294.734 182.616 305.79 183.023L306.561 183.04C317.386 183.04 326.185 174.555 326.598 163.719C326.796 158.367 324.896 153.252 321.251 149.321C317.606 145.395 312.651 143.121 307.293 142.923L306.522 142.906ZM306.561 185.793L305.686 185.776C293.11 185.308 283.265 174.693 283.733 162.117C284.201 149.805 294.211 140.153 306.522 140.153L307.398 140.169C313.488 140.395 319.126 142.983 323.272 147.448C327.418 151.919 329.576 157.734 329.351 163.829C328.883 176.141 318.873 185.793 306.561 185.793Z" fill="#FFFCF6"/>
<path d="M228.84 162.172C228.675 162.172 228.499 162.139 228.334 162.073L219.992 158.78C219.282 158.499 218.935 157.701 219.216 156.996C219.496 156.286 220.284 155.945 221 156.22L229.347 159.518C230.057 159.793 230.398 160.597 230.118 161.302C229.903 161.842 229.391 162.172 228.84 162.172Z" fill="#FFFCF6"/>
<path d="M327.183 158.53C326.588 158.53 326.032 158.139 325.861 157.528C325.652 156.801 326.076 156.042 326.808 155.832L338.404 152.512C339.147 152.308 339.902 152.727 340.105 153.459C340.315 154.191 339.891 154.951 339.158 155.161L327.557 158.475C327.436 158.514 327.304 158.53 327.183 158.53Z" fill="#FFFCF6"/>
<path d="M269.423 67.275C269.423 67.275 272.584 123.464 288.072 128.563C303.561 133.667 341.641 132.269 343.48 126.124C345.319 119.974 313.951 70.518 291.442 62.5893C251.969 48.681 217.897 112.86 222.401 128.321C226.905 143.787 260.823 130.253 268.058 128.266C275.298 126.278 267.975 78.3807 269.423 67.275Z" fill="#000C3E"/>
<path d="M271.038 167.145C270.322 167.145 269.722 166.595 269.667 165.879C269.607 165.119 270.174 164.458 270.928 164.398L285.057 163.297C285.883 163.164 286.483 163.809 286.532 164.557C286.593 165.317 286.031 165.978 285.271 166.039L271.148 167.14C271.11 167.145 271.071 167.145 271.038 167.145Z" fill="#FFFCF6"/>
<path d="M254.274 51.8511C253.95 51.8511 253.63 51.7741 253.327 51.6199C245.751 47.7106 241.231 42.2596 239.898 35.421C236.974 20.4115 250.607 4.32273 251.191 3.64549C251.94 2.77002 253.234 2.67091 254.104 3.42524C254.968 4.16856 255.067 5.46799 254.324 6.33245C254.192 6.48662 241.407 21.6008 243.956 34.6392C245.035 40.1728 248.829 44.6492 255.221 47.9528C256.235 48.4759 256.631 49.7203 256.108 50.7334C255.745 51.4437 255.023 51.8511 254.274 51.8511Z" fill="#000C3E"/>
<path d="M358.168 230.712C357.551 230.712 356.94 230.437 356.532 229.914C355.833 229.011 355.993 227.717 356.896 227.018C357.606 226.462 374.323 213.126 369.951 190.661C368.238 181.863 365.1 172.122 361.769 161.809C355.971 143.843 349.975 125.26 349.87 107.321C349.865 106.182 350.784 105.251 351.924 105.246H351.935C353.069 105.246 353.994 106.165 354 107.299C354.099 124.599 359.996 142.874 365.695 160.543C369.064 170.977 372.247 180.827 374.003 189.874C378.871 214.882 360.222 229.666 359.429 230.283C359.049 230.575 358.608 230.712 358.168 230.712Z" fill="#000C3E"/>
<path d="M365.051 136.534C364.969 136.534 364.886 136.528 364.798 136.517C363.669 136.379 362.866 135.35 363.003 134.216C365.789 111.531 361.467 92.9696 350.146 79.0502C331.91 56.624 301.352 53.8324 301.043 53.8159C299.909 53.7168 299.067 52.7202 299.155 51.5805C299.254 50.4517 300.272 49.5983 301.385 49.6974C302.706 49.802 333.959 52.6266 353.323 76.4128C365.393 91.2352 370.029 110.859 367.1 134.722C366.973 135.763 366.081 136.534 365.051 136.534Z" fill="#000C3E"/>
<path d="M281.245 216.102C278.921 216.102 276.454 216.025 274.604 215.959C273.465 215.909 272.578 214.951 272.622 213.812C272.661 212.672 273.536 211.752 274.764 211.829C279.516 212.017 285.275 212.039 286.321 211.736C287.395 211.433 288.557 212.011 288.904 213.074C289.245 214.131 288.738 215.254 287.698 215.629C286.696 215.987 284.08 216.102 281.245 216.102Z" fill="#EE9B68"/>
<path d="M214.921 178.609C214.722 178.609 214.519 178.581 214.32 178.515C213.225 178.185 212.613 177.034 212.949 175.944C216.704 163.605 207.713 155.412 207.625 155.329C206.777 154.575 206.7 153.265 207.46 152.411C208.214 151.558 209.519 151.481 210.378 152.246C210.829 152.648 221.418 162.311 216.892 177.144C216.627 178.036 215.807 178.609 214.921 178.609Z" fill="#EE9B68"/>
<path d="M337.354 184.659C337.293 184.659 337.238 184.659 337.172 184.654C336.038 184.549 335.195 183.553 335.294 182.413C336.654 166.935 344.335 158.775 344.66 158.434C345.453 157.619 346.747 157.597 347.573 158.379C348.399 159.161 348.426 160.466 347.644 161.292C347.573 161.369 340.635 168.829 339.413 182.776C339.314 183.85 338.411 184.659 337.354 184.659Z" fill="#EE9B68"/>
<path d="M217.043 276.78C217.043 276.78 263.927 332.832 300.086 317.834C336.238 302.835 370.112 262.178 351.936 256.782C333.761 251.392 188.621 254.228 217.043 276.78Z" fill="#FFCEB0"/>
<path d="M340.872 350.85C340.872 350.85 313.551 326.315 284.985 340.185C256.42 354.049 265.114 382.852 239.032 377.516C212.949 372.181 165.691 380.242 176.934 408.449C188.177 436.657 116.257 458.725 143.578 494.994C170.899 531.257 244.642 503.38 267.3 510.851C289.952 518.318 343.355 521.517 349.566 500.181C355.777 478.85 395.52 475.651 389.309 447.917C383.098 420.183 376.887 381.784 340.872 350.85Z" fill="white"/>
<path d="M250.621 415.381C250.621 415.381 278.515 448.875 278.443 481.113C278.399 501.639 263.291 467.045 258.104 460.041C252.923 453.043 269.276 483.194 263.858 492.846C261.209 497.57 244.322 462.695 244.322 462.695C244.322 462.695 251.491 495.462 246.921 498.644C242.357 501.832 230.574 470.321 230.574 470.321C230.574 470.321 231.124 495.919 225.695 496.238C220.272 496.557 222.221 470.249 200.444 458.857C178.662 447.465 79.4486 526.312 77.092 461.693C74.7354 397.074 103.846 374.686 171.279 386.419C224.495 395.681 232.892 401.55 250.621 415.381Z" fill="#FFC6A6"/>
<path d="M312.658 415.381C312.658 415.381 284.764 448.875 284.835 481.113C284.879 501.639 299.988 467.045 305.175 460.041C310.356 453.043 294.003 483.194 299.421 492.846C302.069 497.57 318.956 462.695 318.956 462.695C318.956 462.695 311.788 495.462 316.358 498.644C320.922 501.832 332.705 470.321 332.705 470.321C332.705 470.321 332.155 495.919 337.584 496.238C343.007 496.557 341.058 470.249 362.834 458.857C384.616 447.465 496.417 534.059 498.774 469.44C501.125 404.821 459.433 374.686 392 386.419C338.784 395.681 330.387 401.55 312.658 415.381Z" fill="#FFC6A6"/>
<path d="M343.706 471.703C343.706 471.703 344.301 415.013 375.284 415.381C406.266 415.756 420.995 443.446 391.835 459.777C362.675 476.113 342.886 482.77 343.706 471.703Z" fill="white"/>
<path d="M367.084 436.401C367.084 436.401 372.034 447.925 383.723 449.082C395.407 450.238 421.974 449.082 424.287 465.831C426.594 482.581 412.707 505.679 395.683 503.372C378.663 501.059 361.187 497.585 346.833 507.204C332.478 516.823 346.844 429.497 367.084 436.401Z" fill="white"/>
<path d="M396.564 346.58C396.564 354.234 390.358 360.439 382.705 360.439C375.046 360.439 368.841 354.234 368.841 346.58C368.841 338.927 375.046 332.722 382.705 332.722C390.358 332.722 396.564 338.927 396.564 346.58Z" fill="white"/>
<path d="M235.859 346.58C235.859 354.234 229.653 360.439 222 360.439C214.341 360.439 208.136 354.234 208.136 346.58C208.136 338.927 214.341 332.722 222 332.722C229.653 332.722 235.859 338.927 235.859 346.58Z" fill="white"/>
<path d="M279.959 202.745C269.377 202.745 260.066 195.428 259.636 195.075C258.739 194.371 258.596 193.071 259.306 192.179C260.011 191.293 261.31 191.138 262.202 191.849C262.312 191.931 272.779 200.119 282.966 198.362C287.877 197.498 292.012 194.387 295.261 189.112C295.861 188.138 297.144 187.829 298.102 188.435C299.076 189.035 299.374 190.307 298.779 191.276C294.881 197.608 289.793 201.363 283.659 202.431C282.415 202.646 281.182 202.745 279.959 202.745Z" fill="#EE9B68"/>
<path d="M196.278 261.038C196.278 261.038 157.124 316.193 155.982 348.606C154.84 381.019 119.798 394.689 129.729 441.389C133.645 459.778 144.647 485.839 134.098 496.121C106.616 522.908 80.086 503.496 75.5072 496.121C42.403 442.766 82.4828 316.612 117.358 288.54C143.665 261.038 196.278 261.038 196.278 261.038Z" fill="#D9423D"/>
<path d="M378.031 258.648C378.031 258.648 421.567 314.556 422.767 346.006C423.967 377.456 460.791 390.72 450.355 436.033C446.24 453.876 427.093 480.011 447.042 489.14C470.655 499.943 508.34 492.996 513.151 485.84C560.981 430.836 497.187 319.366 460.538 292.129C428.253 265.822 378.031 258.648 378.031 258.648Z" fill="#D9423D"/>
<path d="M281.116 8.71674C280.472 8.71674 279.773 8.79151 279.016 8.94103C277.17 9.3116 275.973 10.2087 275.255 11.7658C272.053 18.6959 278.805 35.2022 283.628 44.9538C286.609 34.136 290.182 16.0532 285.133 10.355C284.162 9.25959 282.839 8.71674 281.116 8.71674ZM284.191 53.0932C283.388 53.0932 282.637 52.6609 282.24 51.9458C280.534 48.887 265.737 21.7222 271.198 9.89344C272.512 7.04921 274.914 5.2029 278.142 4.5593C283.641 3.46387 286.801 5.49546 288.478 7.39052C297.248 17.2917 287.461 48.0809 286.317 51.5589C286.037 52.4008 285.289 52.9989 284.405 53.0834C284.334 53.0899 284.262 53.0932 284.191 53.0932Z" fill="#FFD310"/>
<path d="M311.24 19.7081C311.029 19.7081 310.814 19.7211 310.6 19.7536C303.049 20.758 293.924 36.7734 289.101 46.9054C299.129 42.6829 315.034 34.6183 317.146 27.2851C317.621 25.6338 317.302 24.1743 316.148 22.6856C314.595 20.6865 312.986 19.7081 311.24 19.7081ZM284.813 53.2342C284.212 53.2342 283.624 52.9937 283.198 52.5451C282.583 51.9015 282.408 50.9588 282.749 50.1397C284.16 46.7624 296.895 17.0719 310.008 15.3231C312.521 14.9883 316.236 15.5149 319.675 19.9421C321.697 22.5425 322.308 25.5103 321.44 28.5203C317.832 41.0381 288.867 51.9015 285.577 53.1009C285.327 53.1919 285.07 53.2342 284.813 53.2342Z" fill="#FFD310"/>
<path d="M242.861 45.3415C253.715 52.3193 278.525 57.7466 297.908 45.3415" stroke="#FFD310" stroke-width="3.87"/>
<defs>
<linearGradient id="paint0_linear" x1="15.3488" y1="465.289" x2="46.6068" y2="573.824" gradientUnits="userSpaceOnUse">
<stop stop-color="#FFCECE"/>
<stop offset="1" stop-color="#FFF2F2"/>
</linearGradient>
<linearGradient id="paint1_linear" x1="77.4993" y1="97.5001" x2="487.884" y2="408.938" gradientUnits="userSpaceOnUse">
<stop stop-color="#FFDADA"/>
<stop offset="1" stop-color="white"/>
</linearGradient>
<linearGradient id="paint2_linear" x1="524.981" y1="178.886" x2="404.952" y2="127.619" gradientUnits="userSpaceOnUse">
<stop stop-color="#FFDFDF"/>
<stop offset="1" stop-color="#FFF5F5"/>
</linearGradient>
<linearGradient id="paint3_linear" x1="497.888" y1="516.965" x2="15.3615" y2="237.536" gradientUnits="userSpaceOnUse">
<stop stop-color="#FFE0E0"/>
<stop offset="1" stop-color="#FFF4F4"/>
</linearGradient>
</defs>
</svg>
