<svg width="549" height="575" viewBox="0 0 549 575" fill="none" xmlns="http://www.w3.org/2000/svg">
<path d="M203.917 548.352C174.282 558.852 144.359 563.703 112.442 557.639C76.8671 550.877 46.0108 520.433 28.5758 490.073C22.0978 478.795 16.9406 466.195 17.6145 453.21C19.1825 423.213 47.5214 419.861 71.5767 424.712C85.1367 427.441 97.5877 433.652 109.897 439.803C130.334 450.023 154.307 455.049 172.629 469.214C178.778 473.981 183.395 479.708 190.539 483.176C201.652 488.575 214.337 491.125 225.752 496.038C235.497 500.255 246.39 507.19 246.405 517.804C246.406 528.69 235.05 535.626 225.072 539.96C218.008 543.047 210.976 545.862 203.917 548.352Z" fill="url(#paint0_linear)"/>
<path d="M94.8337 161.426C143.381 89.8819 243.768 61.1555 325.138 88.0546C364.375 101.032 397.259 128.055 427.588 156.108C454.323 180.832 480.259 207.5 498.517 239.284C510.983 260.98 519.905 286.987 526.206 311.266C535.626 347.62 527.071 394.461 480.078 391.029C469.051 390.225 459.513 386.26 449.201 382.792C440.86 379.98 432.686 381.666 424.025 380.293C402.227 376.841 381.228 368.816 361.37 359.416C320.902 340.241 283.925 314.19 242.307 297.387C208.2 283.635 171.777 276.535 135.002 276.47C119.488 276.444 103.175 277.53 89.2972 270.593C55.0915 253.479 70.4735 207.332 83.2482 181.372C86.6326 174.458 90.5042 167.792 94.8337 161.426Z" fill="url(#paint1_linear)"/>
<path d="M475.473 172.225C483.465 179.464 514.867 199.225 515.472 176.035C515.615 170.258 512.994 164.648 509.428 160.417C505.348 155.561 500.722 153.014 497.536 147.356C493.638 140.525 489.2 134.104 484.281 128.178C474.224 115.843 462.483 104.445 448.236 99.3673C438.244 95.8098 421.326 96.7045 416.58 109.511C409.665 128.153 439.232 131.569 448.25 138.363C456.807 144.794 461.654 155.843 468.433 164.625C470.575 167.394 472.932 169.938 475.473 172.225Z" fill="url(#paint2_linear)"/>
<path d="M327.678 149.55C344.607 159.517 357.306 174.436 372.741 186.452C398.438 206.453 433.661 210.545 463.13 224.454C493.178 238.646 515.868 260.702 526.126 292.49C539.379 333.521 540.639 382.316 529.379 424.499C516.979 470.931 487.859 501.775 445.282 522.344C402.73 542.901 355.591 552.494 308.576 554.473C304.039 554.668 299.51 554.773 294.963 554.802C192.827 555.395 56.8782 519.444 22.1052 409.725C21.7865 408.722 21.481 407.72 21.1747 406.703C17.5916 394.48 15.4848 381.871 14.8994 369.146C12.7122 324.035 20.6075 274.243 36.4231 231.954C47.0605 203.483 69.9665 179.41 94.1031 162.257C128.015 138.16 169.393 132.01 210.575 129.118C241.071 126.979 275.369 126.197 304.207 137.862C312.312 141.166 320.157 145.073 327.678 149.55Z" fill="url(#paint3_linear)"/>
<path d="M398.811 545.069C267.896 583.135 158.801 546.429 120.618 523.318L85.1619 496.128L97.4351 475.736L173.802 468.938L300.625 462.141L402.902 482.533L509.27 447.186H520.179C503.815 502.653 432.449 535.553 398.811 545.069Z" fill="#FB4C47"/>
<path d="M130.981 492.896H456.565C456.565 492.896 467.964 305.696 426.485 278.303C385.011 250.916 191.045 256.636 148.055 280.029C105.065 303.427 130.981 492.896 130.981 492.896Z" fill="#FB4C47"/>
<path d="M185.187 238.86C184.717 238.86 184.242 238.708 183.846 238.379C182.952 237.65 162.077 220.078 173.493 184.663C177.487 172.279 181.402 163.511 184.848 155.766C191.065 141.832 195.557 131.756 196.411 110.23C196.456 109.059 197.627 108.182 198.612 108.188C199.783 108.239 200.694 109.223 200.648 110.394C199.766 132.74 194.889 143.665 188.723 157.497C185.317 165.14 181.453 173.801 177.533 185.964C167.038 218.517 185.736 234.436 186.539 235.098C187.439 235.845 187.569 237.18 186.828 238.08C186.409 238.594 185.798 238.86 185.187 238.86Z" fill="#000C3E"/>
<path d="M300.764 27.6485C300.216 42.3462 287.854 53.8079 273.157 53.2591C258.465 52.7103 246.997 40.3491 247.546 25.6571C248.1 10.9594 260.456 -0.507957 275.154 0.0408052C289.846 0.595218 301.313 12.9508 300.764 27.6485Z" fill="#000C3E"/>
<path d="M182.805 228.519C182.805 228.519 190.618 244.631 222.513 250.294C254.415 255.962 279.449 244.421 304.075 253.354C328.701 262.281 364.28 250.644 371.335 240.297C378.384 229.95 376.907 115.361 357.491 96.1432C338.07 76.931 236.329 60.8926 214.282 83.3747C192.236 105.863 168.82 215.614 182.805 228.519Z" fill="#000C3E"/>
<path d="M366.981 138.113C365.165 186.539 324.438 224.33 276.011 222.514C227.585 220.698 189.794 179.971 191.61 131.539C193.426 83.1125 234.153 45.3274 282.579 47.1434C331.006 48.9537 368.797 89.6863 366.981 138.113Z" fill="#000C3E"/>
<path d="M315.287 211.481C315.287 211.481 320.984 279.815 315.287 287.407C309.59 295 273.525 289.308 264.037 287.407C254.544 285.512 250.748 211.481 256.44 211.481C262.137 211.481 314.195 196.246 315.287 211.481Z" fill="#FFCEB0"/>
<path d="M207.651 131.538C207.651 131.538 211.26 238.048 283.267 242.647C355.278 247.241 355.205 97.1754 329.147 82.902C303.084 68.6286 194.339 71.3045 207.651 131.538Z" fill="#FFCEB0"/>
<path d="M281.587 154.337C281.587 154.337 295.34 187.121 291.799 189.294C288.263 191.466 277.904 191.076 275.115 188.666C272.326 186.256 275.964 150.671 281.587 154.337Z" fill="#EE9B68"/>
<path d="M260.021 165.31C259.84 169.043 256.667 171.917 252.933 171.736C249.205 171.555 246.325 168.382 246.506 164.648C246.687 160.92 249.861 158.04 253.595 158.221C257.323 158.402 260.202 161.576 260.021 165.31Z" fill="#41294A"/>
<path d="M318.108 162.122C317.927 165.856 314.753 168.73 311.02 168.549C307.291 168.368 304.412 165.194 304.593 161.46C304.774 157.732 307.948 154.852 311.681 155.033C315.41 155.214 318.289 158.388 318.108 162.122Z" fill="#41294A"/>
<path d="M264.35 74.7361C264.35 74.7361 238.53 87.2217 233.619 110.66C228.703 134.104 231.249 194.122 203.89 191.367C203.89 191.367 150.921 72.5863 264.35 74.7361Z" fill="#000C3E"/>
<path d="M277.96 75.2465C275.618 76.9268 304.583 76.8532 321.142 96.931C337.707 117.003 341.639 167.178 344.196 168.106C346.758 169.039 356.987 105.937 338.827 86.9798C320.673 68.0222 291.288 65.7027 277.96 75.2465Z" fill="#000C3E"/>
<path d="M257.442 232.933C257.442 232.933 285.457 248.864 314.547 233.974C314.547 233.974 316.81 251.857 314.547 255.981C312.284 260.105 266.211 263.052 257.142 242.726C257.142 242.726 254.823 232.05 257.442 232.933Z" fill="#EE9B68"/>
<path d="M337.988 172.384C337.988 172.384 344.885 145.721 356.906 155.208C368.934 164.701 358.055 192.563 346.169 195.092C334.283 197.621 331.42 186.131 337.988 172.384Z" fill="#FFCEB0"/>
<path d="M224.417 168.128C224.417 168.128 219.535 141.023 206.834 149.589C194.133 158.148 202.896 186.752 214.562 190.163C226.227 193.569 229.933 182.328 224.417 168.128Z" fill="#FFCEB0"/>
<path d="M308.647 138.027C308.647 138.027 321.535 131.612 329.149 141.45C335.848 150.094 320.267 142.847 314.44 143.809C308.619 144.77 300.976 144.109 308.647 138.027Z" fill="#41294A"/>
<path d="M258.004 139.269C258.004 139.269 245.094 132.899 237.513 142.765C230.849 151.432 246.401 144.129 252.228 145.068C258.055 146.012 265.698 145.322 258.004 139.269Z" fill="#41294A"/>
<path d="M252.699 150.141C241.571 150.141 232.531 158.859 232.112 169.992C231.909 175.491 233.855 180.747 237.606 184.781C241.351 188.82 246.442 191.156 251.947 191.36L252.739 191.377C263.867 191.377 272.907 182.659 273.32 171.531C273.529 166.032 271.578 160.771 267.833 156.737C264.087 152.698 258.996 150.361 253.491 150.158L252.699 150.141ZM252.739 194.206L251.839 194.189C245.582 193.957 239.789 191.298 235.529 186.71C231.269 182.116 229.052 176.142 229.284 169.879C229.759 157.229 240.044 147.312 252.699 147.312L253.599 147.329C259.856 147.561 265.649 150.22 269.909 154.808C274.163 159.402 276.386 165.376 276.149 171.644C275.679 184.294 265.394 194.206 252.739 194.206Z" fill="#FFFCF6"/>
<path d="M311.199 146.853C300.077 146.853 291.037 155.571 290.618 166.705C290.409 172.204 292.36 177.459 296.106 181.493C299.851 185.532 304.948 187.869 310.447 188.072L311.239 188.089C322.373 188.089 331.407 179.371 331.826 168.238C332.035 162.739 330.083 157.483 326.338 153.45C322.593 149.41 317.496 147.074 311.991 146.87L311.199 146.853ZM311.239 190.918L310.345 190.901C304.082 190.669 298.289 188.01 294.029 183.422C289.769 178.828 287.552 172.854 287.789 166.592C288.265 153.942 298.55 144.025 311.199 144.025L312.099 144.041C318.356 144.273 324.149 146.932 328.409 151.52C332.669 156.114 334.886 162.088 334.655 168.351C334.179 181.001 323.894 190.918 311.239 190.918Z" fill="#FFFCF6"/>
<path d="M231.39 166.647C231.214 166.647 231.039 166.613 230.869 166.545L222.293 163.162C221.568 162.874 221.212 162.053 221.495 161.329C221.783 160.6 222.609 160.249 223.333 160.532L231.91 163.92C232.634 164.203 232.991 165.029 232.702 165.753C232.487 166.308 231.955 166.647 231.39 166.647Z" fill="#FFFCF6"/>
<path d="M332.43 162.906C331.819 162.906 331.247 162.504 331.072 161.876C330.857 161.135 331.293 160.349 332.045 160.134L343.954 156.723C344.678 156.491 345.487 156.938 345.702 157.696C345.917 158.442 345.481 159.229 344.729 159.444L332.815 162.85C332.69 162.889 332.554 162.906 332.43 162.906Z" fill="#FFFCF6"/>
<path d="M273.086 69.1435C273.086 69.1435 276.333 126.876 292.247 132.115C308.161 137.359 347.287 135.922 349.177 129.609C351.066 123.29 318.836 72.4757 295.709 64.3292C255.152 50.0388 220.145 115.98 224.772 131.866C229.4 147.757 264.249 133.852 271.683 131.81C279.122 129.767 271.598 80.5543 273.086 69.1435Z" fill="#000C3E"/>
<path opacity="0.210007" d="M233.459 189.866C233.459 189.866 270.317 169.748 286.208 173.063C302.094 176.379 330.092 177.499 331.223 183.252C332.36 189.006 295.645 185.555 284.307 186.386C272.964 187.218 229.222 199.211 233.459 189.866Z" fill="#DB5C5D"/>
<path d="M254.174 177.083C253.319 177.083 252.51 176.563 252.188 175.714C251.775 174.617 252.324 173.395 253.421 172.976C256.714 171.731 257.444 170.719 257.449 170.713C257.857 169.615 259.016 169.169 260.114 169.587C261.217 169.989 261.715 171.335 261.308 172.438C260.974 173.344 259.701 175.131 254.926 176.947C254.677 177.038 254.423 177.083 254.174 177.083Z" fill="#EE9B68"/>
<path d="M309.87 175.553C308.62 175.553 306.651 175.14 303.641 173.584C302.6 173.053 302.193 171.768 302.73 170.727C303.268 169.692 304.546 169.279 305.587 169.817C308.733 171.44 309.972 171.31 309.966 171.299C311.058 170.891 312.155 171.44 312.585 172.532C313.015 173.618 312.348 174.897 311.262 175.327C310.956 175.446 310.509 175.553 309.87 175.553Z" fill="#EE9B68"/>
<path d="M274.744 171.757C274.014 171.757 273.392 171.191 273.335 170.456C273.279 169.675 273.856 168.996 274.636 168.934L289.147 167.802C289.951 167.678 290.613 168.323 290.669 169.098C290.731 169.879 290.149 170.558 289.368 170.62L274.857 171.751C274.817 171.757 274.784 171.757 274.744 171.757Z" fill="#FFFCF6"/>
<path d="M257.517 53.2969C257.189 53.2969 256.855 53.2177 256.55 53.0593C248.76 49.0426 244.121 43.4418 242.752 36.4155C239.742 20.9936 253.755 4.46299 254.349 3.76713C255.118 2.87894 256.459 2.77145 257.342 3.54084C258.23 4.30458 258.337 5.6397 257.574 6.5279C257.438 6.68631 244.296 22.2156 246.915 35.6121C248.03 41.2977 251.922 45.8971 258.49 49.2915C259.531 49.8289 259.944 51.1075 259.401 52.1484C259.028 52.8782 258.287 53.2969 257.517 53.2969Z" fill="#000C3E"/>
<path d="M288.231 58.0374C287.625 58.0374 287.02 57.7772 286.601 57.2737C285.849 56.3799 285.968 55.0447 286.867 54.2923C287.026 54.1565 302.538 40.992 302.153 27.3522C301.995 21.5648 298.906 16.3827 292.983 11.9587C292.044 11.2572 291.851 9.92769 292.553 8.98858C293.249 8.05512 294.595 7.86843 295.523 8.55862C302.544 13.8029 306.204 20.0882 306.396 27.2447C306.832 42.9494 290.29 56.9569 289.588 57.5453C289.192 57.879 288.706 58.0374 288.231 58.0374Z" fill="#000C3E"/>
<path d="M364.272 237.072C363.638 237.072 363.01 236.789 362.592 236.251C361.873 235.323 362.037 233.994 362.965 233.275C363.695 232.704 380.87 219.002 376.378 195.92C374.619 186.886 371.389 176.878 367.972 166.293C362.009 147.827 355.848 128.728 355.741 110.291C355.735 109.12 356.68 108.164 357.851 108.158H357.862C359.027 108.158 359.978 109.103 359.983 110.269C360.085 128.05 366.144 146.826 372.005 164.992C375.468 175.701 378.737 185.822 380.542 195.111C385.543 220.807 366.382 235.997 365.567 236.63C365.177 236.93 364.724 237.072 364.272 237.072Z" fill="#000C3E"/>
<path d="M371.342 140.305C371.257 140.305 371.172 140.299 371.082 140.288C369.922 140.147 369.096 139.089 369.238 137.923C372.1 114.598 367.648 95.516 356 81.2143C337.234 58.1552 305.893 55.3322 305.576 55.3152C304.405 55.2134 303.539 54.1894 303.635 53.024C303.732 51.8529 304.75 51.0043 305.927 51.0835C307.279 51.191 339.395 54.0932 359.292 78.5328C371.693 93.7623 376.456 113.925 373.447 138.444C373.317 139.513 372.4 140.305 371.342 140.305Z" fill="#000C3E"/>
<path d="M217.084 183.537C216.88 183.537 216.671 183.508 216.467 183.441C215.341 183.101 214.713 181.919 215.053 180.799C218.917 168.121 209.684 159.702 209.588 159.618C208.717 158.843 208.638 157.496 209.418 156.619C210.193 155.742 211.545 155.674 212.411 156.449C212.881 156.862 223.76 166.791 219.115 182.032C218.838 182.948 217.995 183.537 217.084 183.537Z" fill="#EE9B68"/>
<path d="M342.881 189.752C342.818 189.752 342.762 189.752 342.694 189.746C341.528 189.639 340.663 188.615 340.765 187.444C342.168 171.541 350.06 163.157 350.393 162.806C351.202 161.969 352.543 161.946 353.386 162.75C354.235 163.553 354.263 164.894 353.46 165.742C353.386 165.822 346.258 173.487 344.996 187.817C344.895 188.926 343.967 189.752 342.881 189.752Z" fill="#EE9B68"/>
<path d="M225.052 169.884C225.052 169.884 243.489 185.283 244.938 187.625C246.386 189.968 245.809 219.946 242.912 219.578C240.016 219.216 222.45 190.658 220.526 190.714C218.603 190.771 219.457 193.854 219.457 193.854C219.457 193.854 234.517 218.729 243.563 225.744C252.609 232.765 309.08 233.088 320.581 226.587C332.088 220.081 341.836 195.738 340.959 195.235C340.077 194.725 337.887 192.74 337.519 193.577C337.208 194.29 321.594 222.112 319.642 221.241C317.685 220.37 319.857 189.481 319.642 186.562C319.427 183.637 342.255 161.494 342.255 161.494L343.901 158.717L341.593 158.083C341.593 158.083 319.212 180.424 313.606 180.294C308 180.163 249.22 184.412 246.499 183.428C243.778 182.443 225.59 162.733 223.321 163.542C221.047 164.346 224.419 168.125 225.052 169.884Z" fill="#FFFCF6"/>
<path d="M217.686 284.324C217.686 284.324 265.858 341.915 303.009 326.504C340.155 311.094 374.959 269.32 356.284 263.776C337.609 258.238 188.483 261.151 217.686 284.324Z" fill="#FFCEB0"/>
<path d="M429.202 250.202C429.202 250.202 422.673 199.366 420.484 196.073C418.295 192.781 401.736 217.78 406.205 231.952C410.68 246.124 348.794 246.474 353.62 267.174C358.446 287.869 355.487 315.839 381.154 317.27C406.816 318.707 436.104 311.743 442.106 302.21C448.114 292.683 429.202 250.202 429.202 250.202Z" fill="url(#paint4_linear)"/>
<path d="M467.775 295.98C467.775 295.98 539.337 379.575 525.374 434.555C511.411 489.536 443.337 498.435 429.374 491.317C415.411 484.199 420.645 248.348 467.775 295.98Z" fill="#D9423D"/>
<path d="M136.66 285.523C136.66 285.523 49.8486 378.767 55.4832 461.997C60.1335 530.711 165.603 520.256 178.581 513.767C191.564 507.278 180.464 242.097 136.66 285.523Z" fill="#D9423D"/>
<path d="M434.156 262.288C434.156 262.288 521.296 434.649 497.36 464.157C473.423 493.666 430.875 497.038 413.897 472.564C403.98 458.279 417.829 332.059 403.188 316.586C388.547 301.114 429.511 254.169 434.156 262.288Z" fill="#FFCEB0"/>
<path d="M300.09 439.982C300.09 439.982 359.339 462.334 368.815 481.172C378.291 500.011 343.131 477.037 334.854 473.62C326.583 470.209 356.403 493.958 357.308 499.451C358.207 504.939 324.128 483.26 324.128 483.26C324.128 483.26 347.804 508.305 345.473 513.527C343.142 518.754 316.066 497.256 316.066 497.256C316.066 497.256 330.113 519.501 325.508 522.657C320.903 525.814 290.325 488.923 265.116 490.433C239.907 491.95 144.446 547.323 108.132 491.689C71.8118 436.055 102.457 409.574 172.783 410.349C243.109 411.129 280.561 431.79 300.09 439.982Z" fill="#FFCEB0"/>
<path d="M282.343 9.20771C281.71 9.20771 281.023 9.28125 280.278 9.42833C278.462 9.79284 277.285 10.6753 276.578 12.2069C273.429 19.0238 280.07 35.2603 284.815 44.8526C287.747 34.2115 291.261 16.4243 286.295 10.8192C285.339 9.74168 284.038 9.20771 282.343 9.20771ZM285.368 52.8589C284.578 52.8589 283.84 52.4337 283.449 51.7302C281.771 48.7215 267.216 22.0006 272.588 10.3652C273.88 7.56743 276.243 5.75129 279.418 5.1182C284.828 4.04067 287.935 6.03907 289.585 7.90316C298.212 17.6425 288.585 47.9285 287.459 51.3497C287.184 52.1779 286.449 52.7662 285.579 52.8493C285.509 52.8557 285.438 52.8589 285.368 52.8589Z" fill="#FFD310"/>
<path d="M311.974 20.0203C311.766 20.0203 311.555 20.0331 311.344 20.0651C303.917 21.0531 294.941 36.8068 290.196 46.7731C300.061 42.6197 315.705 34.6869 317.784 27.4735C318.251 25.8492 317.937 24.4136 316.802 22.9491C315.274 20.9827 313.691 20.0203 311.974 20.0203ZM285.979 52.9985C285.388 52.9985 284.809 52.7619 284.39 52.3207C283.786 51.6876 283.613 50.7603 283.949 49.9546C285.336 46.6324 297.864 17.4272 310.762 15.707C313.234 15.3776 316.889 15.8956 320.271 20.2505C322.26 22.8084 322.861 25.7277 322.008 28.6885C318.458 41.0018 289.966 51.6876 286.73 52.8674C286.484 52.9569 286.232 52.9985 285.979 52.9985Z" fill="#FFD310"/>
<path d="M244.713 45.2343C255.39 52.0981 279.795 57.4367 298.861 45.2343" stroke="#FFD310" stroke-width="3.87"/>
<defs>
<linearGradient id="paint0_linear" x1="33.9998" y1="428.022" x2="122.957" y2="582.82" gradientUnits="userSpaceOnUse">
<stop stop-color="#FFC5C6"/>
<stop offset="1" stop-color="#FFF6F6"/>
</linearGradient>
<linearGradient id="paint1_linear" x1="533" y1="252.022" x2="174.277" y2="18.7166" gradientUnits="userSpaceOnUse">
<stop stop-color="white"/>
<stop offset="1" stop-color="#FFD7D7"/>
</linearGradient>
<linearGradient id="paint2_linear" x1="516.287" y1="175.628" x2="398.22" y2="125.199" gradientUnits="userSpaceOnUse">
<stop stop-color="#FFBEBF"/>
<stop offset="1" stop-color="#FFFBFC"/>
</linearGradient>
<linearGradient id="paint3_linear" x1="548" y1="429.022" x2="35.9999" y2="225.022" gradientUnits="userSpaceOnUse">
<stop stop-color="#FFD7D7"/>
<stop offset="1" stop-color="#FFF8F8"/>
</linearGradient>
<linearGradient id="paint4_linear" x1="443" y1="329" x2="398.318" y2="195.778" gradientUnits="userSpaceOnUse">
<stop stop-color="#FFC4A0"/>
<stop offset="1" stop-color="#FFCEB0"/>
</linearGradient>
</defs>
</svg>
